<svg width="134" height="22" viewBox="0 0 134 22" fill="none" xmlns="http://www.w3.org/2000/svg">
<g id="PortfoliOH">
<path d="M14.4356 8.4326C14.4356 9.44679 14.1928 10.3976 13.7073 11.285C13.2397 12.1724 12.4934 12.8878 11.4683 13.4311C10.4612 13.9744 9.18439 14.2461 7.63779 14.2461H4.48165V21.5265H0.705078V2.56478H7.63779C9.09447 2.56478 10.3353 2.81833 11.3604 3.32542C12.3855 3.83252 13.1498 4.52977 13.6533 5.41719C14.1749 6.30461 14.4356 7.30975 14.4356 8.4326ZM7.47594 11.1764C8.51899 11.1764 9.29229 10.9409 9.79583 10.47C10.2994 9.98105 10.5511 9.30191 10.5511 8.4326C10.5511 6.58532 9.52608 5.66168 7.47594 5.66168H4.48165V11.1764H7.47594Z" fill="#0B3550"/>
<path d="M23.7529 21.771C22.3142 21.771 21.0194 21.4541 19.8685 20.8202C18.7175 20.1682 17.8093 19.2537 17.1439 18.0765C16.4965 16.8993 16.1728 15.541 16.1728 14.0016C16.1728 12.4622 16.5055 11.1039 17.1709 9.92672C17.8543 8.74954 18.7804 7.84401 19.9494 7.21014C21.1183 6.55816 22.4221 6.23217 23.8608 6.23217C25.2995 6.23217 26.6033 6.55816 27.7723 7.21014C28.9412 7.84401 29.8584 8.74954 30.5238 9.92672C31.2072 11.1039 31.5489 12.4622 31.5489 14.0016C31.5489 15.541 31.1982 16.8993 30.4968 18.0765C29.8134 19.2537 28.8783 20.1682 27.6914 20.8202C26.5224 21.4541 25.2096 21.771 23.7529 21.771ZM23.7529 18.4568C24.4363 18.4568 25.0747 18.2938 25.6682 17.9678C26.2796 17.6237 26.7652 17.1166 27.1249 16.4465C27.4845 15.7764 27.6644 14.9615 27.6644 14.0016C27.6644 12.5709 27.2867 11.4752 26.5314 10.7145C25.7941 9.93578 24.8859 9.5464 23.8069 9.5464C22.7279 9.5464 21.8197 9.93578 21.0824 10.7145C20.363 11.4752 20.0033 12.5709 20.0033 14.0016C20.0033 15.4323 20.354 16.5371 21.0554 17.3158C21.7747 18.0765 22.6739 18.4568 23.7529 18.4568Z" fill="#0B3550"/>
<path d="M38.0957 8.81292C38.5813 8.01606 39.2107 7.39124 39.984 6.93848C40.7753 6.48572 41.6744 6.25933 42.6815 6.25933V10.2527H41.6834C40.4965 10.2527 39.5973 10.5334 38.9859 11.0949C38.3924 11.6563 38.0957 12.6343 38.0957 14.0288V21.5265H34.3191V6.47666H38.0957V8.81292Z" fill="#0B3550"/>
<path d="M49.6223 9.60073V16.8812C49.6223 17.3883 49.7391 17.7595 49.9729 17.995C50.2247 18.2123 50.6383 18.321 51.2138 18.321H52.9672V21.5265H50.5934C47.4103 21.5265 45.8187 19.969 45.8187 16.854V9.60073H44.0383V6.47666H45.8187V2.75494H49.6223V6.47666H52.9672V9.60073H49.6223Z" fill="#0B3550"/>
<path d="M62.5353 9.60073H59.9187V21.5265H56.0882V9.60073H54.3887V6.47666H56.0882V5.71602C56.0882 3.86874 56.6097 2.51045 57.6527 1.64114C58.6958 0.771833 60.2694 0.364345 62.3735 0.418677V3.62425C61.4563 3.60614 60.8179 3.76008 60.4582 4.08607C60.0985 4.41206 59.9187 5.00065 59.9187 5.85185V6.47666H62.5353V9.60073Z" fill="#0B3550"/>
<path d="M71.6187 21.771C70.18 21.771 68.8852 21.4541 67.7342 20.8202C66.5833 20.1682 65.6751 19.2537 65.0097 18.0765C64.3623 16.8993 64.0386 15.541 64.0386 14.0016C64.0386 12.4622 64.3713 11.1039 65.0367 9.92672C65.72 8.74954 66.6462 7.84401 67.8151 7.21014C68.9841 6.55816 70.2879 6.23217 71.7266 6.23217C73.1653 6.23217 74.4691 6.55816 75.6381 7.21014C76.807 7.84401 77.7242 8.74954 78.3896 9.92672C79.0729 11.1039 79.4146 12.4622 79.4146 14.0016C79.4146 15.541 79.0639 16.8993 78.3626 18.0765C77.6792 19.2537 76.744 20.1682 75.5571 20.8202C74.3882 21.4541 73.0754 21.771 71.6187 21.771ZM71.6187 18.4568C72.3021 18.4568 72.9405 18.2938 73.534 17.9678C74.1454 17.6237 74.631 17.1166 74.9906 16.4465C75.3503 15.7764 75.5302 14.9615 75.5302 14.0016C75.5302 12.5709 75.1525 11.4752 74.3972 10.7145C73.6598 9.93578 72.7517 9.5464 71.6726 9.5464C70.5936 9.5464 69.6854 9.93578 68.9481 10.7145C68.2288 11.4752 67.8691 12.5709 67.8691 14.0016C67.8691 15.4323 68.2198 16.5371 68.9211 17.3158C69.6405 18.0765 70.5397 18.4568 71.6187 18.4568Z" fill="#0B3550"/>
<path d="M85.9615 1.42381V21.5265H82.1849V1.42381H85.9615Z" fill="#0B3550"/>
<path d="M91.608 4.68372C90.9426 4.68372 90.3851 4.47544 89.9355 4.0589C89.5039 3.62425 89.2881 3.08998 89.2881 2.45612C89.2881 1.82225 89.5039 1.29704 89.9355 0.880496C90.3851 0.445842 90.9426 0.228516 91.608 0.228516C92.2734 0.228516 92.8219 0.445842 93.2535 0.880496C93.7031 1.29704 93.9279 1.82225 93.9279 2.45612C93.9279 3.08998 93.7031 3.62425 93.2535 4.0589C92.8219 4.47544 92.2734 4.68372 91.608 4.68372ZM93.4693 6.47666V21.5265H89.6927V6.47666H93.4693Z" fill="#0B3550"/>
<path d="M105.941 21.7167C104.178 21.7167 102.56 21.3002 101.085 20.4671C99.6104 19.634 98.4414 18.484 97.5782 17.017C96.715 15.5319 96.2834 13.8567 96.2834 11.9913C96.2834 10.144 96.715 8.48693 97.5782 7.01998C98.4414 5.53491 99.6104 4.37583 101.085 3.54275C102.56 2.70966 104.178 2.29312 105.941 2.29312C107.721 2.29312 109.34 2.70966 110.796 3.54275C112.271 4.37583 113.431 5.53491 114.276 7.01998C115.139 8.48693 115.571 10.144 115.571 11.9913C115.571 13.8567 115.139 15.5319 114.276 17.017C113.431 18.484 112.271 19.634 110.796 20.4671C109.322 21.3002 107.703 21.7167 105.941 21.7167ZM105.941 18.321C107.074 18.321 108.072 18.0674 108.935 17.5603C109.798 17.0351 110.473 16.2926 110.958 15.3327C111.444 14.3729 111.686 13.2591 111.686 11.9913C111.686 10.7236 111.444 9.61884 110.958 8.67709C110.473 7.71723 109.798 6.98376 108.935 6.47666C108.072 5.96956 107.074 5.71602 105.941 5.71602C104.808 5.71602 103.801 5.96956 102.919 6.47666C102.056 6.98376 101.382 7.71723 100.896 8.67709C100.411 9.61884 100.168 10.7236 100.168 11.9913C100.168 13.2591 100.411 14.3729 100.896 15.3327C101.382 16.2926 102.056 17.0351 102.919 17.5603C103.801 18.0674 104.808 18.321 105.941 18.321Z" fill="#0B3550"/>
<path d="M133.999 2.56478V21.5265H130.223V13.4583H122.157V21.5265H118.381V2.56478H122.157V10.3614H130.223V2.56478H133.999Z" fill="#0B3550"/>
</g>
</svg>
