<svg width="589" height="271" viewBox="0 0 589 271" fill="none" xmlns="http://www.w3.org/2000/svg">
<rect width="589" height="271" rx="16" fill="#334E66"/>
<path d="M108.957 73.7473H60.4162C60.0122 73.7468 59.625 73.5874 59.3393 73.304C59.0537 73.0206 58.893 72.6364 58.8926 72.2356V35.6671C58.893 35.2663 59.0537 34.882 59.3393 34.5986C59.6249 34.3152 60.0122 34.1557 60.4162 34.1553H119.997C120.401 34.1557 120.788 34.3152 121.074 34.5986C121.36 34.882 121.52 35.2663 121.521 35.6671V61.2815C121.517 64.5865 120.192 67.755 117.837 70.092C115.481 72.429 112.288 73.7435 108.957 73.7473Z" fill="white"/>
<path d="M108.958 73.8845H60.4175C59.977 73.884 59.5546 73.7101 59.2431 73.4011C58.9316 73.092 58.7564 72.673 58.7559 72.2359V35.6673C58.7564 35.2302 58.9316 34.8112 59.2431 34.5021C59.5546 34.193 59.977 34.0191 60.4175 34.0186H119.998C120.439 34.0191 120.861 34.1929 121.173 34.502C121.484 34.8111 121.66 35.2302 121.66 35.6673V61.2818C121.656 64.6231 120.317 67.8264 117.935 70.1891C115.554 72.5517 112.326 73.8807 108.958 73.8845ZM60.4175 34.5665C60.1234 34.5669 59.8414 34.683 59.6334 34.8893C59.4254 35.0957 59.3085 35.3755 59.3081 35.6673V72.2359C59.3085 72.5277 59.4254 72.8075 59.6334 73.0138C59.8414 73.2202 60.1234 73.3362 60.4175 73.3366H108.958C112.179 73.333 115.267 72.0617 117.545 69.8018C119.823 67.5419 121.104 64.4778 121.108 61.2818V35.6673C121.108 35.3755 120.991 35.0957 120.783 34.8893C120.575 34.683 120.293 34.5669 119.998 34.5665H60.4175Z" fill="#CCCCCC"/>
<path d="M108.22 46.5053H72.1943C71.8636 46.5053 71.5464 46.375 71.3125 46.1429C71.0786 45.9109 70.9473 45.5962 70.9473 45.268C70.9473 44.9399 71.0786 44.6252 71.3125 44.3932C71.5464 44.1611 71.8636 44.0308 72.1943 44.0308H108.22C108.55 44.0312 108.867 44.1618 109.101 44.3938C109.334 44.6258 109.465 44.9402 109.465 45.268C109.465 45.5959 109.334 45.9103 109.101 46.1423C108.867 46.3743 108.55 46.5048 108.22 46.5053Z" fill="#CCCCCC"/>
<path d="M108.22 55.0288H72.1943C71.8636 55.0288 71.5464 54.8984 71.3125 54.6664C71.0786 54.4343 70.9473 54.1196 70.9473 53.7915C70.9473 53.4633 71.0786 53.1486 71.3125 52.9166C71.5464 52.6846 71.8636 52.5542 72.1943 52.5542H108.22C108.551 52.5542 108.868 52.6846 109.102 52.9166C109.336 53.1486 109.467 53.4633 109.467 53.7915C109.467 54.1196 109.336 54.4343 109.102 54.6664C108.868 54.8984 108.551 55.0288 108.22 55.0288Z" fill="#CCCCCC"/>
<path d="M108.22 63.7958H72.1943C71.8636 63.7958 71.5464 63.6655 71.3125 63.4335C71.0786 63.2014 70.9473 62.8867 70.9473 62.5586C70.9473 62.2304 71.0786 61.9157 71.3125 61.6837C71.5464 61.4516 71.8636 61.3213 72.1943 61.3213H108.22C108.551 61.3213 108.868 61.4516 109.102 61.6837C109.336 61.9157 109.467 62.2304 109.467 62.5586C109.467 62.8867 109.336 63.2014 109.102 63.4335C108.868 63.6655 108.551 63.7958 108.22 63.7958Z" fill="#CCCCCC"/>
<path d="M119.55 43.1611C123.663 43.1611 126.997 39.8531 126.997 35.7724C126.997 31.6918 123.663 28.3838 119.55 28.3838C115.438 28.3838 112.104 31.6918 112.104 35.7724C112.104 39.8531 115.438 43.1611 119.55 43.1611Z" fill="#4B964B"/>
<path d="M118.536 39.6178C118.407 39.6178 118.28 39.5881 118.165 39.531C118.05 39.4739 117.95 39.391 117.873 39.289L115.841 36.6013C115.776 36.5149 115.729 36.4167 115.702 36.3121C115.675 36.2076 115.669 36.0988 115.684 35.9919C115.699 35.8851 115.736 35.7823 115.791 35.6894C115.847 35.5965 115.92 35.5154 116.007 35.4507C116.094 35.3859 116.193 35.3388 116.299 35.312C116.404 35.2852 116.514 35.2793 116.621 35.2946C116.729 35.3098 116.833 35.346 116.926 35.401C117.02 35.456 117.102 35.5287 117.167 35.6151L118.496 37.3733L121.91 32.2928C122.032 32.1114 122.221 31.9855 122.437 31.9427C122.652 31.9 122.876 31.9439 123.059 32.0648C123.241 32.1857 123.368 32.3737 123.411 32.5875C123.454 32.8012 123.41 33.0232 123.288 33.2046L119.225 39.2518C119.152 39.3611 119.053 39.4514 118.937 39.5151C118.821 39.5787 118.691 39.6138 118.559 39.6175C118.551 39.6177 118.543 39.6178 118.536 39.6178Z" fill="white"/>
<path d="M91.042 105.509H42.5016C39.1705 105.505 35.977 104.19 33.6216 101.853C31.2662 99.5164 29.9413 96.3479 29.9375 93.0429V67.4283C29.938 67.0275 30.0987 66.6432 30.3843 66.3598C30.67 66.0764 31.0573 65.917 31.4612 65.9165H91.042C91.446 65.917 91.8333 66.0764 92.1189 66.3598C92.4046 66.6432 92.5653 67.0275 92.5657 67.4283V103.997C92.5653 104.398 92.4046 104.782 92.1189 105.065C91.8333 105.349 91.446 105.508 91.042 105.509Z" fill="white"/>
<path d="M91.0414 105.646H42.501C39.1333 105.642 35.9047 104.313 33.5234 101.95C31.1421 99.5878 29.8027 96.3844 29.7988 93.0431V67.4286C29.7993 66.9914 29.9746 66.5724 30.2861 66.2633C30.5976 65.9542 31.02 65.7803 31.4606 65.7798H91.0414C91.482 65.7803 91.9044 65.9542 92.2159 66.2633C92.5275 66.5724 92.7027 66.9914 92.7032 67.4286V103.997C92.7027 104.434 92.5275 104.853 92.2159 105.162C91.9044 105.472 91.482 105.645 91.0414 105.646ZM31.4606 66.3277C31.1665 66.3281 30.8845 66.4442 30.6765 66.6505C30.4685 66.8569 30.3515 67.1367 30.3511 67.4286V93.0431C30.3547 96.2392 31.636 99.3032 33.9137 101.563C36.1915 103.823 39.2798 105.094 42.501 105.098H91.0414C91.3356 105.098 91.6176 104.982 91.8256 104.775C92.0336 104.569 92.1506 104.289 92.1509 103.997V67.4286C92.1506 67.1367 92.0336 66.8569 91.8256 66.6505C91.6176 66.4442 91.3356 66.3281 91.0414 66.3277H31.4606Z" fill="#CCCCCC"/>
<path d="M79.2649 78.2666H43.2392C42.9085 78.2666 42.5913 78.1362 42.3574 77.9042C42.1236 77.6721 41.9922 77.3574 41.9922 77.0293C41.9922 76.7011 42.1236 76.3864 42.3574 76.1544C42.5913 75.9224 42.9085 75.792 43.2392 75.792H79.2649C79.5956 75.792 79.9128 75.9224 80.1467 76.1544C80.3805 76.3864 80.5119 76.7011 80.5119 77.0293C80.5119 77.3574 80.3805 77.6721 80.1467 77.9042C79.9128 78.1362 79.5956 78.2666 79.2649 78.2666Z" fill="#CCCCCC"/>
<path d="M79.2649 86.79H43.2392C42.9085 86.79 42.5913 86.6596 42.3574 86.4276C42.1236 86.1956 41.9922 85.8809 41.9922 85.5527C41.9922 85.2246 42.1236 84.9099 42.3574 84.6778C42.5913 84.4458 42.9085 84.3154 43.2392 84.3154H79.2649C79.5956 84.3154 79.9128 84.4458 80.1467 84.6778C80.3806 84.9099 80.5119 85.2246 80.5119 85.5527C80.5119 85.8809 80.3806 86.1956 80.1467 86.4276C79.9128 86.6596 79.5956 86.79 79.2649 86.79Z" fill="#CCCCCC"/>
<path d="M79.2649 95.5571H43.2392C42.9085 95.5571 42.5913 95.4267 42.3574 95.1947C42.1236 94.9627 41.9922 94.6479 41.9922 94.3198C41.9922 93.9917 42.1236 93.6769 42.3574 93.4449C42.5913 93.2129 42.9085 93.0825 43.2392 93.0825H79.2649C79.5956 93.0825 79.9128 93.2129 80.1467 93.4449C80.3806 93.6769 80.5119 93.9917 80.5119 94.3198C80.5119 94.6479 80.3806 94.9627 80.1467 95.1947C79.9128 95.4267 79.5956 95.5571 79.2649 95.5571Z" fill="#CCCCCC"/>
<path d="M91.109 75.2157C95.2219 75.2157 98.556 71.9077 98.556 67.8271C98.556 63.7465 95.2219 60.4385 91.109 60.4385C86.9962 60.4385 83.6621 63.7465 83.6621 67.8271C83.6621 71.9077 86.9962 75.2157 91.109 75.2157Z" fill="#D84441"/>
<path d="M151.522 139.595H83.6032C80.2721 139.591 77.0786 138.277 74.7232 135.94C72.3677 133.603 71.0428 130.434 71.0391 127.129V89.4541C71.0397 88.9374 71.2468 88.4421 71.615 88.0768C71.9832 87.7115 72.4824 87.506 73.0031 87.5054H151.522C152.043 87.506 152.542 87.7115 152.91 88.0768C153.278 88.4421 153.486 88.9374 153.486 89.4541V137.646C153.486 138.163 153.278 138.658 152.91 139.023C152.542 139.389 152.043 139.594 151.522 139.595Z" fill="white"/>
<path d="M151.522 139.732H83.6026C80.2349 139.728 77.0063 138.399 74.625 136.036C72.2437 133.673 70.9042 130.47 70.9004 127.129V89.4539C70.901 88.9009 71.1227 88.3707 71.5168 87.9797C71.9109 87.5887 72.4452 87.3688 73.0025 87.3682H151.522C152.079 87.3688 152.613 87.5888 153.007 87.9798C153.401 88.3708 153.623 88.9009 153.624 89.4539V137.646C153.623 138.199 153.401 138.729 153.007 139.12C152.613 139.511 152.079 139.731 151.522 139.732ZM73.0025 87.9161C72.5916 87.9166 72.1977 88.0788 71.9071 88.367C71.6166 88.6553 71.4531 89.0462 71.4527 89.4539V127.129C71.4563 130.325 72.7375 133.389 75.0153 135.649C77.2931 137.909 80.3813 139.18 83.6026 139.184H151.522C151.932 139.183 152.326 139.021 152.617 138.733C152.907 138.444 153.071 138.053 153.071 137.646V89.4539C153.071 89.0462 152.907 88.6553 152.617 88.3671C152.326 88.0788 151.932 87.9166 151.522 87.9161H73.0025Z" fill="#CCCCCC"/>
<path d="M136.001 103.737H88.5245C88.3085 103.737 88.0945 103.695 87.8949 103.613C87.6953 103.531 87.5138 103.411 87.361 103.26C87.2082 103.108 87.0869 102.929 87.0042 102.731C86.9215 102.533 86.8789 102.32 86.8789 102.106C86.8789 101.892 86.9215 101.68 87.0042 101.482C87.0869 101.284 87.2082 101.104 87.361 100.952C87.5138 100.801 87.6953 100.681 87.8949 100.599C88.0945 100.517 88.3085 100.475 88.5245 100.476H136.001C136.217 100.475 136.431 100.517 136.631 100.599C136.83 100.681 137.012 100.801 137.165 100.952C137.317 101.104 137.439 101.284 137.521 101.482C137.604 101.68 137.647 101.892 137.647 102.106C137.647 102.32 137.604 102.533 137.521 102.731C137.439 102.929 137.317 103.108 137.165 103.26C137.012 103.411 136.83 103.531 136.631 103.613C136.431 103.695 136.217 103.737 136.001 103.737Z" fill="#CCCCCC"/>
<path d="M136.001 114.97H88.5245C88.3085 114.97 88.0945 114.928 87.8949 114.846C87.6953 114.764 87.5138 114.644 87.361 114.493C87.2082 114.341 87.0869 114.161 87.0042 113.964C86.9215 113.766 86.8789 113.553 86.8789 113.339C86.8789 113.125 86.9215 112.913 87.0042 112.715C87.0869 112.517 87.2082 112.337 87.361 112.185C87.5138 112.034 87.6953 111.914 87.8949 111.832C88.0945 111.75 88.3085 111.708 88.5245 111.708H136.001C136.437 111.708 136.855 111.88 137.163 112.186C137.471 112.492 137.645 112.907 137.645 113.339C137.645 113.772 137.471 114.186 137.163 114.492C136.855 114.798 136.437 114.97 136.001 114.97Z" fill="#CCCCCC"/>
<path d="M136.001 126.523H88.5243C88.0884 126.523 87.6704 126.352 87.3622 126.046C87.054 125.74 86.8809 125.325 86.8809 124.893C86.8809 124.46 87.054 124.046 87.3622 123.74C87.6704 123.434 88.0884 123.262 88.5243 123.262H136.001C136.217 123.262 136.431 123.304 136.63 123.386C136.83 123.468 137.012 123.588 137.164 123.739C137.317 123.89 137.438 124.07 137.521 124.268C137.604 124.466 137.646 124.678 137.646 124.893C137.646 125.107 137.604 125.319 137.521 125.517C137.438 125.715 137.317 125.895 137.164 126.046C137.012 126.198 136.83 126.318 136.63 126.4C136.431 126.482 136.217 126.524 136.001 126.523Z" fill="#CCCCCC"/>
<path d="M151.769 99.8078C156.975 99.8078 161.196 95.6202 161.196 90.4547C161.196 85.2891 156.975 81.1016 151.769 81.1016C146.562 81.1016 142.342 85.2891 142.342 90.4547C142.342 95.6202 146.562 99.8078 151.769 99.8078Z" fill="#6C63FF"/>
<path d="M150.482 95.3227C150.319 95.3227 150.158 95.2851 150.013 95.2128C149.867 95.1406 149.74 95.0357 149.643 94.9064L147.071 91.5042C146.988 91.3949 146.928 91.2705 146.894 91.1381C146.86 91.0058 146.852 90.868 146.872 90.7328C146.891 90.5975 146.937 90.4674 147.008 90.3499C147.078 90.2323 147.171 90.1296 147.281 90.0476C147.391 89.9657 147.516 89.906 147.65 89.8721C147.783 89.8382 147.922 89.8307 148.058 89.85C148.195 89.8694 148.326 89.9151 148.444 89.9847C148.563 90.0544 148.666 90.1465 148.749 90.2558L150.431 92.4814L154.753 86.0501C154.907 85.8209 155.147 85.6619 155.42 85.608C155.692 85.5541 155.975 85.6097 156.206 85.7626C156.437 85.9156 156.598 86.1533 156.653 86.4236C156.707 86.6939 156.652 86.9747 156.498 87.2043L151.354 94.8593C151.261 94.9978 151.136 95.1121 150.989 95.1926C150.843 95.2732 150.678 95.3177 150.511 95.3223C150.501 95.3225 150.491 95.3227 150.482 95.3227Z" fill="white"/>
<rect width="1.83794" height="9.55726" rx="0.918968" transform="matrix(0.70988 0.704323 -0.70988 0.704323 93.9375 63.9521)" fill="white"/>
<rect width="1.83794" height="9.55726" rx="0.918968" transform="matrix(0.70988 -0.704323 0.70988 0.704323 87.1523 64.9873)" fill="white"/>
<path d="M32.62 184L29.84 178.54H28.4V184H25.62V169.82H31.16C33.92 169.82 35.68 171.72 35.68 174.18C35.68 176.16 34.52 177.66 32.66 178.2L35.7 184H32.62ZM28.4 176.16H30.64C32.04 176.16 32.86 175.36 32.86 174.2C32.86 173 32.04 172.22 30.64 172.22H28.4V176.16ZM39.4266 177.96H43.8266C43.7866 176.98 43.1466 176.02 41.6266 176.02C40.2466 176.02 39.4866 177.06 39.4266 177.96ZM44.0866 180.52L46.3066 181.18C45.8066 182.88 44.2466 184.3 41.8266 184.3C39.1266 184.3 36.7466 182.36 36.7466 179.04C36.7466 175.9 39.0666 173.86 41.5866 173.86C44.6266 173.86 46.4466 175.8 46.4466 178.96C46.4466 179.34 46.4066 179.74 46.4066 179.78H39.3666C39.4266 181.08 40.5266 182.02 41.8466 182.02C43.0866 182.02 43.7666 181.4 44.0866 180.52ZM57.7613 169.52V182.22C57.7613 182.88 57.8013 183.6 57.8413 184H55.3013C55.2613 183.8 55.2013 183.32 55.2013 182.86C54.7613 183.64 53.7613 184.24 52.4413 184.24C49.6413 184.24 47.6413 182.04 47.6413 179.06C47.6413 176.18 49.5813 173.92 52.3613 173.92C54.0613 173.92 54.8613 174.62 55.1413 175.14V169.52H57.7613ZM50.3213 179.06C50.3213 180.82 51.3613 181.86 52.7613 181.86C54.1213 181.86 55.1813 180.82 55.1813 179.04C55.1813 177.28 54.1213 176.3 52.7613 176.3C51.4013 176.3 50.3213 177.3 50.3213 179.06ZM66.8878 184C66.8478 183.8 66.8078 183.34 66.8078 182.94C66.2678 183.86 65.1278 184.26 64.0878 184.26C61.7078 184.26 60.3478 182.52 60.3478 180.38V174.16H63.0078V179.84C63.0078 180.94 63.5678 181.82 64.8078 181.82C65.9878 181.82 66.6678 181.02 66.6678 179.88V174.16H69.3278V182.22C69.3278 182.98 69.3878 183.66 69.4278 184H66.8878ZM76.3875 176.32C75.0275 176.32 73.8875 177.3 73.8875 179.08C73.8875 180.86 75.0475 181.86 76.4075 181.86C77.7675 181.86 78.4475 180.96 78.6675 180.2L81.0075 180.98C80.5675 182.62 79.0275 184.3 76.4075 184.3C73.5075 184.3 71.2275 182.1 71.2275 179.08C71.2275 176.04 73.4675 173.86 76.3275 173.86C79.0075 173.86 80.5275 175.52 80.9475 177.18L78.5675 177.98C78.3275 177.16 77.7075 176.32 76.3875 176.32ZM85.4636 184H82.8036V174.16H85.4636V184ZM82.4836 170.94C82.4836 170.02 83.2236 169.28 84.1236 169.28C85.0436 169.28 85.7636 170.02 85.7636 170.94C85.7636 171.82 85.0436 172.56 84.1236 172.56C83.2236 172.56 82.4836 171.82 82.4836 170.94ZM90.8114 178.34V184H88.1514V174.16H90.7314V175.38C91.3314 174.36 92.5114 173.9 93.5714 173.9C96.0114 173.9 97.1314 175.64 97.1314 177.8V184H94.4714V178.26C94.4714 177.16 93.9314 176.3 92.6514 176.3C91.4914 176.3 90.8114 177.2 90.8114 178.34ZM98.9711 184.54L101.371 183.9C101.551 184.98 102.411 185.76 103.671 185.76C105.351 185.76 106.291 184.92 106.291 183.02V182.3C105.891 182.94 104.971 183.56 103.551 183.56C100.931 183.56 98.9711 181.54 98.9711 178.78C98.9711 176.18 100.851 173.98 103.551 173.98C105.111 173.98 106.011 174.66 106.351 175.32V174.16H108.911V182.94C108.911 185.64 107.451 188.1 103.751 188.1C101.051 188.1 99.2511 186.42 98.9711 184.54ZM104.011 181.28C105.371 181.28 106.331 180.3 106.331 178.78C106.331 177.26 105.291 176.3 104.011 176.3C102.691 176.3 101.651 177.26 101.651 178.78C101.651 180.32 102.631 181.28 104.011 181.28ZM125.966 173.2L123.486 173.96C123.346 173.18 122.706 171.96 120.906 171.96C119.566 171.96 118.686 172.82 118.686 173.76C118.686 174.54 119.186 175.16 120.226 175.36L122.206 175.74C124.786 176.24 126.166 177.92 126.166 179.92C126.166 182.1 124.346 184.3 121.046 184.3C117.286 184.3 115.626 181.88 115.406 179.86L117.966 179.18C118.086 180.58 119.066 181.84 121.066 181.84C122.546 181.84 123.366 181.1 123.366 180.1C123.366 179.28 122.746 178.64 121.646 178.42L119.666 178.02C117.406 177.56 115.946 176.1 115.946 173.96C115.946 171.44 118.206 169.52 120.886 169.52C124.326 169.52 125.646 171.6 125.966 173.2ZM137.579 174.16L133.639 178.3L137.659 184H134.399L131.799 180.24L130.699 181.4V184H128.039V169.52H130.699V177.82L134.099 174.16H137.579ZM141.711 184H139.051V174.16H141.711V184ZM138.731 170.94C138.731 170.02 139.471 169.28 140.371 169.28C141.291 169.28 142.011 170.02 142.011 170.94C142.011 171.82 141.291 172.56 140.371 172.56C139.471 172.56 138.731 171.82 138.731 170.94ZM147.058 184H144.398V169.52H147.058V184ZM152.406 184H149.746V169.52H152.406V184ZM154.254 181.26L156.534 180.76C156.594 181.54 157.174 182.26 158.334 182.26C159.214 182.26 159.634 181.8 159.634 181.28C159.634 180.84 159.334 180.48 158.574 180.32L157.274 180.02C155.374 179.6 154.514 178.46 154.514 177.08C154.514 175.32 156.074 173.86 158.194 173.86C160.994 173.86 161.934 175.64 162.054 176.7L159.834 177.2C159.754 176.62 159.334 175.88 158.214 175.88C157.514 175.88 156.954 176.3 156.954 176.86C156.954 177.34 157.314 177.64 157.854 177.74L159.254 178.04C161.194 178.44 162.174 179.62 162.174 181.06C162.174 182.66 160.934 184.3 158.354 184.3C155.394 184.3 154.374 182.38 154.254 181.26ZM184.954 184H182.234V174.06L178.154 184H175.854L171.774 174.14V184H169.134V169.82H172.774L177.034 180.06L181.194 169.82H184.954V184ZM190.497 184H187.837V174.16H190.497V184ZM187.517 170.94C187.517 170.02 188.257 169.28 189.157 169.28C190.077 169.28 190.797 170.02 190.797 170.94C190.797 171.82 190.077 172.56 189.157 172.56C188.257 172.56 187.517 171.82 187.517 170.94ZM192.345 181.26L194.625 180.76C194.685 181.54 195.265 182.26 196.425 182.26C197.305 182.26 197.725 181.8 197.725 181.28C197.725 180.84 197.425 180.48 196.665 180.32L195.365 180.02C193.465 179.6 192.605 178.46 192.605 177.08C192.605 175.32 194.165 173.86 196.285 173.86C199.085 173.86 200.025 175.64 200.145 176.7L197.925 177.2C197.845 176.62 197.425 175.88 196.305 175.88C195.605 175.88 195.045 176.3 195.045 176.86C195.045 177.34 195.405 177.64 195.945 177.74L197.345 178.04C199.285 178.44 200.265 179.62 200.265 181.06C200.265 182.66 199.025 184.3 196.445 184.3C193.485 184.3 192.465 182.38 192.345 181.26ZM204.903 184H202.243V174.16H204.783V175.36C205.323 174.4 206.583 173.88 207.663 173.88C209.003 173.88 210.083 174.46 210.583 175.52C211.363 174.32 212.403 173.88 213.703 173.88C215.523 173.88 217.263 174.98 217.263 177.62V184H214.683V178.16C214.683 177.1 214.163 176.3 212.943 176.3C211.803 176.3 211.123 177.18 211.123 178.24V184H208.483V178.16C208.483 177.1 207.943 176.3 206.743 176.3C205.583 176.3 204.903 177.16 204.903 178.24V184ZM219.198 181.32C219.198 179.56 220.498 178.58 222.138 178.34L224.558 177.98C225.118 177.9 225.298 177.62 225.298 177.28C225.298 176.58 224.758 176 223.638 176C222.478 176 221.838 176.74 221.758 177.6L219.398 177.1C219.558 175.56 220.978 173.86 223.618 173.86C226.738 173.86 227.898 175.62 227.898 177.6V182.44C227.898 182.96 227.958 183.66 228.018 184H225.578C225.518 183.74 225.478 183.2 225.478 182.82C224.978 183.6 224.038 184.28 222.578 184.28C220.478 184.28 219.198 182.86 219.198 181.32ZM223.138 182.3C224.258 182.3 225.298 181.76 225.298 180.02V179.58L223.078 179.92C222.398 180.02 221.858 180.4 221.858 181.16C221.858 181.74 222.278 182.3 223.138 182.3ZM233.641 171.22V174.16H235.621V176.52H233.641V180.64C233.641 181.5 234.041 181.78 234.801 181.78C235.121 181.78 235.481 181.74 235.621 181.7V183.9C235.381 184 234.901 184.14 234.121 184.14C232.201 184.14 231.001 183 231.001 181.1V176.52H229.221V174.16H229.721C230.761 174.16 231.241 173.48 231.241 172.6V171.22H233.641ZM242.043 176.32C240.683 176.32 239.543 177.3 239.543 179.08C239.543 180.86 240.703 181.86 242.063 181.86C243.423 181.86 244.103 180.96 244.323 180.2L246.663 180.98C246.223 182.62 244.683 184.3 242.063 184.3C239.163 184.3 236.883 182.1 236.883 179.08C236.883 176.04 239.123 173.86 241.983 173.86C244.663 173.86 246.183 175.52 246.603 177.18L244.223 177.98C243.983 177.16 243.363 176.32 242.043 176.32ZM251.119 178.22V184H248.459V169.52H251.119V174.98C251.759 174.22 252.839 173.9 253.779 173.9C256.279 173.9 257.439 175.64 257.439 177.8V184H254.779V178.26C254.779 177.16 254.239 176.3 252.959 176.3C251.839 176.3 251.179 177.14 251.119 178.22ZM259.84 182.36C259.84 181.36 260.64 180.56 261.62 180.56C262.62 180.56 263.44 181.36 263.44 182.36C263.44 183.34 262.62 184.14 261.62 184.14C260.64 184.14 259.84 183.34 259.84 182.36ZM259.82 175.82C259.82 174.82 260.62 174.02 261.6 174.02C262.6 174.02 263.42 174.82 263.42 175.82C263.42 176.8 262.6 177.6 261.6 177.6C260.62 177.6 259.82 176.8 259.82 175.82Z" fill="white"/>
<path opacity="0.8" d="M25.44 205.656H29.136C31.296 205.656 32.56 206.936 32.56 208.728C32.56 209.944 31.856 210.808 30.864 211.176C32.16 211.496 32.912 212.648 32.912 213.912C32.912 215.704 31.488 217 29.408 217H25.44V205.656ZM27.008 210.616H28.96C30.224 210.616 30.976 209.864 30.976 208.808C30.976 207.736 30.192 207.032 28.896 207.032H27.008V210.616ZM27.008 215.624H29.184C30.448 215.624 31.312 214.92 31.312 213.816C31.312 212.728 30.624 211.96 29.248 211.96H27.008V215.624ZM36.7469 220.216H35.0989L37.0189 216.152L33.7069 209.304H35.4349L37.8349 214.616L40.1389 209.304H41.7549L36.7469 220.216ZM51.0739 210.664H49.2179V217H47.6659V210.664H46.2419V209.304H47.6659V208.008C47.6659 206.296 48.8019 205.368 50.1939 205.368C50.7059 205.368 51.0259 205.48 51.0899 205.528V206.872C51.0099 206.84 50.8179 206.776 50.4339 206.776C49.9059 206.776 49.2179 207.032 49.2179 208.088V209.304H51.0739V210.664ZM57.6801 216.072C57.2641 216.872 56.3041 217.24 55.4081 217.24C53.6161 217.24 52.5281 215.896 52.5281 214.152V209.304H54.0321V213.928C54.0321 214.984 54.5121 215.912 55.7761 215.912C56.9921 215.912 57.6001 215.112 57.6001 213.944V209.304H59.1041V215.576C59.1041 216.184 59.1521 216.728 59.1841 217H57.7441C57.7121 216.824 57.6801 216.392 57.6801 216.072ZM65.9426 209.224V210.824C65.7186 210.792 65.4946 210.776 65.2866 210.776C64.0226 210.776 63.1746 211.448 63.1746 213.144V217H61.6706V209.304H63.1426V210.648C63.7026 209.464 64.6626 209.176 65.4466 209.176C65.6546 209.176 65.8626 209.208 65.9426 209.224ZM69.0496 212.552V217H67.5456V209.304H69.0176V210.408C69.5776 209.448 70.4896 209.08 71.3856 209.08C73.2256 209.08 74.1376 210.408 74.1376 212.12V217H72.6336V212.376C72.6336 211.304 72.1856 210.44 70.8416 210.44C69.6576 210.44 69.0496 211.384 69.0496 212.552ZM78.018 217H76.53V209.304H78.018V217ZM76.194 206.392C76.194 205.784 76.674 205.304 77.266 205.304C77.874 205.304 78.354 205.784 78.354 206.392C78.354 206.984 77.874 207.464 77.266 207.464C76.674 207.464 76.194 206.984 76.194 206.392ZM79.8569 215L81.2169 214.52C81.3129 215.32 81.9209 215.96 83.0089 215.96C83.8569 215.96 84.3209 215.48 84.3209 214.936C84.3209 214.456 83.9689 214.088 83.3289 213.944L82.0169 213.656C80.8169 213.4 80.0969 212.584 80.0969 211.496C80.0969 210.184 81.3289 209.064 82.8329 209.064C84.9449 209.064 85.6009 210.44 85.7609 211.128L84.4329 211.624C84.3689 211.224 84.0489 210.344 82.8329 210.344C82.0649 210.344 81.5529 210.84 81.5529 211.368C81.5529 211.832 81.8409 212.168 82.4329 212.296L83.6809 212.568C85.0729 212.872 85.8089 213.72 85.8089 214.856C85.8089 215.944 84.8969 217.24 82.9929 217.24C80.8809 217.24 79.9849 215.88 79.8569 215ZM89.3153 212.472V217H87.8113V205.416H89.3153V210.2C89.8753 209.384 90.7713 209.08 91.6513 209.08C93.4913 209.08 94.4033 210.408 94.4033 212.12V217H92.8993V212.376C92.8993 211.304 92.4513 210.44 91.1073 210.44C89.9553 210.44 89.3473 211.336 89.3153 212.472ZM98.2836 217H96.7956V209.304H98.2836V217ZM96.4596 206.392C96.4596 205.784 96.9396 205.304 97.5316 205.304C98.1396 205.304 98.6196 205.784 98.6196 206.392C98.6196 206.984 98.1396 207.464 97.5316 207.464C96.9396 207.464 96.4596 206.984 96.4596 206.392ZM102.347 212.552V217H100.843V209.304H102.315V210.408C102.875 209.448 103.786 209.08 104.683 209.08C106.523 209.08 107.435 210.408 107.435 212.12V217H105.931V212.376C105.931 211.304 105.483 210.44 104.139 210.44C102.955 210.44 102.347 211.384 102.347 212.552ZM109.267 217.416L110.723 217.08C110.835 218.152 111.651 218.968 112.819 218.968C114.435 218.968 115.171 218.136 115.171 216.472V215.368C114.803 216.072 113.971 216.632 112.819 216.632C110.771 216.632 109.283 215.08 109.283 212.904C109.283 210.824 110.707 209.16 112.819 209.16C114.003 209.16 114.803 209.608 115.187 210.376V209.304H116.675V216.424C116.675 218.376 115.715 220.28 112.819 220.28C110.899 220.28 109.459 219.064 109.267 217.416ZM113.043 215.368C114.339 215.368 115.235 214.392 115.235 212.904C115.235 211.416 114.339 210.44 113.043 210.44C111.715 210.44 110.819 211.416 110.819 212.904C110.819 214.408 111.683 215.368 113.043 215.368ZM122.597 214.936C122.597 213.56 123.605 212.792 124.933 212.6L127.013 212.296C127.477 212.232 127.605 211.992 127.605 211.72C127.605 210.968 127.109 210.344 125.941 210.344C124.885 210.344 124.293 211 124.197 211.896L122.757 211.56C122.917 210.088 124.245 209.064 125.909 209.064C128.213 209.064 129.109 210.376 129.109 211.88V215.736C129.109 216.408 129.173 216.808 129.205 217H127.733C127.701 216.808 127.653 216.52 127.653 215.96C127.317 216.504 126.549 217.24 125.173 217.24C123.605 217.24 122.597 216.152 122.597 214.936ZM125.381 215.976C126.613 215.976 127.605 215.384 127.605 213.704V213.352L125.253 213.704C124.613 213.8 124.133 214.168 124.133 214.856C124.133 215.432 124.613 215.976 125.381 215.976ZM136.94 220.04H135.452V209.304H136.908V210.504C137.324 209.736 138.236 209.128 139.484 209.128C141.788 209.128 143.02 210.904 143.02 213.144C143.02 215.432 141.692 217.208 139.436 217.208C138.252 217.208 137.356 216.648 136.94 215.96V220.04ZM141.484 213.144C141.484 211.608 140.62 210.456 139.212 210.456C137.836 210.456 136.924 211.608 136.924 213.144C136.924 214.728 137.836 215.864 139.212 215.864C140.604 215.864 141.484 214.728 141.484 213.144ZM146.44 217H144.936V205.416H146.44V217ZM148.519 214.936C148.519 213.56 149.527 212.792 150.855 212.6L152.935 212.296C153.399 212.232 153.527 211.992 153.527 211.72C153.527 210.968 153.031 210.344 151.863 210.344C150.807 210.344 150.215 211 150.119 211.896L148.679 211.56C148.839 210.088 150.167 209.064 151.831 209.064C154.135 209.064 155.031 210.376 155.031 211.88V215.736C155.031 216.408 155.095 216.808 155.127 217H153.655C153.623 216.808 153.575 216.52 153.575 215.96C153.239 216.504 152.471 217.24 151.095 217.24C149.527 217.24 148.519 216.152 148.519 214.936ZM151.303 215.976C152.535 215.976 153.527 215.384 153.527 213.704V213.352L151.175 213.704C150.535 213.8 150.055 214.168 150.055 214.856C150.055 215.432 150.535 215.976 151.303 215.976ZM159.39 206.872V209.304H161.054V210.664H159.39V214.664C159.39 215.368 159.678 215.72 160.462 215.72C160.654 215.72 160.926 215.688 161.054 215.656V216.936C160.926 216.984 160.542 217.08 160.03 217.08C158.718 217.08 157.886 216.28 157.886 214.888V210.664H156.414V209.304H156.83C157.662 209.304 158.014 208.792 158.014 208.12V206.872H159.39ZM166.933 210.664H165.077V217H163.525V210.664H162.101V209.304H163.525V208.008C163.525 206.296 164.661 205.368 166.053 205.368C166.565 205.368 166.885 205.48 166.949 205.528V206.872C166.869 206.84 166.677 206.776 166.293 206.776C165.765 206.776 165.077 207.032 165.077 208.088V209.304H166.933V210.664ZM171.529 215.896C172.809 215.896 173.929 214.936 173.929 213.144C173.929 211.368 172.809 210.408 171.529 210.408C170.249 210.408 169.129 211.368 169.129 213.144C169.129 214.936 170.249 215.896 171.529 215.896ZM171.529 209.064C173.833 209.064 175.465 210.808 175.465 213.144C175.465 215.496 173.833 217.24 171.529 217.24C169.225 217.24 167.593 215.496 167.593 213.144C167.593 210.808 169.225 209.064 171.529 209.064ZM181.661 209.224V210.824C181.437 210.792 181.213 210.776 181.005 210.776C179.741 210.776 178.893 211.448 178.893 213.144V217H177.389V209.304H178.861V210.648C179.421 209.464 180.381 209.176 181.165 209.176C181.373 209.176 181.581 209.208 181.661 209.224ZM184.752 217H183.264V209.304H184.704V210.328C185.184 209.48 186.144 209.08 187.04 209.08C188 209.08 188.928 209.544 189.344 210.536C189.952 209.432 190.944 209.08 191.92 209.08C193.264 209.08 194.576 209.992 194.576 212.008V217H193.088V212.168C193.088 211.16 192.592 210.408 191.456 210.408C190.4 210.408 189.68 211.24 189.68 212.344V217H188.176V212.168C188.176 211.176 187.696 210.408 186.544 210.408C185.472 210.408 184.752 211.208 184.752 212.36V217ZM204.855 210.664H202.999V217H201.447V210.664H200.023V209.304H201.447V208.008C201.447 206.296 202.583 205.368 203.975 205.368C204.487 205.368 204.807 205.48 204.871 205.528V206.872C204.791 206.84 204.599 206.776 204.215 206.776C203.687 206.776 202.999 207.032 202.999 208.088V209.304H204.855V210.664ZM209.451 215.896C210.731 215.896 211.851 214.936 211.851 213.144C211.851 211.368 210.731 210.408 209.451 210.408C208.171 210.408 207.051 211.368 207.051 213.144C207.051 214.936 208.171 215.896 209.451 215.896ZM209.451 209.064C211.755 209.064 213.387 210.808 213.387 213.144C213.387 215.496 211.755 217.24 209.451 217.24C207.147 217.24 205.515 215.496 205.515 213.144C205.515 210.808 207.147 209.064 209.451 209.064ZM219.583 209.224V210.824C219.359 210.792 219.135 210.776 218.927 210.776C217.663 210.776 216.815 211.448 216.815 213.144V217H215.311V209.304H216.783V210.648C217.343 209.464 218.303 209.176 219.087 209.176C219.295 209.176 219.503 209.208 219.583 209.224ZM226.674 217H225.186V209.304H226.674V217ZM224.85 206.392C224.85 205.784 225.33 205.304 225.922 205.304C226.53 205.304 227.01 205.784 227.01 206.392C227.01 206.984 226.53 207.464 225.922 207.464C225.33 207.464 224.85 206.984 224.85 206.392ZM230.737 212.552V217H229.233V209.304H230.705V210.408C231.265 209.448 232.177 209.08 233.073 209.08C234.913 209.08 235.825 210.408 235.825 212.12V217H234.321V212.376C234.321 211.304 233.873 210.44 232.529 210.44C231.345 210.44 230.737 211.384 230.737 212.552ZM239.114 213.128C239.114 214.712 239.93 215.88 241.37 215.88C242.746 215.88 243.594 214.68 243.594 213.096C243.594 211.512 242.762 210.424 241.386 210.424C240.01 210.424 239.114 211.544 239.114 213.128ZM243.61 215.96V215.832C243.242 216.568 242.426 217.208 241.226 217.208C238.97 217.208 237.578 215.416 237.578 213.128C237.578 210.952 239.049 209.096 241.226 209.096C242.586 209.096 243.322 209.768 243.578 210.392V205.416H245.066V215.576C245.066 216.312 245.13 216.872 245.146 217H243.69C243.658 216.824 243.61 216.424 243.61 215.96ZM249.112 217H247.624V209.304H249.112V217ZM247.288 206.392C247.288 205.784 247.768 205.304 248.36 205.304C248.968 205.304 249.448 205.784 249.448 206.392C249.448 206.984 248.968 207.464 248.36 207.464C247.768 207.464 247.288 206.984 247.288 206.392ZM258.263 209.304L255.191 217H253.671L250.551 209.304H252.247L254.439 215.24L256.647 209.304H258.263ZM261.19 217H259.702V209.304H261.19V217ZM259.366 206.392C259.366 205.784 259.846 205.304 260.438 205.304C261.046 205.304 261.526 205.784 261.526 206.392C261.526 206.984 261.046 207.464 260.438 207.464C259.846 207.464 259.366 206.984 259.366 206.392ZM264.645 213.128C264.645 214.712 265.461 215.88 266.901 215.88C268.277 215.88 269.125 214.68 269.125 213.096C269.125 211.512 268.293 210.424 266.917 210.424C265.541 210.424 264.645 211.544 264.645 213.128ZM269.141 215.96V215.832C268.773 216.568 267.957 217.208 266.757 217.208C264.501 217.208 263.109 215.416 263.109 213.128C263.109 210.952 264.581 209.096 266.757 209.096C268.117 209.096 268.853 209.768 269.109 210.392V205.416H270.597V215.576C270.597 216.312 270.661 216.872 270.677 217H269.221C269.189 216.824 269.141 216.424 269.141 215.96ZM278.149 216.072C277.733 216.872 276.773 217.24 275.877 217.24C274.085 217.24 272.997 215.896 272.997 214.152V209.304H274.501V213.928C274.501 214.984 274.981 215.912 276.245 215.912C277.461 215.912 278.069 215.112 278.069 213.944V209.304H279.573V215.576C279.573 216.184 279.621 216.728 279.653 217H278.213C278.181 216.824 278.149 216.392 278.149 216.072ZM281.659 214.936C281.659 213.56 282.667 212.792 283.995 212.6L286.075 212.296C286.539 212.232 286.667 211.992 286.667 211.72C286.667 210.968 286.171 210.344 285.003 210.344C283.947 210.344 283.355 211 283.259 211.896L281.819 211.56C281.979 210.088 283.307 209.064 284.971 209.064C287.275 209.064 288.171 210.376 288.171 211.88V215.736C288.171 216.408 288.235 216.808 288.267 217H286.795C286.763 216.808 286.715 216.52 286.715 215.96C286.379 216.504 285.611 217.24 284.235 217.24C282.667 217.24 281.659 216.152 281.659 214.936ZM284.443 215.976C285.675 215.976 286.667 215.384 286.667 213.704V213.352L284.315 213.704C283.675 213.8 283.195 214.168 283.195 214.856C283.195 215.432 283.675 215.976 284.443 215.976ZM292.018 217H290.514V205.416H292.018V217ZM293.857 215L295.217 214.52C295.313 215.32 295.921 215.96 297.009 215.96C297.857 215.96 298.321 215.48 298.321 214.936C298.321 214.456 297.969 214.088 297.329 213.944L296.017 213.656C294.817 213.4 294.097 212.584 294.097 211.496C294.097 210.184 295.329 209.064 296.833 209.064C298.945 209.064 299.601 210.44 299.761 211.128L298.433 211.624C298.369 211.224 298.049 210.344 296.833 210.344C296.065 210.344 295.553 210.84 295.553 211.368C295.553 211.832 295.841 212.168 296.433 212.296L297.681 212.568C299.073 212.872 299.809 213.72 299.809 214.856C299.809 215.944 298.897 217.24 296.993 217.24C294.881 217.24 293.985 215.88 293.857 215ZM307.827 206.872V209.304H309.491V210.664H307.827V214.664C307.827 215.368 308.115 215.72 308.899 215.72C309.091 215.72 309.363 215.688 309.491 215.656V216.936C309.363 216.984 308.979 217.08 308.467 217.08C307.155 217.08 306.323 216.28 306.323 214.888V210.664H304.851V209.304H305.267C306.099 209.304 306.451 208.792 306.451 208.12V206.872H307.827ZM314.717 215.896C315.997 215.896 317.117 214.936 317.117 213.144C317.117 211.368 315.997 210.408 314.717 210.408C313.437 210.408 312.317 211.368 312.317 213.144C312.317 214.936 313.437 215.896 314.717 215.896ZM314.717 209.064C317.021 209.064 318.653 210.808 318.653 213.144C318.653 215.496 317.021 217.24 314.717 217.24C312.413 217.24 310.781 215.496 310.781 213.144C310.781 210.808 312.413 209.064 314.717 209.064ZM323.857 215L325.217 214.52C325.313 215.32 325.921 215.96 327.009 215.96C327.857 215.96 328.321 215.48 328.321 214.936C328.321 214.456 327.969 214.088 327.329 213.944L326.017 213.656C324.817 213.4 324.097 212.584 324.097 211.496C324.097 210.184 325.329 209.064 326.833 209.064C328.945 209.064 329.601 210.44 329.761 211.128L328.433 211.624C328.369 211.224 328.049 210.344 326.833 210.344C326.065 210.344 325.553 210.84 325.553 211.368C325.553 211.832 325.841 212.168 326.433 212.296L327.681 212.568C329.073 212.872 329.809 213.72 329.809 214.856C329.809 215.944 328.897 217.24 326.993 217.24C324.881 217.24 323.985 215.88 323.857 215ZM333.315 212.472V217H331.811V205.416H333.315V210.2C333.875 209.384 334.771 209.08 335.651 209.08C337.491 209.08 338.403 210.408 338.403 212.12V217H336.899V212.376C336.899 211.304 336.451 210.44 335.107 210.44C333.955 210.44 333.347 211.336 333.315 212.472ZM344.092 215.896C345.372 215.896 346.492 214.936 346.492 213.144C346.492 211.368 345.372 210.408 344.092 210.408C342.812 210.408 341.692 211.368 341.692 213.144C341.692 214.936 342.812 215.896 344.092 215.896ZM344.092 209.064C346.396 209.064 348.028 210.808 348.028 213.144C348.028 215.496 346.396 217.24 344.092 217.24C341.788 217.24 340.156 215.496 340.156 213.144C340.156 210.808 341.788 209.064 344.092 209.064ZM354.132 209.304H355.684L357.684 215.096L359.38 209.304H360.964L358.468 217H356.916L354.868 211.144L352.868 217H351.284L348.756 209.304H350.404L352.132 215.096L354.132 209.304ZM365.559 210.456C364.343 210.456 363.223 211.352 363.223 213.144C363.223 214.904 364.327 215.848 365.575 215.848C367.015 215.848 367.543 214.872 367.719 214.264L369.047 214.84C368.679 215.944 367.575 217.24 365.575 217.24C363.335 217.24 361.687 215.48 361.687 213.144C361.687 210.744 363.367 209.064 365.559 209.064C367.607 209.064 368.663 210.344 368.983 211.512L367.623 212.088C367.431 211.336 366.871 210.456 365.559 210.456ZM370.253 214.936C370.253 213.56 371.261 212.792 372.589 212.6L374.669 212.296C375.133 212.232 375.261 211.992 375.261 211.72C375.261 210.968 374.765 210.344 373.597 210.344C372.541 210.344 371.949 211 371.853 211.896L370.413 211.56C370.573 210.088 371.901 209.064 373.565 209.064C375.869 209.064 376.765 210.376 376.765 211.88V215.736C376.765 216.408 376.829 216.808 376.861 217H375.389C375.357 216.808 375.309 216.52 375.309 215.96C374.973 216.504 374.205 217.24 372.829 217.24C371.261 217.24 370.253 216.152 370.253 214.936ZM373.037 215.976C374.269 215.976 375.261 215.384 375.261 213.704V213.352L372.909 213.704C372.269 213.8 371.789 214.168 371.789 214.856C371.789 215.432 372.269 215.976 373.037 215.976ZM378.388 215L379.748 214.52C379.844 215.32 380.452 215.96 381.54 215.96C382.388 215.96 382.852 215.48 382.852 214.936C382.852 214.456 382.5 214.088 381.86 213.944L380.548 213.656C379.348 213.4 378.628 212.584 378.628 211.496C378.628 210.184 379.86 209.064 381.364 209.064C383.476 209.064 384.132 210.44 384.292 211.128L382.964 211.624C382.9 211.224 382.58 210.344 381.364 210.344C380.596 210.344 380.084 210.84 380.084 211.368C380.084 211.832 380.372 212.168 380.964 212.296L382.212 212.568C383.604 212.872 384.34 213.72 384.34 214.856C384.34 215.944 383.428 217.24 381.524 217.24C379.412 217.24 378.516 215.88 378.388 215ZM387.24 212.36H391.448C391.416 211.256 390.696 210.392 389.336 210.392C388.072 210.392 387.304 211.368 387.24 212.36ZM391.672 214.36L392.968 214.808C392.536 216.168 391.304 217.24 389.512 217.24C387.448 217.24 385.64 215.736 385.64 213.128C385.64 210.712 387.384 209.064 389.32 209.064C391.688 209.064 393.016 210.696 393.016 213.096C393.016 213.288 393 213.48 392.984 213.576H387.192C387.224 214.952 388.216 215.912 389.512 215.912C390.76 215.912 391.384 215.224 391.672 214.36ZM400.952 206.872V209.304H402.616V210.664H400.952V214.664C400.952 215.368 401.24 215.72 402.024 215.72C402.216 215.72 402.488 215.688 402.616 215.656V216.936C402.488 216.984 402.104 217.08 401.592 217.08C400.28 217.08 399.448 216.28 399.448 214.888V210.664H397.976V209.304H398.392C399.224 209.304 399.576 208.792 399.576 208.12V206.872H400.952ZM406.128 212.472V217H404.624V205.416H406.128V210.2C406.688 209.384 407.584 209.08 408.464 209.08C410.304 209.08 411.216 210.408 411.216 212.12V217H409.712V212.376C409.712 211.304 409.264 210.44 407.92 210.44C406.768 210.44 406.16 211.336 406.128 212.472ZM414.584 212.36H418.792C418.76 211.256 418.04 210.392 416.68 210.392C415.416 210.392 414.648 211.368 414.584 212.36ZM419.016 214.36L420.312 214.808C419.88 216.168 418.648 217.24 416.856 217.24C414.792 217.24 412.984 215.736 412.984 213.128C412.984 210.712 414.728 209.064 416.664 209.064C419.032 209.064 420.36 210.696 420.36 213.096C420.36 213.288 420.344 213.48 420.328 213.576H414.536C414.568 214.952 415.56 215.912 416.856 215.912C418.104 215.912 418.728 215.224 419.016 214.36ZM423.768 217H422.28V209.304H423.768V217ZM421.944 206.392C421.944 205.784 422.424 205.304 423.016 205.304C423.624 205.304 424.104 205.784 424.104 206.392C424.104 206.984 423.624 207.464 423.016 207.464C422.424 207.464 421.944 206.984 421.944 206.392ZM430.599 209.224V210.824C430.375 210.792 430.151 210.776 429.943 210.776C428.679 210.776 427.831 211.448 427.831 213.144V217H426.327V209.304H427.799V210.648C428.359 209.464 429.319 209.176 430.103 209.176C430.311 209.176 430.519 209.208 430.599 209.224ZM435.722 214.936C435.722 213.56 436.73 212.792 438.058 212.6L440.138 212.296C440.602 212.232 440.73 211.992 440.73 211.72C440.73 210.968 440.234 210.344 439.066 210.344C438.01 210.344 437.418 211 437.322 211.896L435.882 211.56C436.042 210.088 437.37 209.064 439.034 209.064C441.338 209.064 442.234 210.376 442.234 211.88V215.736C442.234 216.408 442.298 216.808 442.33 217H440.858C440.826 216.808 440.778 216.52 440.778 215.96C440.442 216.504 439.674 217.24 438.298 217.24C436.73 217.24 435.722 216.152 435.722 214.936ZM438.506 215.976C439.738 215.976 440.73 215.384 440.73 213.704V213.352L438.378 213.704C437.738 213.8 437.258 214.168 437.258 214.856C437.258 215.432 437.738 215.976 438.506 215.976ZM449.493 216.072C449.077 216.872 448.117 217.24 447.221 217.24C445.429 217.24 444.341 215.896 444.341 214.152V209.304H445.845V213.928C445.845 214.984 446.325 215.912 447.589 215.912C448.805 215.912 449.413 215.112 449.413 213.944V209.304H450.917V215.576C450.917 216.184 450.965 216.728 450.997 217H449.557C449.525 216.824 449.493 216.392 449.493 216.072ZM455.499 206.872V209.304H457.163V210.664H455.499V214.664C455.499 215.368 455.787 215.72 456.571 215.72C456.763 215.72 457.035 215.688 457.163 215.656V216.936C457.035 216.984 456.651 217.08 456.139 217.08C454.827 217.08 453.995 216.28 453.995 214.888V210.664H452.523V209.304H452.939C453.771 209.304 454.123 208.792 454.123 208.12V206.872H455.499ZM460.675 212.472V217H459.171V205.416H460.675V210.2C461.235 209.384 462.131 209.08 463.011 209.08C464.851 209.08 465.763 210.408 465.763 212.12V217H464.259V212.376C464.259 211.304 463.811 210.44 462.467 210.44C461.315 210.44 460.707 211.336 460.675 212.472ZM469.131 212.36H473.339C473.307 211.256 472.587 210.392 471.227 210.392C469.963 210.392 469.195 211.368 469.131 212.36ZM473.563 214.36L474.859 214.808C474.427 216.168 473.195 217.24 471.403 217.24C469.339 217.24 467.531 215.736 467.531 213.128C467.531 210.712 469.275 209.064 471.211 209.064C473.579 209.064 474.907 210.696 474.907 213.096C474.907 213.288 474.891 213.48 474.875 213.576H469.083C469.115 214.952 470.107 215.912 471.403 215.912C472.651 215.912 473.275 215.224 473.563 214.36ZM478.331 212.552V217H476.827V209.304H478.299V210.408C478.859 209.448 479.771 209.08 480.667 209.08C482.507 209.08 483.419 210.408 483.419 212.12V217H481.915V212.376C481.915 211.304 481.467 210.44 480.123 210.44C478.939 210.44 478.331 211.384 478.331 212.552ZM487.827 206.872V209.304H489.491V210.664H487.827V214.664C487.827 215.368 488.115 215.72 488.899 215.72C489.091 215.72 489.363 215.688 489.491 215.656V216.936C489.363 216.984 488.979 217.08 488.467 217.08C487.155 217.08 486.323 216.28 486.323 214.888V210.664H484.851V209.304H485.267C486.099 209.304 486.451 208.792 486.451 208.12V206.872H487.827ZM492.987 217H491.499V209.304H492.987V217ZM491.163 206.392C491.163 205.784 491.643 205.304 492.235 205.304C492.843 205.304 493.323 205.784 493.323 206.392C493.323 206.984 492.843 207.464 492.235 207.464C491.643 207.464 491.163 206.984 491.163 206.392ZM498.778 210.456C497.562 210.456 496.442 211.352 496.442 213.144C496.442 214.904 497.546 215.848 498.794 215.848C500.234 215.848 500.762 214.872 500.938 214.264L502.266 214.84C501.898 215.944 500.794 217.24 498.794 217.24C496.554 217.24 494.906 215.48 494.906 213.144C494.906 210.744 496.586 209.064 498.778 209.064C500.826 209.064 501.882 210.344 502.202 211.512L500.842 212.088C500.65 211.336 500.09 210.456 498.778 210.456ZM503.472 214.936C503.472 213.56 504.48 212.792 505.808 212.6L507.888 212.296C508.352 212.232 508.48 211.992 508.48 211.72C508.48 210.968 507.984 210.344 506.816 210.344C505.76 210.344 505.168 211 505.072 211.896L503.632 211.56C503.792 210.088 505.12 209.064 506.784 209.064C509.088 209.064 509.984 210.376 509.984 211.88V215.736C509.984 216.408 510.048 216.808 510.08 217H508.608C508.576 216.808 508.528 216.52 508.528 215.96C508.192 216.504 507.424 217.24 506.048 217.24C504.48 217.24 503.472 216.152 503.472 214.936ZM506.256 215.976C507.488 215.976 508.48 215.384 508.48 213.704V213.352L506.128 213.704C505.488 213.8 505.008 214.168 505.008 214.856C505.008 215.432 505.488 215.976 506.256 215.976ZM514.343 206.872V209.304H516.007V210.664H514.343V214.664C514.343 215.368 514.631 215.72 515.415 215.72C515.607 215.72 515.879 215.688 516.007 215.656V216.936C515.879 216.984 515.495 217.08 514.983 217.08C513.671 217.08 512.839 216.28 512.839 214.888V210.664H511.367V209.304H511.783C512.615 209.304 512.967 208.792 512.967 208.12V206.872H514.343ZM518.912 212.36H523.12C523.088 211.256 522.368 210.392 521.008 210.392C519.744 210.392 518.976 211.368 518.912 212.36ZM523.344 214.36L524.64 214.808C524.208 216.168 522.976 217.24 521.184 217.24C519.12 217.24 517.312 215.736 517.312 213.128C517.312 210.712 519.056 209.064 520.992 209.064C523.36 209.064 524.688 210.696 524.688 213.096C524.688 213.288 524.672 213.48 524.656 213.576H518.864C518.896 214.952 519.888 215.912 521.184 215.912C522.432 215.912 523.056 215.224 523.344 214.36ZM527.504 213.128C527.504 214.712 528.32 215.88 529.76 215.88C531.136 215.88 531.984 214.68 531.984 213.096C531.984 211.512 531.152 210.424 529.776 210.424C528.4 210.424 527.504 211.544 527.504 213.128ZM532 215.96V215.832C531.632 216.568 530.816 217.208 529.616 217.208C527.36 217.208 525.968 215.416 525.968 213.128C525.968 210.952 527.44 209.096 529.616 209.096C530.976 209.096 531.712 209.768 531.968 210.392V205.416H533.456V215.576C533.456 216.312 533.52 216.872 533.536 217H532.08C532.048 216.824 532 216.424 532 215.96ZM24.56 239L25.92 238.52C26.016 239.32 26.624 239.96 27.712 239.96C28.56 239.96 29.024 239.48 29.024 238.936C29.024 238.456 28.672 238.088 28.032 237.944L26.72 237.656C25.52 237.4 24.8 236.584 24.8 235.496C24.8 234.184 26.032 233.064 27.536 233.064C29.648 233.064 30.304 234.44 30.464 235.128L29.136 235.624C29.072 235.224 28.752 234.344 27.536 234.344C26.768 234.344 26.256 234.84 26.256 235.368C26.256 235.832 26.544 236.168 27.136 236.296L28.384 236.568C29.776 236.872 30.512 237.72 30.512 238.856C30.512 239.944 29.6 241.24 27.696 241.24C25.584 241.24 24.688 239.88 24.56 239ZM39.4104 233.304L36.1304 236.552L39.4744 241H37.5864L35.0744 237.608L34.0024 238.68V241H32.5144V229.416H34.0024V236.712L37.3304 233.304H39.4104ZM42.4086 241H40.9206V233.304H42.4086V241ZM40.5846 230.392C40.5846 229.784 41.0646 229.304 41.6566 229.304C42.2646 229.304 42.7446 229.784 42.7446 230.392C42.7446 230.984 42.2646 231.464 41.6566 231.464C41.0646 231.464 40.5846 230.984 40.5846 230.392ZM46.4715 241H44.9675V229.416H46.4715V241ZM50.534 241H49.03V229.416H50.534V241ZM52.3725 239L53.7325 238.52C53.8285 239.32 54.4365 239.96 55.5245 239.96C56.3725 239.96 56.8365 239.48 56.8365 238.936C56.8365 238.456 56.4845 238.088 55.8445 237.944L54.5325 237.656C53.3325 237.4 52.6125 236.584 52.6125 235.496C52.6125 234.184 53.8445 233.064 55.3485 233.064C57.4605 233.064 58.1165 234.44 58.2765 235.128L56.9485 235.624C56.8845 235.224 56.5645 234.344 55.3485 234.344C54.5805 234.344 54.0685 234.84 54.0685 235.368C54.0685 235.832 54.3565 236.168 54.9485 236.296L56.1965 236.568C57.5885 236.872 58.3245 237.72 58.3245 238.856C58.3245 239.944 57.4125 241.24 55.5085 241.24C53.3965 241.24 52.5005 239.88 52.3725 239ZM60.1669 239.976C60.1669 239.4 60.6629 238.904 61.3349 238.904C62.0229 238.904 62.6309 239.416 62.6309 240.424C62.6309 242.536 61.2549 243.416 60.2629 243.544V242.712C61.0469 242.536 61.5749 241.752 61.5909 240.984C61.5429 241.016 61.4149 241.064 61.2389 241.064C60.6469 241.064 60.1669 240.664 60.1669 239.976ZM70.758 234.952H73.03C74.39 234.952 75.222 234.2 75.222 233.032C75.222 231.832 74.39 231.064 73.03 231.064H70.758V234.952ZM73.318 236.36H70.758V241H69.19V229.656H73.318C75.414 229.656 76.822 231.112 76.822 233.016C76.822 234.936 75.414 236.36 73.318 236.36ZM81.2323 239.896C82.5123 239.896 83.6323 238.936 83.6323 237.144C83.6323 235.368 82.5123 234.408 81.2323 234.408C79.9523 234.408 78.8323 235.368 78.8323 237.144C78.8323 238.936 79.9523 239.896 81.2323 239.896ZM81.2323 233.064C83.5363 233.064 85.1683 234.808 85.1683 237.144C85.1683 239.496 83.5363 241.24 81.2323 241.24C78.9283 241.24 77.2963 239.496 77.2963 237.144C77.2963 234.808 78.9283 233.064 81.2323 233.064ZM91.3645 233.224V234.824C91.1405 234.792 90.9165 234.776 90.7085 234.776C89.4445 234.776 88.5965 235.448 88.5965 237.144V241H87.0925V233.304H88.5645V234.648C89.1245 233.464 90.0845 233.176 90.8685 233.176C91.0765 233.176 91.2845 233.208 91.3645 233.224ZM95.3898 230.872V233.304H97.0538V234.664H95.3898V238.664C95.3898 239.368 95.6778 239.72 96.4618 239.72C96.6538 239.72 96.9258 239.688 97.0538 239.656V240.936C96.9258 240.984 96.5418 241.08 96.0298 241.08C94.7178 241.08 93.8858 240.28 93.8858 238.888V234.664H92.4138V233.304H92.8298C93.6618 233.304 94.0138 232.792 94.0138 232.12V230.872H95.3898ZM102.933 234.664H101.077V241H99.5253V234.664H98.1013V233.304H99.5253V232.008C99.5253 230.296 100.661 229.368 102.053 229.368C102.565 229.368 102.885 229.48 102.949 229.528V230.872C102.869 230.84 102.677 230.776 102.293 230.776C101.765 230.776 101.077 231.032 101.077 232.088V233.304H102.933V234.664ZM107.529 239.896C108.809 239.896 109.929 238.936 109.929 237.144C109.929 235.368 108.809 234.408 107.529 234.408C106.249 234.408 105.129 235.368 105.129 237.144C105.129 238.936 106.249 239.896 107.529 239.896ZM107.529 233.064C109.833 233.064 111.465 234.808 111.465 237.144C111.465 239.496 109.833 241.24 107.529 241.24C105.225 241.24 103.593 239.496 103.593 237.144C103.593 234.808 105.225 233.064 107.529 233.064ZM114.893 241H113.389V229.416H114.893V241ZM118.94 241H117.452V233.304H118.94V241ZM117.116 230.392C117.116 229.784 117.596 229.304 118.188 229.304C118.796 229.304 119.276 229.784 119.276 230.392C119.276 230.984 118.796 231.464 118.188 231.464C117.596 231.464 117.116 230.984 117.116 230.392ZM122.539 235.32C122.539 238.28 124.523 239.8 126.635 239.8C128.747 239.8 130.731 238.28 130.731 235.32C130.731 232.36 128.747 230.856 126.635 230.856C124.523 230.856 122.539 232.36 122.539 235.32ZM120.939 235.32C120.939 231.528 123.787 229.416 126.635 229.416C129.483 229.416 132.331 231.528 132.331 235.32C132.331 239.112 129.483 241.24 126.635 241.24C123.787 241.24 120.939 239.112 120.939 235.32ZM143.415 241H141.847V235.96H136.055V241H134.487V229.656H136.055V234.504H141.847V229.656H143.415V241ZM151.627 244.04H150.139V233.304H151.595V234.504C152.011 233.736 152.923 233.128 154.171 233.128C156.475 233.128 157.707 234.904 157.707 237.144C157.707 239.432 156.379 241.208 154.123 241.208C152.939 241.208 152.043 240.648 151.627 239.96V244.04ZM156.171 237.144C156.171 235.608 155.307 234.456 153.899 234.456C152.523 234.456 151.611 235.608 151.611 237.144C151.611 238.728 152.523 239.864 153.899 239.864C155.291 239.864 156.171 238.728 156.171 237.144ZM161.128 241H159.624V229.416H161.128V241ZM163.206 238.936C163.206 237.56 164.214 236.792 165.542 236.6L167.622 236.296C168.086 236.232 168.214 235.992 168.214 235.72C168.214 234.968 167.718 234.344 166.55 234.344C165.494 234.344 164.902 235 164.806 235.896L163.366 235.56C163.526 234.088 164.854 233.064 166.518 233.064C168.822 233.064 169.718 234.376 169.718 235.88V239.736C169.718 240.408 169.782 240.808 169.814 241H168.342C168.31 240.808 168.262 240.52 168.262 239.96C167.926 240.504 167.158 241.24 165.782 241.24C164.214 241.24 163.206 240.152 163.206 238.936ZM165.99 239.976C167.222 239.976 168.214 239.384 168.214 237.704V237.352L165.862 237.704C165.222 237.8 164.742 238.168 164.742 238.856C164.742 239.432 165.222 239.976 165.99 239.976ZM173.825 244.216H172.177L174.097 240.152L170.785 233.304H172.513L174.913 238.616L177.217 233.304H178.833L173.825 244.216ZM179.404 239L180.764 238.52C180.86 239.32 181.468 239.96 182.556 239.96C183.404 239.96 183.868 239.48 183.868 238.936C183.868 238.456 183.516 238.088 182.876 237.944L181.564 237.656C180.364 237.4 179.644 236.584 179.644 235.496C179.644 234.184 180.876 233.064 182.38 233.064C184.492 233.064 185.148 234.44 185.308 235.128L183.98 235.624C183.916 235.224 183.596 234.344 182.38 234.344C181.612 234.344 181.1 234.84 181.1 235.368C181.1 235.832 181.388 236.168 181.98 236.296L183.228 236.568C184.62 236.872 185.356 237.72 185.356 238.856C185.356 239.944 184.444 241.24 182.54 241.24C180.428 241.24 179.532 239.88 179.404 239ZM190.878 238.936C190.878 237.56 191.886 236.792 193.214 236.6L195.294 236.296C195.758 236.232 195.886 235.992 195.886 235.72C195.886 234.968 195.39 234.344 194.222 234.344C193.166 234.344 192.574 235 192.478 235.896L191.038 235.56C191.198 234.088 192.526 233.064 194.19 233.064C196.494 233.064 197.39 234.376 197.39 235.88V239.736C197.39 240.408 197.454 240.808 197.486 241H196.014C195.982 240.808 195.934 240.52 195.934 239.96C195.598 240.504 194.83 241.24 193.454 241.24C191.886 241.24 190.878 240.152 190.878 238.936ZM193.662 239.976C194.894 239.976 195.886 239.384 195.886 237.704V237.352L193.534 237.704C192.894 237.8 192.414 238.168 192.414 238.856C192.414 239.432 192.894 239.976 193.662 239.976ZM205.221 244.04H203.733V233.304H205.189V234.504C205.605 233.736 206.517 233.128 207.765 233.128C210.069 233.128 211.301 234.904 211.301 237.144C211.301 239.432 209.973 241.208 207.717 241.208C206.533 241.208 205.637 240.648 205.221 239.96V244.04ZM209.765 237.144C209.765 235.608 208.901 234.456 207.493 234.456C206.117 234.456 205.205 235.608 205.205 237.144C205.205 238.728 206.117 239.864 207.493 239.864C208.885 239.864 209.765 238.728 209.765 237.144ZM214.706 241H213.218V233.304H214.706V241ZM212.882 230.392C212.882 229.784 213.362 229.304 213.954 229.304C214.562 229.304 215.042 229.784 215.042 230.392C215.042 230.984 214.562 231.464 213.954 231.464C213.362 231.464 212.882 230.984 212.882 230.392ZM223.856 233.304L220.784 241H219.264L216.144 233.304H217.84L220.032 239.24L222.24 233.304H223.856ZM228.357 239.896C229.637 239.896 230.757 238.936 230.757 237.144C230.757 235.368 229.637 234.408 228.357 234.408C227.077 234.408 225.957 235.368 225.957 237.144C225.957 238.936 227.077 239.896 228.357 239.896ZM228.357 233.064C230.661 233.064 232.293 234.808 232.293 237.144C232.293 239.496 230.661 241.24 228.357 241.24C226.053 241.24 224.421 239.496 224.421 237.144C224.421 234.808 226.053 233.064 228.357 233.064ZM236.155 230.872V233.304H237.819V234.664H236.155V238.664C236.155 239.368 236.443 239.72 237.227 239.72C237.419 239.72 237.691 239.688 237.819 239.656V240.936C237.691 240.984 237.307 241.08 236.795 241.08C235.483 241.08 234.651 240.28 234.651 238.888V234.664H233.179V233.304H233.595C234.427 233.304 234.779 232.792 234.779 232.12V230.872H236.155ZM239.347 238.936C239.347 237.56 240.355 236.792 241.683 236.6L243.763 236.296C244.227 236.232 244.355 235.992 244.355 235.72C244.355 234.968 243.859 234.344 242.691 234.344C241.635 234.344 241.043 235 240.947 235.896L239.507 235.56C239.667 234.088 240.995 233.064 242.659 233.064C244.963 233.064 245.859 234.376 245.859 235.88V239.736C245.859 240.408 245.923 240.808 245.955 241H244.483C244.451 240.808 244.403 240.52 244.403 239.96C244.067 240.504 243.299 241.24 241.923 241.24C240.355 241.24 239.347 240.152 239.347 238.936ZM242.131 239.976C243.363 239.976 244.355 239.384 244.355 237.704V237.352L242.003 237.704C241.363 237.8 240.883 238.168 240.883 238.856C240.883 239.432 241.363 239.976 242.131 239.976ZM249.706 241H248.202V229.416H249.706V241ZM260.536 233.224V234.824C260.312 234.792 260.088 234.776 259.88 234.776C258.616 234.776 257.768 235.448 257.768 237.144V241H256.264V233.304H257.736V234.648C258.296 233.464 259.256 233.176 260.04 233.176C260.248 233.176 260.456 233.208 260.536 233.224ZM265.357 239.896C266.637 239.896 267.757 238.936 267.757 237.144C267.757 235.368 266.637 234.408 265.357 234.408C264.077 234.408 262.957 235.368 262.957 237.144C262.957 238.936 264.077 239.896 265.357 239.896ZM265.357 233.064C267.661 233.064 269.293 234.808 269.293 237.144C269.293 239.496 267.661 241.24 265.357 241.24C263.053 241.24 261.421 239.496 261.421 237.144C261.421 234.808 263.053 233.064 265.357 233.064ZM272.722 241H271.218V229.416H272.722V241ZM276.256 236.36H280.464C280.432 235.256 279.712 234.392 278.352 234.392C277.088 234.392 276.32 235.368 276.256 236.36ZM280.688 238.36L281.984 238.808C281.552 240.168 280.32 241.24 278.528 241.24C276.464 241.24 274.656 239.736 274.656 237.128C274.656 234.712 276.4 233.064 278.336 233.064C280.704 233.064 282.032 234.696 282.032 237.096C282.032 237.288 282.016 237.48 282 237.576H276.208C276.24 238.952 277.232 239.912 278.528 239.912C279.776 239.912 280.4 239.224 280.688 238.36ZM289.44 241H287.952V233.304H289.44V241ZM287.616 230.392C287.616 229.784 288.096 229.304 288.688 229.304C289.296 229.304 289.776 229.784 289.776 230.392C289.776 230.984 289.296 231.464 288.688 231.464C288.096 231.464 287.616 230.984 287.616 230.392ZM293.503 236.552V241H291.999V233.304H293.471V234.408C294.031 233.448 294.943 233.08 295.839 233.08C297.679 233.08 298.591 234.408 298.591 236.12V241H297.087V236.376C297.087 235.304 296.639 234.44 295.295 234.44C294.111 234.44 293.503 235.384 293.503 236.552ZM309.255 233.224V234.824C309.031 234.792 308.807 234.776 308.599 234.776C307.335 234.776 306.487 235.448 306.487 237.144V241H304.983V233.304H306.455V234.648C307.015 233.464 307.975 233.176 308.759 233.176C308.967 233.176 309.175 233.208 309.255 233.224ZM311.756 236.36H315.964C315.932 235.256 315.212 234.392 313.852 234.392C312.588 234.392 311.82 235.368 311.756 236.36ZM316.188 238.36L317.484 238.808C317.052 240.168 315.82 241.24 314.028 241.24C311.964 241.24 310.156 239.736 310.156 237.128C310.156 234.712 311.9 233.064 313.836 233.064C316.204 233.064 317.532 234.696 317.532 237.096C317.532 237.288 317.516 237.48 317.5 237.576H311.708C311.74 238.952 312.732 239.912 314.028 239.912C315.276 239.912 315.9 239.224 316.188 238.36ZM320.348 237.128C320.348 238.712 321.164 239.88 322.604 239.88C323.98 239.88 324.828 238.68 324.828 237.096C324.828 235.512 323.996 234.424 322.62 234.424C321.244 234.424 320.348 235.544 320.348 237.128ZM324.844 239.96V239.832C324.476 240.568 323.66 241.208 322.46 241.208C320.204 241.208 318.812 239.416 318.812 237.128C318.812 234.952 320.284 233.096 322.46 233.096C323.82 233.096 324.556 233.768 324.812 234.392V229.416H326.3V239.576C326.3 240.312 326.364 240.872 326.38 241H324.924C324.892 240.824 324.844 240.424 324.844 239.96ZM333.852 240.072C333.436 240.872 332.476 241.24 331.58 241.24C329.788 241.24 328.7 239.896 328.7 238.152V233.304H330.204V237.928C330.204 238.984 330.684 239.912 331.948 239.912C333.164 239.912 333.772 239.112 333.772 237.944V233.304H335.276V239.576C335.276 240.184 335.324 240.728 335.356 241H333.916C333.884 240.824 333.852 240.392 333.852 240.072ZM340.996 234.456C339.78 234.456 338.66 235.352 338.66 237.144C338.66 238.904 339.764 239.848 341.012 239.848C342.452 239.848 342.98 238.872 343.156 238.264L344.484 238.84C344.116 239.944 343.012 241.24 341.012 241.24C338.772 241.24 337.124 239.48 337.124 237.144C337.124 234.744 338.804 233.064 340.996 233.064C343.044 233.064 344.1 234.344 344.42 235.512L343.06 236.088C342.868 235.336 342.308 234.456 340.996 234.456ZM347.737 241H346.249V233.304H347.737V241ZM345.913 230.392C345.913 229.784 346.393 229.304 346.985 229.304C347.593 229.304 348.073 229.784 348.073 230.392C348.073 230.984 347.593 231.464 346.985 231.464C346.393 231.464 345.913 230.984 345.913 230.392ZM351.8 236.552V241H350.296V233.304H351.768V234.408C352.328 233.448 353.24 233.08 354.136 233.08C355.976 233.08 356.888 234.408 356.888 236.12V241H355.384V236.376C355.384 235.304 354.936 234.44 353.592 234.44C352.408 234.44 351.8 235.384 351.8 236.552ZM358.72 241.416L360.176 241.08C360.288 242.152 361.104 242.968 362.272 242.968C363.888 242.968 364.624 242.136 364.624 240.472V239.368C364.256 240.072 363.424 240.632 362.272 240.632C360.224 240.632 358.736 239.08 358.736 236.904C358.736 234.824 360.16 233.16 362.272 233.16C363.456 233.16 364.256 233.608 364.64 234.376V233.304H366.128V240.424C366.128 242.376 365.168 244.28 362.272 244.28C360.352 244.28 358.912 243.064 358.72 241.416ZM362.496 239.368C363.792 239.368 364.688 238.392 364.688 236.904C364.688 235.416 363.792 234.44 362.496 234.44C361.168 234.44 360.272 235.416 360.272 236.904C360.272 238.408 361.136 239.368 362.496 239.368ZM371.81 239L373.17 238.52C373.266 239.32 373.874 239.96 374.962 239.96C375.81 239.96 376.274 239.48 376.274 238.936C376.274 238.456 375.922 238.088 375.282 237.944L373.97 237.656C372.77 237.4 372.05 236.584 372.05 235.496C372.05 234.184 373.282 233.064 374.786 233.064C376.898 233.064 377.554 234.44 377.714 235.128L376.386 235.624C376.322 235.224 376.002 234.344 374.786 234.344C374.018 234.344 373.506 234.84 373.506 235.368C373.506 235.832 373.794 236.168 374.386 236.296L375.634 236.568C377.026 236.872 377.762 237.72 377.762 238.856C377.762 239.944 376.85 241.24 374.946 241.24C372.834 241.24 371.938 239.88 371.81 239ZM386.66 233.304L383.38 236.552L386.724 241H384.836L382.324 237.608L381.252 238.68V241H379.764V229.416H381.252V236.712L384.58 233.304H386.66ZM389.659 241H388.171V233.304H389.659V241ZM387.835 230.392C387.835 229.784 388.315 229.304 388.907 229.304C389.515 229.304 389.995 229.784 389.995 230.392C389.995 230.984 389.515 231.464 388.907 231.464C388.315 231.464 387.835 230.984 387.835 230.392ZM393.722 241H392.218V229.416H393.722V241ZM397.784 241H396.28V229.416H397.784V241ZM399.623 239L400.983 238.52C401.079 239.32 401.687 239.96 402.775 239.96C403.623 239.96 404.087 239.48 404.087 238.936C404.087 238.456 403.735 238.088 403.095 237.944L401.783 237.656C400.583 237.4 399.863 236.584 399.863 235.496C399.863 234.184 401.095 233.064 402.599 233.064C404.711 233.064 405.367 234.44 405.527 235.128L404.199 235.624C404.135 235.224 403.815 234.344 402.599 234.344C401.831 234.344 401.319 234.84 401.319 235.368C401.319 235.832 401.607 236.168 402.199 236.296L403.447 236.568C404.839 236.872 405.575 237.72 405.575 238.856C405.575 239.944 404.663 241.24 402.759 241.24C400.647 241.24 399.751 239.88 399.623 239ZM413.065 241H411.577V233.304H413.017V234.328C413.497 233.48 414.457 233.08 415.353 233.08C416.313 233.08 417.241 233.544 417.657 234.536C418.265 233.432 419.257 233.08 420.233 233.08C421.577 233.08 422.889 233.992 422.889 236.008V241H421.401V236.168C421.401 235.16 420.905 234.408 419.769 234.408C418.713 234.408 417.993 235.24 417.993 236.344V241H416.489V236.168C416.489 235.176 416.009 234.408 414.857 234.408C413.785 234.408 413.065 235.208 413.065 236.36V241ZM426.784 241H425.296V233.304H426.784V241ZM424.96 230.392C424.96 229.784 425.44 229.304 426.032 229.304C426.64 229.304 427.12 229.784 427.12 230.392C427.12 230.984 426.64 231.464 426.032 231.464C425.44 231.464 424.96 230.984 424.96 230.392ZM428.623 239L429.983 238.52C430.079 239.32 430.687 239.96 431.775 239.96C432.623 239.96 433.087 239.48 433.087 238.936C433.087 238.456 432.735 238.088 432.095 237.944L430.783 237.656C429.583 237.4 428.863 236.584 428.863 235.496C428.863 234.184 430.095 233.064 431.599 233.064C433.711 233.064 434.367 234.44 434.527 235.128L433.199 235.624C433.135 235.224 432.815 234.344 431.599 234.344C430.831 234.344 430.319 234.84 430.319 235.368C430.319 235.832 430.607 236.168 431.199 236.296L432.447 236.568C433.839 236.872 434.575 237.72 434.575 238.856C434.575 239.944 433.663 241.24 431.759 241.24C429.647 241.24 428.751 239.88 428.623 239ZM438.065 241H436.577V233.304H438.017V234.328C438.497 233.48 439.457 233.08 440.353 233.08C441.313 233.08 442.241 233.544 442.657 234.536C443.265 233.432 444.257 233.08 445.233 233.08C446.577 233.08 447.889 233.992 447.889 236.008V241H446.401V236.168C446.401 235.16 445.905 234.408 444.769 234.408C443.713 234.408 442.993 235.24 442.993 236.344V241H441.489V236.168C441.489 235.176 441.009 234.408 439.857 234.408C438.785 234.408 438.065 235.208 438.065 236.36V241ZM449.816 238.936C449.816 237.56 450.824 236.792 452.152 236.6L454.232 236.296C454.696 236.232 454.824 235.992 454.824 235.72C454.824 234.968 454.328 234.344 453.16 234.344C452.104 234.344 451.512 235 451.416 235.896L449.976 235.56C450.136 234.088 451.464 233.064 453.128 233.064C455.432 233.064 456.328 234.376 456.328 235.88V239.736C456.328 240.408 456.392 240.808 456.424 241H454.952C454.92 240.808 454.872 240.52 454.872 239.96C454.536 240.504 453.768 241.24 452.392 241.24C450.824 241.24 449.816 240.152 449.816 238.936ZM452.6 239.976C453.832 239.976 454.824 239.384 454.824 237.704V237.352L452.472 237.704C451.832 237.8 451.352 238.168 451.352 238.856C451.352 239.432 451.832 239.976 452.6 239.976ZM460.687 230.872V233.304H462.351V234.664H460.687V238.664C460.687 239.368 460.975 239.72 461.759 239.72C461.951 239.72 462.223 239.688 462.351 239.656V240.936C462.223 240.984 461.839 241.08 461.327 241.08C460.015 241.08 459.183 240.28 459.183 238.888V234.664H457.711V233.304H458.127C458.959 233.304 459.311 232.792 459.311 232.12V230.872H460.687ZM467.512 234.456C466.296 234.456 465.176 235.352 465.176 237.144C465.176 238.904 466.28 239.848 467.528 239.848C468.968 239.848 469.496 238.872 469.672 238.264L471 238.84C470.632 239.944 469.528 241.24 467.528 241.24C465.288 241.24 463.64 239.48 463.64 237.144C463.64 234.744 465.32 233.064 467.512 233.064C469.56 233.064 470.616 234.344 470.936 235.512L469.576 236.088C469.384 235.336 468.824 234.456 467.512 234.456ZM474.268 236.472V241H472.764V229.416H474.268V234.2C474.828 233.384 475.724 233.08 476.604 233.08C478.444 233.08 479.356 234.408 479.356 236.12V241H477.852V236.376C477.852 235.304 477.404 234.44 476.06 234.44C474.908 234.44 474.3 235.336 474.268 236.472ZM482.725 236.36H486.933C486.901 235.256 486.181 234.392 484.821 234.392C483.557 234.392 482.789 235.368 482.725 236.36ZM487.157 238.36L488.453 238.808C488.021 240.168 486.789 241.24 484.997 241.24C482.933 241.24 481.125 239.736 481.125 237.128C481.125 234.712 482.869 233.064 484.805 233.064C487.173 233.064 488.501 234.696 488.501 237.096C488.501 237.288 488.485 237.48 488.469 237.576H482.677C482.709 238.952 483.701 239.912 484.997 239.912C486.245 239.912 486.869 239.224 487.157 238.36ZM489.701 239L491.061 238.52C491.157 239.32 491.765 239.96 492.853 239.96C493.701 239.96 494.165 239.48 494.165 238.936C494.165 238.456 493.813 238.088 493.173 237.944L491.861 237.656C490.661 237.4 489.941 236.584 489.941 235.496C489.941 234.184 491.173 233.064 492.677 233.064C494.789 233.064 495.445 234.44 495.605 235.128L494.277 235.624C494.213 235.224 493.893 234.344 492.677 234.344C491.909 234.344 491.397 234.84 491.397 235.368C491.397 235.832 491.685 236.168 492.277 236.296L493.525 236.568C494.917 236.872 495.653 237.72 495.653 238.856C495.653 239.944 494.741 241.24 492.837 241.24C490.725 241.24 489.829 239.88 489.701 239ZM497.495 239.976C497.495 239.352 497.975 238.856 498.599 238.856C499.223 238.856 499.719 239.352 499.719 239.976C499.719 240.6 499.223 241.08 498.599 241.08C497.975 241.08 497.495 240.6 497.495 239.976Z" fill="white"/>
</svg>
