<svg width="589" height="271" viewBox="0 0 589 271" fill="none" xmlns="http://www.w3.org/2000/svg">
<rect width="589" height="271" rx="16" fill="#334E66"/>
<path d="M123.592 77.8407C128.438 77.8407 132.367 73.9146 132.367 69.0715C132.367 64.2284 128.438 60.3022 123.592 60.3022C118.745 60.3022 114.816 64.2284 114.816 69.0715C114.816 73.9146 118.745 77.8407 123.592 77.8407Z" fill="#F2F2F2"/>
<path d="M123.591 71.3795C124.866 71.3795 125.9 70.3464 125.9 69.0719C125.9 67.7973 124.866 66.7642 123.591 66.7642C122.315 66.7642 121.281 67.7973 121.281 69.0719C121.281 70.3464 122.315 71.3795 123.591 71.3795Z" fill="#E6E6E6"/>
<path d="M123.17 69.1204C124.143 69.9135 124.439 71.1633 124.258 72.3702C124.036 73.6939 123.349 74.8951 122.32 75.7581C121.163 76.7856 119.752 77.4798 118.391 78.1908C117.14 78.8287 115.938 79.558 114.794 80.3726C110.415 83.5528 107.107 88.081 105.214 93.1342C103.324 98.1788 102.817 103.905 104.253 109.133C104.964 111.719 106.401 114.51 109.079 115.484C111.214 116.26 114.128 115.76 115.215 113.561C116.383 111.2 114.754 108.545 112.656 107.373C109.936 105.853 106.687 106.963 104.24 108.502C101.547 110.195 99.3818 112.626 96.5699 114.144C95.3042 114.848 93.8957 115.259 92.4493 115.345C91.121 115.397 89.7951 115.192 88.5445 114.742C85.9498 113.797 83.7161 112.065 82.1567 109.787C80.3706 107.193 79.5712 104.012 79.4254 100.897C79.0992 93.9261 81.8547 87.4048 84.0655 80.9404C85.2538 77.5741 86.1439 74.1101 86.7256 70.5882C87.2789 67.0484 87.4758 63.4622 87.3134 59.8832C87.1671 56.7185 86.8547 53.4092 85.457 50.5188C84.2279 47.9773 81.9818 45.8972 79.1419 45.3727C77.8619 45.1217 76.5354 45.2739 75.3456 45.8085C74.9405 45.9932 75.2922 46.59 75.6953 46.4063C78.2084 45.2606 81.1788 46.3753 83.035 48.2252C85.2026 50.3853 85.9986 53.5753 86.3521 56.5187C87.1463 63.4944 86.5204 70.5586 84.512 77.2863C82.5845 83.8292 79.5526 90.0989 78.853 96.9538C78.5338 100.082 78.6978 103.315 79.6983 106.315C80.5566 108.987 82.1662 111.355 84.3349 113.138C86.3768 114.787 88.8887 115.911 91.5331 116.037C94.5016 116.177 97.1047 114.855 99.4077 113.095C101.874 111.211 104.144 108.886 107.132 107.83C108.494 107.348 110.045 107.124 111.444 107.587C112.644 107.997 113.661 108.815 114.319 109.898C114.927 110.907 115.151 112.169 114.596 113.253C114.075 114.273 113.058 114.862 111.957 115.064C110.791 115.27 109.589 115.066 108.557 114.487C107.35 113.798 106.468 112.643 105.849 111.422C104.616 108.988 104.201 106.09 104.139 103.387C104.084 100.748 104.422 98.1151 105.143 95.5752C106.577 90.4373 109.472 85.8257 113.477 82.2993C114.486 81.421 115.565 80.6269 116.704 79.9249C117.946 79.1597 119.272 78.5482 120.539 77.8262C121.785 77.1157 123.013 76.2668 123.872 75.0977C124.603 74.0957 124.998 72.8879 125 71.6475C125.013 71.0771 124.9 70.5108 124.668 69.9892C124.436 69.4677 124.092 69.0039 123.66 68.6309C123.317 68.3516 122.824 68.8385 123.17 69.1204Z" fill="#CCCCCC"/>
<path d="M41.2468 109.456C44.3152 111.438 47.8647 112.55 51.5162 112.673C51.451 112.827 51.3777 112.978 51.2968 113.125C50.8717 113.909 50.2711 114.585 49.5417 115.098C48.6781 115.706 47.6642 116.064 46.6105 116.135C45.5569 116.206 44.504 115.987 43.5667 115.5C42.6294 115.014 41.8437 114.28 41.2953 113.378C40.747 112.476 40.457 111.441 40.457 110.386V109.456H41.2468Z" fill="white"/>
<path d="M62.785 109.729V110.386C62.7855 111.667 62.359 112.911 61.573 113.922C60.787 114.933 59.6863 115.654 58.4447 115.97C57.2031 116.286 55.8914 116.18 54.7169 115.668C53.5424 115.157 52.5721 114.268 51.9591 113.144C51.8747 112.994 51.7983 112.839 51.7305 112.68C51.899 112.685 52.0654 112.687 52.2339 112.687C55.9566 112.691 59.608 111.667 62.785 109.729Z" fill="white"/>
<path d="M72 48C72 59.0457 63.2696 67.5 52.5 67.5C41.7304 67.5 32.5 59.0457 32.5 48C32.5 36.9543 41.7304 28 52.5 28C63.2696 28 72 36.9543 72 48Z" fill="white"/>
<path d="M73 92.5C73 103.822 63.8218 113 52.5 113C41.1782 113 31.5 103.822 31.5 92.5C31.5 81.1782 41.1782 72 52.5 72C63.8218 72 73 81.1782 73 92.5Z" fill="white"/>
<path d="M70.5535 40.1791C70.3803 40.1537 70.2047 40.1375 70.0293 40.126C72.0236 44.719 72.1618 49.905 70.4149 54.5975C70.5905 54.5767 70.7637 54.5491 70.9369 54.5167C72.6281 54.1893 74.1481 53.2727 75.2264 51.9302C76.3046 50.5877 76.8712 48.9064 76.8252 47.1856C76.7792 45.4647 76.1236 43.816 74.9751 42.533C73.8266 41.2499 72.2598 40.4158 70.5535 40.1791Z" fill="white"/>
<path d="M34.4391 40.126C34.2637 40.1375 34.0881 40.1537 33.9149 40.179C32.2087 40.4158 30.6418 41.2499 29.4933 42.533C28.3448 43.816 27.6892 45.4647 27.6432 47.1855C27.5972 48.9064 28.1638 50.5877 29.2421 51.9302C30.3203 53.2727 31.8404 54.1893 33.5315 54.5167C33.7047 54.5491 33.8779 54.5767 34.0535 54.5975C32.3066 49.905 32.4448 44.719 34.4391 40.126Z" fill="white"/>
<path d="M70.5548 40.1794C68.6524 35.6378 65.1285 31.9651 60.6678 29.8747C56.2072 27.7843 51.1281 27.4255 46.4175 28.868C41.7069 30.3105 37.7011 33.4513 35.1782 37.6803C32.6554 41.9093 31.7956 46.9244 32.766 51.7514C33.7364 56.5783 36.4677 60.8725 40.4292 63.7996C44.3908 66.7268 49.2997 68.0779 54.2023 67.5904C59.1049 67.1029 63.6511 64.8117 66.9578 61.1619C70.2645 57.5121 72.0955 52.7643 72.0951 47.8409C72.0942 45.2104 71.5706 42.6062 70.5548 40.1794ZM70.4163 54.5978C68.727 59.1357 65.3992 62.8773 61.0879 65.0862C56.7766 67.2952 51.794 67.8115 47.1208 66.5336C42.4477 65.2556 38.4224 62.276 35.8373 58.1811C33.2523 54.0862 32.2946 49.1727 33.1528 44.4076C34.0111 39.6425 36.623 35.3711 40.4747 32.4339C44.3263 29.4967 49.1386 28.1066 53.9643 28.5372C58.7901 28.9678 63.2798 31.1878 66.5499 34.7604C69.8199 38.3329 71.6333 42.9993 71.6332 47.8409C71.6325 50.1476 71.2204 52.4357 70.4163 54.5978Z" fill="#CCCCCC"/>
<path d="M62.3961 43.3408H42.0744C41.0026 43.3408 39.9747 43.7663 39.2168 44.5237C38.459 45.281 38.0332 46.3082 38.0332 47.3793C38.0332 48.4503 38.459 49.4775 39.2168 50.2349C39.9747 50.9923 41.0026 51.4177 42.0744 51.4177H62.3961C63.4679 51.4177 64.4958 50.9923 65.2537 50.2349C66.0115 49.4775 66.4373 48.4503 66.4373 47.3793C66.4373 46.3082 66.0115 45.281 65.2537 44.5237C64.4958 43.7663 63.4679 43.3408 62.3961 43.3408Z" fill="#D84441"/>
<path d="M52.2342 71.6104C46.8051 71.6128 41.5925 73.7382 37.7114 77.5319C33.8303 81.3255 31.5887 86.4863 31.4662 91.9102C31.3437 97.3342 33.35 102.591 37.0559 106.556C40.7619 110.52 45.8732 112.879 51.2966 113.126C51.5161 113.137 51.7377 113.144 51.9594 113.144C52.0518 113.149 52.1419 113.149 52.2342 113.149C57.7463 113.149 63.0327 110.961 66.9304 107.066C70.828 103.171 73.0177 97.8879 73.0177 92.3796C73.0177 86.8712 70.828 81.5885 66.9304 77.6935C63.0327 73.7985 57.7463 71.6104 52.2342 71.6104ZM62.7853 109.729C59.6083 111.668 55.9569 112.692 52.2342 112.687C52.0656 112.687 51.8993 112.685 51.7308 112.68C51.6592 112.68 51.5876 112.678 51.5161 112.673C46.6362 112.504 41.9802 110.585 38.3993 107.268C34.8183 103.951 32.5514 99.4567 32.013 94.607C31.4745 89.7572 32.7004 84.8758 35.4666 80.8549C38.2328 76.8339 42.3546 73.942 47.0786 72.7076C51.8026 71.4732 56.8134 71.9789 61.1951 74.1321C65.5769 76.2853 69.0369 79.9423 70.9429 84.4347C72.8488 88.9271 73.0734 93.9549 71.5756 98.5992C70.0778 103.243 66.9576 107.194 62.7853 109.729Z" fill="#CCCCCC"/>
<path d="M66.8211 87.2639H57.7379C57.105 87.2639 56.498 87.0127 56.0505 86.5655C55.603 86.1183 55.3516 85.5117 55.3516 84.8793C55.3516 84.2468 55.603 83.6403 56.0505 83.1931C56.498 82.7459 57.105 82.4946 57.7379 82.4946H66.8211C67.4539 82.4946 68.0609 82.7459 68.5084 83.1931C68.9559 83.6403 69.2073 84.2468 69.2073 84.8793C69.2073 85.5117 68.9559 86.1183 68.5084 86.5655C68.0609 87.0127 67.4539 87.2639 66.8211 87.2639Z" fill="#D84441"/>
<path d="M58.3439 86.0895C59.0128 86.0895 59.555 85.5476 59.555 84.8792C59.555 84.2108 59.0128 83.6689 58.3439 83.6689C57.675 83.6689 57.1328 84.2108 57.1328 84.8792C57.1328 85.5476 57.675 86.0895 58.3439 86.0895Z" fill="#E7544E"/>
<path d="M62.2794 86.0895C62.9483 86.0895 63.4905 85.5476 63.4905 84.8792C63.4905 84.2108 62.9483 83.6689 62.2794 83.6689C61.6106 83.6689 61.0684 84.2108 61.0684 84.8792C61.0684 85.5476 61.6106 86.0895 62.2794 86.0895Z" fill="#E7544E"/>
<path d="M66.2169 86.0895C66.8858 86.0895 67.428 85.5476 67.428 84.8792C67.428 84.2108 66.8858 83.6689 66.2169 83.6689C65.5481 83.6689 65.0059 84.2108 65.0059 84.8792C65.0059 85.5476 65.5481 86.0895 66.2169 86.0895Z" fill="white"/>
<path d="M35.24 160L34.06 156.76H28.3L27.12 160H24.2L29.64 145.82H32.84L38.24 160H35.24ZM31.18 148.88L29.22 154.24H33.14L31.18 148.88ZM42.6936 160H39.8936V145.82H42.6936V160ZM50.8488 155.24H45.0488V152.88H50.8488V155.24ZM55.9864 152.28H58.1664C59.5464 152.28 60.3864 151.48 60.3864 150.26C60.3864 149 59.5464 148.22 58.1664 148.22H55.9864V152.28ZM58.5064 154.66H55.9664V160H53.2064V145.82H58.5064C61.3064 145.82 63.1664 147.68 63.1664 150.24C63.1664 152.82 61.3064 154.66 58.5064 154.66ZM68.7703 157.88C70.0703 157.88 71.2703 156.94 71.2703 155.08C71.2703 153.22 70.0703 152.28 68.7703 152.28C67.4703 152.28 66.2703 153.22 66.2703 155.08C66.2703 156.92 67.4703 157.88 68.7703 157.88ZM68.7703 149.86C71.7103 149.86 73.9303 152.04 73.9303 155.08C73.9303 158.1 71.7103 160.3 68.7703 160.3C65.8303 160.3 63.6103 158.1 63.6103 155.08C63.6103 152.04 65.8303 149.86 68.7703 149.86ZM81.1961 150.16H83.9961L86.1161 156.5L87.9361 150.16H90.5761L87.4961 160H84.8361L82.5361 153.28L80.2761 160H77.5761L74.4361 150.16H77.2361L79.0561 156.48L81.1961 150.16ZM93.7633 153.96H98.1633C98.1233 152.98 97.4833 152.02 95.9633 152.02C94.5833 152.02 93.8233 153.06 93.7633 153.96ZM98.4233 156.52L100.643 157.18C100.143 158.88 98.5833 160.3 96.1633 160.3C93.4633 160.3 91.0833 158.36 91.0833 155.04C91.0833 151.9 93.4033 149.86 95.9233 149.86C98.9633 149.86 100.783 151.8 100.783 154.96C100.783 155.34 100.743 155.74 100.743 155.78H93.7033C93.7633 157.08 94.8633 158.02 96.1833 158.02C97.4233 158.02 98.1033 157.4 98.4233 156.52ZM108.718 150.12V152.8C108.418 152.74 108.158 152.72 107.918 152.72C106.558 152.72 105.378 153.38 105.378 155.5V160H102.718V150.16H105.298V151.62C105.898 150.32 107.258 150.08 108.098 150.08C108.318 150.08 108.518 150.1 108.718 150.12ZM112.271 153.96H116.671C116.631 152.98 115.991 152.02 114.471 152.02C113.091 152.02 112.331 153.06 112.271 153.96ZM116.931 156.52L119.151 157.18C118.651 158.88 117.091 160.3 114.671 160.3C111.971 160.3 109.591 158.36 109.591 155.04C109.591 151.9 111.911 149.86 114.431 149.86C117.471 149.86 119.291 151.8 119.291 154.96C119.291 155.34 119.251 155.74 119.251 155.78H112.211C112.271 157.08 113.371 158.02 114.691 158.02C115.931 158.02 116.611 157.4 116.931 156.52ZM130.606 145.52V158.22C130.606 158.88 130.646 159.6 130.686 160H128.146C128.106 159.8 128.046 159.32 128.046 158.86C127.606 159.64 126.606 160.24 125.286 160.24C122.486 160.24 120.486 158.04 120.486 155.06C120.486 152.18 122.426 149.92 125.206 149.92C126.906 149.92 127.706 150.62 127.986 151.14V145.52H130.606ZM123.166 155.06C123.166 156.82 124.206 157.86 125.606 157.86C126.966 157.86 128.026 156.82 128.026 155.04C128.026 153.28 126.966 152.3 125.606 152.3C124.246 152.3 123.166 153.3 123.166 155.06ZM147.853 149.2L145.373 149.96C145.233 149.18 144.593 147.96 142.793 147.96C141.453 147.96 140.573 148.82 140.573 149.76C140.573 150.54 141.073 151.16 142.113 151.36L144.093 151.74C146.673 152.24 148.053 153.92 148.053 155.92C148.053 158.1 146.233 160.3 142.933 160.3C139.173 160.3 137.513 157.88 137.293 155.86L139.853 155.18C139.973 156.58 140.953 157.84 142.953 157.84C144.433 157.84 145.253 157.1 145.253 156.1C145.253 155.28 144.633 154.64 143.533 154.42L141.553 154.02C139.293 153.56 137.833 152.1 137.833 149.96C137.833 147.44 140.093 145.52 142.773 145.52C146.213 145.52 147.533 147.6 147.853 149.2ZM159.466 150.16L155.526 154.3L159.546 160H156.286L153.686 156.24L152.586 157.4V160H149.926V145.52H152.586V153.82L155.986 150.16H159.466ZM163.598 160H160.938V150.16H163.598V160ZM160.618 146.94C160.618 146.02 161.358 145.28 162.258 145.28C163.178 145.28 163.898 146.02 163.898 146.94C163.898 147.82 163.178 148.56 162.258 148.56C161.358 148.56 160.618 147.82 160.618 146.94ZM168.945 160H166.285V145.52H168.945V160ZM174.293 160H171.633V145.52H174.293V160ZM176.141 157.26L178.421 156.76C178.481 157.54 179.061 158.26 180.221 158.26C181.101 158.26 181.521 157.8 181.521 157.28C181.521 156.84 181.221 156.48 180.461 156.32L179.161 156.02C177.261 155.6 176.401 154.46 176.401 153.08C176.401 151.32 177.961 149.86 180.081 149.86C182.881 149.86 183.821 151.64 183.941 152.7L181.721 153.2C181.641 152.62 181.221 151.88 180.101 151.88C179.401 151.88 178.841 152.3 178.841 152.86C178.841 153.34 179.201 153.64 179.741 153.74L181.141 154.04C183.081 154.44 184.061 155.62 184.061 157.06C184.061 158.66 182.821 160.3 180.241 160.3C177.281 160.3 176.261 158.38 176.141 157.26ZM200.641 160L199.461 156.76H193.701L192.521 160H189.601L195.041 145.82H198.241L203.641 160H200.641ZM196.581 148.88L194.621 154.24H198.541L196.581 148.88ZM204.255 157.26L206.535 156.76C206.595 157.54 207.175 158.26 208.335 158.26C209.215 158.26 209.635 157.8 209.635 157.28C209.635 156.84 209.335 156.48 208.575 156.32L207.275 156.02C205.375 155.6 204.515 154.46 204.515 153.08C204.515 151.32 206.075 149.86 208.195 149.86C210.995 149.86 211.935 151.64 212.055 152.7L209.835 153.2C209.755 152.62 209.335 151.88 208.215 151.88C207.515 151.88 206.955 152.3 206.955 152.86C206.955 153.34 207.315 153.64 207.855 153.74L209.255 154.04C211.195 154.44 212.175 155.62 212.175 157.06C212.175 158.66 210.935 160.3 208.355 160.3C205.395 160.3 204.375 158.38 204.255 157.26ZM213.314 157.26L215.594 156.76C215.654 157.54 216.234 158.26 217.394 158.26C218.274 158.26 218.694 157.8 218.694 157.28C218.694 156.84 218.394 156.48 217.634 156.32L216.334 156.02C214.434 155.6 213.574 154.46 213.574 153.08C213.574 151.32 215.134 149.86 217.254 149.86C220.054 149.86 220.994 151.64 221.114 152.7L218.894 153.2C218.814 152.62 218.394 151.88 217.274 151.88C216.574 151.88 216.014 152.3 216.014 152.86C216.014 153.34 216.374 153.64 216.914 153.74L218.314 154.04C220.254 154.44 221.234 155.62 221.234 157.06C221.234 158.66 219.994 160.3 217.414 160.3C214.454 160.3 213.434 158.38 213.314 157.26ZM225.113 153.96H229.513C229.473 152.98 228.833 152.02 227.313 152.02C225.933 152.02 225.173 153.06 225.113 153.96ZM229.773 156.52L231.993 157.18C231.493 158.88 229.933 160.3 227.513 160.3C224.813 160.3 222.433 158.36 222.433 155.04C222.433 151.9 224.753 149.86 227.273 149.86C230.313 149.86 232.133 151.8 232.133 154.96C232.133 155.34 232.093 155.74 232.093 155.78H225.053C225.113 157.08 226.213 158.02 227.533 158.02C228.773 158.02 229.453 157.4 229.773 156.52ZM233.228 157.26L235.508 156.76C235.568 157.54 236.148 158.26 237.308 158.26C238.188 158.26 238.608 157.8 238.608 157.28C238.608 156.84 238.308 156.48 237.548 156.32L236.248 156.02C234.348 155.6 233.488 154.46 233.488 153.08C233.488 151.32 235.048 149.86 237.168 149.86C239.968 149.86 240.908 151.64 241.028 152.7L238.808 153.2C238.728 152.62 238.308 151.88 237.188 151.88C236.488 151.88 235.928 152.3 235.928 152.86C235.928 153.34 236.288 153.64 236.828 153.74L238.228 154.04C240.168 154.44 241.148 155.62 241.148 157.06C241.148 158.66 239.908 160.3 237.328 160.3C234.368 160.3 233.348 158.38 233.228 157.26ZM242.287 157.26L244.567 156.76C244.627 157.54 245.207 158.26 246.367 158.26C247.247 158.26 247.667 157.8 247.667 157.28C247.667 156.84 247.367 156.48 246.607 156.32L245.307 156.02C243.407 155.6 242.547 154.46 242.547 153.08C242.547 151.32 244.107 149.86 246.227 149.86C249.027 149.86 249.967 151.64 250.087 152.7L247.867 153.2C247.787 152.62 247.367 151.88 246.247 151.88C245.547 151.88 244.987 152.3 244.987 152.86C244.987 153.34 245.347 153.64 245.887 153.74L247.287 154.04C249.227 154.44 250.207 155.62 250.207 157.06C250.207 158.66 248.967 160.3 246.387 160.3C243.427 160.3 242.407 158.38 242.287 157.26ZM254.845 160H252.185V150.16H254.725V151.36C255.265 150.4 256.525 149.88 257.605 149.88C258.945 149.88 260.025 150.46 260.525 151.52C261.305 150.32 262.345 149.88 263.645 149.88C265.465 149.88 267.205 150.98 267.205 153.62V160H264.625V154.16C264.625 153.1 264.105 152.3 262.885 152.3C261.745 152.3 261.065 153.18 261.065 154.24V160H258.425V154.16C258.425 153.1 257.885 152.3 256.685 152.3C255.525 152.3 254.845 153.16 254.845 154.24V160ZM271.68 153.96H276.08C276.04 152.98 275.4 152.02 273.88 152.02C272.5 152.02 271.74 153.06 271.68 153.96ZM276.34 156.52L278.56 157.18C278.06 158.88 276.5 160.3 274.08 160.3C271.38 160.3 269 158.36 269 155.04C269 151.9 271.32 149.86 273.84 149.86C276.88 149.86 278.7 151.8 278.7 154.96C278.7 155.34 278.66 155.74 278.66 155.78H271.62C271.68 157.08 272.78 158.02 274.1 158.02C275.34 158.02 276.02 157.4 276.34 156.52ZM283.295 154.34V160H280.635V150.16H283.215V151.38C283.815 150.36 284.995 149.9 286.055 149.9C288.495 149.9 289.615 151.64 289.615 153.8V160H286.955V154.26C286.955 153.16 286.415 152.3 285.135 152.3C283.975 152.3 283.295 153.2 283.295 154.34ZM295.435 147.22V150.16H297.415V152.52H295.435V156.64C295.435 157.5 295.835 157.78 296.595 157.78C296.915 157.78 297.275 157.74 297.415 157.7V159.9C297.175 160 296.695 160.14 295.915 160.14C293.995 160.14 292.795 159 292.795 157.1V152.52H291.015V150.16H291.515C292.555 150.16 293.035 149.48 293.035 148.6V147.22H295.435ZM313.977 149.2L311.497 149.96C311.357 149.18 310.717 147.96 308.917 147.96C307.577 147.96 306.697 148.82 306.697 149.76C306.697 150.54 307.197 151.16 308.237 151.36L310.217 151.74C312.797 152.24 314.177 153.92 314.177 155.92C314.177 158.1 312.357 160.3 309.057 160.3C305.297 160.3 303.637 157.88 303.417 155.86L305.977 155.18C306.097 156.58 307.077 157.84 309.077 157.84C310.557 157.84 311.377 157.1 311.377 156.1C311.377 155.28 310.757 154.64 309.657 154.42L307.677 154.02C305.417 153.56 303.957 152.1 303.957 149.96C303.957 147.44 306.217 145.52 308.897 145.52C312.337 145.52 313.657 147.6 313.977 149.2ZM319.098 163.88H316.278L318.598 158.76L314.418 150.16H317.398L320.018 155.92L322.438 150.16H325.278L319.098 163.88ZM325.753 157.26L328.033 156.76C328.093 157.54 328.673 158.26 329.833 158.26C330.713 158.26 331.133 157.8 331.133 157.28C331.133 156.84 330.833 156.48 330.073 156.32L328.773 156.02C326.873 155.6 326.013 154.46 326.013 153.08C326.013 151.32 327.573 149.86 329.693 149.86C332.493 149.86 333.433 151.64 333.553 152.7L331.333 153.2C331.253 152.62 330.833 151.88 329.713 151.88C329.013 151.88 328.453 152.3 328.453 152.86C328.453 153.34 328.813 153.64 329.353 153.74L330.753 154.04C332.693 154.44 333.673 155.62 333.673 157.06C333.673 158.66 332.433 160.3 329.853 160.3C326.893 160.3 325.873 158.38 325.753 157.26ZM338.932 147.22V150.16H340.912V152.52H338.932V156.64C338.932 157.5 339.332 157.78 340.092 157.78C340.412 157.78 340.772 157.74 340.912 157.7V159.9C340.672 160 340.192 160.14 339.412 160.14C337.492 160.14 336.292 159 336.292 157.1V152.52H334.512V150.16H335.012C336.052 150.16 336.532 149.48 336.532 148.6V147.22H338.932ZM344.853 153.96H349.253C349.213 152.98 348.573 152.02 347.053 152.02C345.673 152.02 344.913 153.06 344.853 153.96ZM349.513 156.52L351.733 157.18C351.233 158.88 349.673 160.3 347.253 160.3C344.553 160.3 342.173 158.36 342.173 155.04C342.173 151.9 344.493 149.86 347.013 149.86C350.053 149.86 351.873 151.8 351.873 154.96C351.873 155.34 351.833 155.74 351.833 155.78H344.793C344.853 157.08 345.953 158.02 347.273 158.02C348.513 158.02 349.193 157.4 349.513 156.52ZM356.468 160H353.808V150.16H356.348V151.36C356.888 150.4 358.148 149.88 359.228 149.88C360.568 149.88 361.648 150.46 362.148 151.52C362.928 150.32 363.968 149.88 365.268 149.88C367.088 149.88 368.828 150.98 368.828 153.62V160H366.248V154.16C366.248 153.1 365.728 152.3 364.508 152.3C363.368 152.3 362.688 153.18 362.688 154.24V160H360.048V154.16C360.048 153.1 359.508 152.3 358.308 152.3C357.148 152.3 356.468 153.16 356.468 154.24V160Z" fill="white"/>
<path opacity="0.8" d="M33.312 183.112H29.52V193H27.952V183.112H24.16V181.656H33.312V183.112ZM36.2528 188.472V193H34.7488V181.416H36.2528V186.2C36.8128 185.384 37.7088 185.08 38.5888 185.08C40.4288 185.08 41.3408 186.408 41.3408 188.12V193H39.8368V188.376C39.8368 187.304 39.3888 186.44 38.0448 186.44C36.8928 186.44 36.2848 187.336 36.2528 188.472ZM44.7091 188.36H48.9171C48.8851 187.256 48.1651 186.392 46.8051 186.392C45.5411 186.392 44.7731 187.368 44.7091 188.36ZM49.1411 190.36L50.4371 190.808C50.0051 192.168 48.7731 193.24 46.9811 193.24C44.9171 193.24 43.1091 191.736 43.1091 189.128C43.1091 186.712 44.8531 185.064 46.7891 185.064C49.1571 185.064 50.4851 186.696 50.4851 189.096C50.4851 189.288 50.4691 189.48 50.4531 189.576H44.6611C44.6931 190.952 45.6851 191.912 46.9811 191.912C48.2291 191.912 48.8531 191.224 49.1411 190.36ZM57.893 193H56.405V185.304H57.893V193ZM56.069 182.392C56.069 181.784 56.549 181.304 57.141 181.304C57.749 181.304 58.229 181.784 58.229 182.392C58.229 182.984 57.749 183.464 57.141 183.464C56.549 183.464 56.069 182.984 56.069 182.392ZM61.9559 188.552V193H60.4519V185.304H61.9239V186.408C62.4839 185.448 63.3959 185.08 64.2919 185.08C66.1319 185.08 67.0439 186.408 67.0439 188.12V193H65.5399V188.376C65.5399 187.304 65.0919 186.44 63.7479 186.44C62.5639 186.44 61.9559 187.384 61.9559 188.552ZM71.4523 182.872V185.304H73.1163V186.664H71.4523V190.664C71.4523 191.368 71.7403 191.72 72.5243 191.72C72.7163 191.72 72.9883 191.688 73.1163 191.656V192.936C72.9883 192.984 72.6043 193.08 72.0923 193.08C70.7803 193.08 69.9483 192.28 69.9483 190.888V186.664H68.4763V185.304H68.8923C69.7243 185.304 70.0763 184.792 70.0763 184.12V182.872H71.4523ZM76.0216 188.36H80.2296C80.1976 187.256 79.4776 186.392 78.1176 186.392C76.8536 186.392 76.0856 187.368 76.0216 188.36ZM80.4536 190.36L81.7496 190.808C81.3176 192.168 80.0856 193.24 78.2936 193.24C76.2296 193.24 74.4216 191.736 74.4216 189.128C74.4216 186.712 76.1656 185.064 78.1016 185.064C80.4696 185.064 81.7976 186.696 81.7976 189.096C81.7976 189.288 81.7816 189.48 81.7656 189.576H75.9736C76.0056 190.952 76.9976 191.912 78.2936 191.912C79.5416 191.912 80.1656 191.224 80.4536 190.36ZM83.1575 193.416L84.6135 193.08C84.7255 194.152 85.5415 194.968 86.7095 194.968C88.3255 194.968 89.0615 194.136 89.0615 192.472V191.368C88.6935 192.072 87.8615 192.632 86.7095 192.632C84.6615 192.632 83.1735 191.08 83.1735 188.904C83.1735 186.824 84.5975 185.16 86.7095 185.16C87.8935 185.16 88.6935 185.608 89.0775 186.376V185.304H90.5655V192.424C90.5655 194.376 89.6055 196.28 86.7095 196.28C84.7895 196.28 83.3495 195.064 83.1575 193.416ZM86.9335 191.368C88.2295 191.368 89.1255 190.392 89.1255 188.904C89.1255 187.416 88.2295 186.44 86.9335 186.44C85.6055 186.44 84.7095 187.416 84.7095 188.904C84.7095 190.408 85.5735 191.368 86.9335 191.368ZM97.2395 185.224V186.824C97.0155 186.792 96.7915 186.776 96.5835 186.776C95.3195 186.776 94.4715 187.448 94.4715 189.144V193H92.9675V185.304H94.4395V186.648C94.9995 185.464 95.9595 185.176 96.7435 185.176C96.9515 185.176 97.1595 185.208 97.2395 185.224ZM98.3625 190.936C98.3625 189.56 99.3705 188.792 100.699 188.6L102.779 188.296C103.243 188.232 103.371 187.992 103.371 187.72C103.371 186.968 102.875 186.344 101.707 186.344C100.651 186.344 100.059 187 99.9625 187.896L98.5225 187.56C98.6825 186.088 100.011 185.064 101.674 185.064C103.979 185.064 104.875 186.376 104.875 187.88V191.736C104.875 192.408 104.939 192.808 104.971 193H103.499C103.467 192.808 103.419 192.52 103.419 191.96C103.083 192.504 102.315 193.24 100.939 193.24C99.3705 193.24 98.3625 192.152 98.3625 190.936ZM101.147 191.976C102.379 191.976 103.371 191.384 103.371 189.704V189.352L101.019 189.704C100.379 189.8 99.8985 190.168 99.8985 190.856C99.8985 191.432 100.379 191.976 101.147 191.976ZM109.234 182.872V185.304H110.898V186.664H109.234V190.664C109.234 191.368 109.522 191.72 110.306 191.72C110.498 191.72 110.77 191.688 110.898 191.656V192.936C110.77 192.984 110.386 193.08 109.874 193.08C108.562 193.08 107.73 192.28 107.73 190.888V186.664H106.258V185.304H106.674C107.506 185.304 107.858 184.792 107.858 184.12V182.872H109.234ZM113.803 188.36H118.011C117.979 187.256 117.259 186.392 115.899 186.392C114.635 186.392 113.867 187.368 113.803 188.36ZM118.235 190.36L119.531 190.808C119.099 192.168 117.867 193.24 116.075 193.24C114.011 193.24 112.203 191.736 112.203 189.128C112.203 186.712 113.947 185.064 115.883 185.064C118.251 185.064 119.579 186.696 119.579 189.096C119.579 189.288 119.563 189.48 119.547 189.576H113.755C113.787 190.952 114.779 191.912 116.075 191.912C117.323 191.912 117.947 191.224 118.235 190.36ZM122.395 189.128C122.395 190.712 123.211 191.88 124.651 191.88C126.027 191.88 126.875 190.68 126.875 189.096C126.875 187.512 126.043 186.424 124.667 186.424C123.291 186.424 122.395 187.544 122.395 189.128ZM126.891 191.96V191.832C126.523 192.568 125.707 193.208 124.507 193.208C122.251 193.208 120.859 191.416 120.859 189.128C120.859 186.952 122.331 185.096 124.507 185.096C125.867 185.096 126.603 185.768 126.859 186.392V181.416H128.347V191.576C128.347 192.312 128.411 192.872 128.427 193H126.971C126.939 192.824 126.891 192.424 126.891 191.96ZM142.921 193L141.689 189.832H136.665L135.465 193H133.785L138.297 181.656H140.105L144.617 193H142.921ZM139.161 183.288L137.225 188.376H141.129L139.161 183.288ZM150.255 185.224V186.824C150.031 186.792 149.807 186.776 149.599 186.776C148.335 186.776 147.487 187.448 147.487 189.144V193H145.983V185.304H147.455V186.648C148.015 185.464 148.975 185.176 149.759 185.176C149.967 185.176 150.175 185.208 150.255 185.224ZM154.28 182.872V185.304H155.944V186.664H154.28V190.664C154.28 191.368 154.568 191.72 155.352 191.72C155.544 191.72 155.816 191.688 155.944 191.656V192.936C155.816 192.984 155.432 193.08 154.92 193.08C153.608 193.08 152.776 192.28 152.776 190.888V186.664H151.304V185.304H151.72C152.552 185.304 152.904 184.792 152.904 184.12V182.872H154.28ZM159.44 193H157.952V185.304H159.44V193ZM157.616 182.392C157.616 181.784 158.096 181.304 158.688 181.304C159.296 181.304 159.776 181.784 159.776 182.392C159.776 182.984 159.296 183.464 158.688 183.464C158.096 183.464 157.616 182.984 157.616 182.392ZM164.991 181.368C165.503 181.368 165.823 181.48 165.887 181.528V182.872C165.807 182.84 165.615 182.776 165.231 182.776C164.703 182.776 164.015 183.016 164.015 184.072V185.304H169.103V193H167.615V186.664H164.015V193H162.463V186.664H161.039V185.304H162.463V184.008C162.463 182.296 163.599 181.368 164.991 181.368ZM167.279 182.36C167.279 181.752 167.759 181.272 168.351 181.272C168.959 181.272 169.439 181.752 169.439 182.36C169.439 182.952 168.959 183.432 168.351 183.432C167.759 183.432 167.279 182.952 167.279 182.36ZM174.887 186.456C173.671 186.456 172.551 187.352 172.551 189.144C172.551 190.904 173.655 191.848 174.903 191.848C176.343 191.848 176.871 190.872 177.047 190.264L178.375 190.84C178.007 191.944 176.903 193.24 174.903 193.24C172.663 193.24 171.015 191.48 171.015 189.144C171.015 186.744 172.695 185.064 174.887 185.064C176.935 185.064 177.991 186.344 178.311 187.512L176.951 188.088C176.759 187.336 176.199 186.456 174.887 186.456ZM181.627 193H180.139V185.304H181.627V193ZM179.803 182.392C179.803 181.784 180.283 181.304 180.875 181.304C181.483 181.304 181.963 181.784 181.963 182.392C181.963 182.984 181.483 183.464 180.875 183.464C180.283 183.464 179.803 182.984 179.803 182.392ZM183.706 190.936C183.706 189.56 184.714 188.792 186.042 188.6L188.122 188.296C188.586 188.232 188.714 187.992 188.714 187.72C188.714 186.968 188.218 186.344 187.05 186.344C185.994 186.344 185.402 187 185.306 187.896L183.866 187.56C184.026 186.088 185.354 185.064 187.018 185.064C189.322 185.064 190.218 186.376 190.218 187.88V191.736C190.218 192.408 190.282 192.808 190.314 193H188.842C188.81 192.808 188.762 192.52 188.762 191.96C188.426 192.504 187.658 193.24 186.282 193.24C184.714 193.24 183.706 192.152 183.706 190.936ZM186.49 191.976C187.722 191.976 188.714 191.384 188.714 189.704V189.352L186.362 189.704C185.722 189.8 185.242 190.168 185.242 190.856C185.242 191.432 185.722 191.976 186.49 191.976ZM194.065 193H192.561V181.416H194.065V193ZM202.384 193H200.784V181.656H202.384V193ZM206.612 188.552V193H205.108V185.304H206.58V186.408C207.14 185.448 208.052 185.08 208.948 185.08C210.788 185.08 211.7 186.408 211.7 188.12V193H210.196V188.376C210.196 187.304 209.748 186.44 208.404 186.44C207.22 186.44 206.612 187.384 206.612 188.552ZM216.109 182.872V185.304H217.773V186.664H216.109V190.664C216.109 191.368 216.397 191.72 217.181 191.72C217.373 191.72 217.645 191.688 217.773 191.656V192.936C217.645 192.984 217.261 193.08 216.749 193.08C215.437 193.08 214.605 192.28 214.605 190.888V186.664H213.133V185.304H213.549C214.381 185.304 214.733 184.792 214.733 184.12V182.872H216.109ZM220.678 188.36H224.886C224.854 187.256 224.134 186.392 222.774 186.392C221.51 186.392 220.742 187.368 220.678 188.36ZM225.11 190.36L226.406 190.808C225.974 192.168 224.742 193.24 222.95 193.24C220.886 193.24 219.078 191.736 219.078 189.128C219.078 186.712 220.822 185.064 222.758 185.064C225.126 185.064 226.454 186.696 226.454 189.096C226.454 189.288 226.438 189.48 226.422 189.576H220.63C220.662 190.952 221.654 191.912 222.95 191.912C224.198 191.912 224.822 191.224 225.11 190.36ZM229.878 193H228.374V181.416H229.878V193ZM233.94 193H232.436V181.416H233.94V193ZM237.987 193H236.499V185.304H237.987V193ZM236.163 182.392C236.163 181.784 236.643 181.304 237.235 181.304C237.843 181.304 238.323 181.784 238.323 182.392C238.323 182.984 237.843 183.464 237.235 183.464C236.643 183.464 236.163 182.984 236.163 182.392ZM239.986 193.416L241.442 193.08C241.554 194.152 242.37 194.968 243.538 194.968C245.154 194.968 245.89 194.136 245.89 192.472V191.368C245.522 192.072 244.69 192.632 243.538 192.632C241.49 192.632 240.002 191.08 240.002 188.904C240.002 186.824 241.426 185.16 243.538 185.16C244.722 185.16 245.522 185.608 245.906 186.376V185.304H247.394V192.424C247.394 194.376 246.434 196.28 243.538 196.28C241.618 196.28 240.178 195.064 239.986 193.416ZM243.762 191.368C245.058 191.368 245.954 190.392 245.954 188.904C245.954 187.416 245.058 186.44 243.762 186.44C242.434 186.44 241.538 187.416 241.538 188.904C241.538 190.408 242.402 191.368 243.762 191.368ZM250.772 188.36H254.98C254.948 187.256 254.228 186.392 252.868 186.392C251.604 186.392 250.836 187.368 250.772 188.36ZM255.204 190.36L256.5 190.808C256.068 192.168 254.836 193.24 253.044 193.24C250.98 193.24 249.172 191.736 249.172 189.128C249.172 186.712 250.916 185.064 252.852 185.064C255.22 185.064 256.548 186.696 256.548 189.096C256.548 189.288 256.532 189.48 256.516 189.576H250.724C250.756 190.952 251.748 191.912 253.044 191.912C254.292 191.912 254.916 191.224 255.204 190.36ZM259.972 188.552V193H258.468V185.304H259.94V186.408C260.5 185.448 261.411 185.08 262.308 185.08C264.148 185.08 265.06 186.408 265.06 188.12V193H263.556V188.376C263.556 187.304 263.108 186.44 261.764 186.44C260.58 186.44 259.972 187.384 259.972 188.552ZM270.684 186.456C269.468 186.456 268.348 187.352 268.348 189.144C268.348 190.904 269.452 191.848 270.7 191.848C272.14 191.848 272.668 190.872 272.844 190.264L274.172 190.84C273.804 191.944 272.7 193.24 270.7 193.24C268.46 193.24 266.812 191.48 266.812 189.144C266.812 186.744 268.492 185.064 270.684 185.064C272.732 185.064 273.788 186.344 274.108 187.512L272.748 188.088C272.556 187.336 271.996 186.456 270.684 186.456ZM276.834 188.36H281.042C281.01 187.256 280.29 186.392 278.93 186.392C277.666 186.392 276.898 187.368 276.834 188.36ZM281.266 190.36L282.562 190.808C282.13 192.168 280.898 193.24 279.106 193.24C277.042 193.24 275.234 191.736 275.234 189.128C275.234 186.712 276.978 185.064 278.914 185.064C281.282 185.064 282.61 186.696 282.61 189.096C282.61 189.288 282.594 189.48 282.578 189.576H276.786C276.818 190.952 277.81 191.912 279.106 191.912C280.354 191.912 280.978 191.224 281.266 190.36ZM289.506 188.36H293.714C293.682 187.256 292.962 186.392 291.602 186.392C290.338 186.392 289.57 187.368 289.506 188.36ZM293.938 190.36L295.234 190.808C294.802 192.168 293.57 193.24 291.778 193.24C289.714 193.24 287.906 191.736 287.906 189.128C287.906 186.712 289.65 185.064 291.586 185.064C293.954 185.064 295.282 186.696 295.282 189.096C295.282 189.288 295.266 189.48 295.25 189.576H289.458C289.49 190.952 290.482 191.912 291.778 191.912C293.026 191.912 293.65 191.224 293.938 190.36ZM298.706 188.552V193H297.202V185.304H298.674V186.408C299.234 185.448 300.146 185.08 301.042 185.08C302.882 185.08 303.794 186.408 303.794 188.12V193H302.29V188.376C302.29 187.304 301.842 186.44 300.498 186.44C299.314 186.44 298.706 187.384 298.706 188.552ZM305.626 193.416L307.082 193.08C307.194 194.152 308.01 194.968 309.178 194.968C310.794 194.968 311.53 194.136 311.53 192.472V191.368C311.162 192.072 310.33 192.632 309.178 192.632C307.13 192.632 305.642 191.08 305.642 188.904C305.642 186.824 307.066 185.16 309.178 185.16C310.362 185.16 311.162 185.608 311.546 186.376V185.304H313.034V192.424C313.034 194.376 312.074 196.28 309.178 196.28C307.258 196.28 305.818 195.064 305.626 193.416ZM309.402 191.368C310.698 191.368 311.594 190.392 311.594 188.904C311.594 187.416 310.698 186.44 309.402 186.44C308.074 186.44 307.178 187.416 307.178 188.904C307.178 190.408 308.042 191.368 309.402 191.368ZM316.924 193H315.436V185.304H316.924V193ZM315.1 182.392C315.1 181.784 315.58 181.304 316.172 181.304C316.78 181.304 317.26 181.784 317.26 182.392C317.26 182.984 316.78 183.464 316.172 183.464C315.58 183.464 315.1 182.984 315.1 182.392ZM320.987 188.552V193H319.483V185.304H320.955V186.408C321.515 185.448 322.427 185.08 323.323 185.08C325.163 185.08 326.075 186.408 326.075 188.12V193H324.571V188.376C324.571 187.304 324.123 186.44 322.779 186.44C321.595 186.44 320.987 187.384 320.987 188.552ZM329.444 188.36H333.652C333.62 187.256 332.9 186.392 331.54 186.392C330.276 186.392 329.508 187.368 329.444 188.36ZM333.876 190.36L335.172 190.808C334.74 192.168 333.508 193.24 331.716 193.24C329.652 193.24 327.844 191.736 327.844 189.128C327.844 186.712 329.588 185.064 331.524 185.064C333.892 185.064 335.22 186.696 335.22 189.096C335.22 189.288 335.204 189.48 335.188 189.576H329.396C329.428 190.952 330.42 191.912 331.716 191.912C332.964 191.912 333.588 191.224 333.876 190.36ZM340.419 191L341.779 190.52C341.875 191.32 342.483 191.96 343.571 191.96C344.419 191.96 344.883 191.48 344.883 190.936C344.883 190.456 344.531 190.088 343.891 189.944L342.579 189.656C341.379 189.4 340.659 188.584 340.659 187.496C340.659 186.184 341.891 185.064 343.395 185.064C345.507 185.064 346.163 186.44 346.323 187.128L344.995 187.624C344.931 187.224 344.611 186.344 343.395 186.344C342.627 186.344 342.115 186.84 342.115 187.368C342.115 187.832 342.403 188.168 342.995 188.296L344.243 188.568C345.635 188.872 346.371 189.72 346.371 190.856C346.371 191.944 345.459 193.24 343.555 193.24C341.443 193.24 340.547 191.88 340.419 191ZM352.632 185.304H354.184L356.184 191.096L357.88 185.304H359.464L356.968 193H355.416L353.368 187.144L351.368 193H349.784L347.256 185.304H348.904L350.632 191.096L352.632 185.304ZM362.471 193H360.983V185.304H362.471V193ZM360.647 182.392C360.647 181.784 361.127 181.304 361.719 181.304C362.327 181.304 362.807 181.784 362.807 182.392C362.807 182.984 362.327 183.464 361.719 183.464C361.127 183.464 360.647 182.984 360.647 182.392ZM368.902 186.664H367.046V193H365.494V186.664H364.07V185.304H365.494V184.008C365.494 182.296 366.63 181.368 368.022 181.368C368.534 181.368 368.854 181.48 368.918 181.528V182.872C368.838 182.84 368.646 182.776 368.262 182.776C367.734 182.776 367.046 183.032 367.046 184.088V185.304H368.902V186.664ZM372.53 182.872V185.304H374.194V186.664H372.53V190.664C372.53 191.368 372.818 191.72 373.602 191.72C373.794 191.72 374.066 191.688 374.194 191.656V192.936C374.066 192.984 373.682 193.08 373.17 193.08C371.858 193.08 371.026 192.28 371.026 190.888V186.664H369.554V185.304H369.97C370.802 185.304 371.154 184.792 371.154 184.12V182.872H372.53ZM377.706 193H376.202V181.416H377.706V193ZM382.184 196.216H380.536L382.456 192.152L379.144 185.304H380.872L383.272 190.616L385.576 185.304H387.192L382.184 196.216ZM393.535 189.128C393.535 190.712 394.351 191.88 395.791 191.88C397.167 191.88 398.015 190.68 398.015 189.096C398.015 187.512 397.183 186.424 395.807 186.424C394.431 186.424 393.535 187.544 393.535 189.128ZM398.031 191.96V191.832C397.663 192.568 396.847 193.208 395.647 193.208C393.391 193.208 391.999 191.416 391.999 189.128C391.999 186.952 393.471 185.096 395.647 185.096C397.007 185.096 397.743 185.768 397.999 186.392V181.416H399.487V191.576C399.487 192.312 399.551 192.872 399.567 193H398.111C398.079 192.824 398.031 192.424 398.031 191.96ZM403.022 188.36H407.23C407.198 187.256 406.478 186.392 405.118 186.392C403.854 186.392 403.086 187.368 403.022 188.36ZM407.454 190.36L408.75 190.808C408.318 192.168 407.086 193.24 405.294 193.24C403.23 193.24 401.422 191.736 401.422 189.128C401.422 186.712 403.166 185.064 405.102 185.064C407.47 185.064 408.798 186.696 408.798 189.096C408.798 189.288 408.782 189.48 408.766 189.576H402.974C403.006 190.952 403.998 191.912 405.294 191.912C406.542 191.912 407.166 191.224 407.454 190.36ZM412.222 193H410.718V181.416H412.222V193ZM416.268 193H414.78V185.304H416.268V193ZM414.444 182.392C414.444 181.784 414.924 181.304 415.516 181.304C416.124 181.304 416.604 181.784 416.604 182.392C416.604 182.984 416.124 183.464 415.516 183.464C414.924 183.464 414.444 182.984 414.444 182.392ZM425.419 185.304L422.347 193H420.827L417.707 185.304H419.403L421.595 191.24L423.803 185.304H425.419ZM427.6 188.36H431.808C431.776 187.256 431.056 186.392 429.696 186.392C428.432 186.392 427.664 187.368 427.6 188.36ZM432.032 190.36L433.328 190.808C432.896 192.168 431.664 193.24 429.872 193.24C427.808 193.24 426 191.736 426 189.128C426 186.712 427.744 185.064 429.68 185.064C432.048 185.064 433.376 186.696 433.376 189.096C433.376 189.288 433.36 189.48 433.344 189.576H427.552C427.584 190.952 428.576 191.912 429.872 191.912C431.12 191.912 431.744 191.224 432.032 190.36ZM439.568 185.224V186.824C439.344 186.792 439.12 186.776 438.912 186.776C437.648 186.776 436.8 187.448 436.8 189.144V193H435.296V185.304H436.768V186.648C437.328 185.464 438.288 185.176 439.072 185.176C439.28 185.176 439.488 185.208 439.568 185.224ZM440.451 191L441.811 190.52C441.907 191.32 442.515 191.96 443.603 191.96C444.451 191.96 444.915 191.48 444.915 190.936C444.915 190.456 444.563 190.088 443.923 189.944L442.611 189.656C441.411 189.4 440.691 188.584 440.691 187.496C440.691 186.184 441.923 185.064 443.427 185.064C445.539 185.064 446.195 186.44 446.355 187.128L445.027 187.624C444.963 187.224 444.643 186.344 443.427 186.344C442.659 186.344 442.147 186.84 442.147 187.368C442.147 187.832 442.435 188.168 443.027 188.296L444.275 188.568C445.667 188.872 446.403 189.72 446.403 190.856C446.403 191.944 445.491 193.24 443.587 193.24C441.475 193.24 440.579 191.88 440.451 191ZM453.893 196.04H452.405V185.304H453.861V186.504C454.277 185.736 455.189 185.128 456.437 185.128C458.741 185.128 459.973 186.904 459.973 189.144C459.973 191.432 458.645 193.208 456.389 193.208C455.205 193.208 454.309 192.648 453.893 191.96V196.04ZM458.437 189.144C458.437 187.608 457.573 186.456 456.165 186.456C454.789 186.456 453.877 187.608 453.877 189.144C453.877 190.728 454.789 191.864 456.165 191.864C457.557 191.864 458.437 190.728 458.437 189.144ZM466.161 185.224V186.824C465.937 186.792 465.713 186.776 465.505 186.776C464.241 186.776 463.393 187.448 463.393 189.144V193H461.889V185.304H463.361V186.648C463.921 185.464 464.881 185.176 465.665 185.176C465.873 185.176 466.081 185.208 466.161 185.224ZM468.662 188.36H472.87C472.838 187.256 472.118 186.392 470.758 186.392C469.494 186.392 468.726 187.368 468.662 188.36ZM473.094 190.36L474.39 190.808C473.958 192.168 472.726 193.24 470.934 193.24C468.87 193.24 467.062 191.736 467.062 189.128C467.062 186.712 468.806 185.064 470.742 185.064C473.11 185.064 474.438 186.696 474.438 189.096C474.438 189.288 474.422 189.48 474.406 189.576H468.614C468.646 190.952 469.638 191.912 470.934 191.912C472.182 191.912 472.806 191.224 473.094 190.36ZM479.59 186.456C478.374 186.456 477.254 187.352 477.254 189.144C477.254 190.904 478.358 191.848 479.606 191.848C481.046 191.848 481.574 190.872 481.75 190.264L483.078 190.84C482.71 191.944 481.606 193.24 479.606 193.24C477.366 193.24 475.718 191.48 475.718 189.144C475.718 186.744 477.398 185.064 479.59 185.064C481.638 185.064 482.694 186.344 483.014 187.512L481.654 188.088C481.462 187.336 480.902 186.456 479.59 186.456ZM486.331 193H484.843V185.304H486.331V193ZM484.507 182.392C484.507 181.784 484.987 181.304 485.579 181.304C486.187 181.304 486.667 181.784 486.667 182.392C486.667 182.984 486.187 183.464 485.579 183.464C484.987 183.464 484.507 182.984 484.507 182.392ZM488.169 191L489.529 190.52C489.625 191.32 490.233 191.96 491.321 191.96C492.169 191.96 492.633 191.48 492.633 190.936C492.633 190.456 492.281 190.088 491.641 189.944L490.329 189.656C489.129 189.4 488.409 188.584 488.409 187.496C488.409 186.184 489.641 185.064 491.145 185.064C493.257 185.064 493.913 186.44 494.073 187.128L492.745 187.624C492.681 187.224 492.361 186.344 491.145 186.344C490.377 186.344 489.865 186.84 489.865 187.368C489.865 187.832 490.153 188.168 490.745 188.296L491.993 188.568C493.385 188.872 494.121 189.72 494.121 190.856C494.121 191.944 493.209 193.24 491.305 193.24C489.193 193.24 488.297 191.88 488.169 191ZM497.022 188.36H501.23C501.198 187.256 500.478 186.392 499.118 186.392C497.854 186.392 497.086 187.368 497.022 188.36ZM501.454 190.36L502.75 190.808C502.318 192.168 501.086 193.24 499.294 193.24C497.23 193.24 495.422 191.736 495.422 189.128C495.422 186.712 497.166 185.064 499.102 185.064C501.47 185.064 502.798 186.696 502.798 189.096C502.798 189.288 502.782 189.48 502.766 189.576H496.974C497.006 190.952 497.998 191.912 499.294 191.912C500.542 191.912 501.166 191.224 501.454 190.36ZM29.152 210.664H27.296V217H25.744V210.664H24.32V209.304H25.744V208.008C25.744 206.296 26.88 205.368 28.272 205.368C28.784 205.368 29.104 205.48 29.168 205.528V206.872C29.088 206.84 28.896 206.776 28.512 206.776C27.984 206.776 27.296 207.032 27.296 208.088V209.304H29.152V210.664ZM31.4279 212.36H35.6359C35.6039 211.256 34.8839 210.392 33.5239 210.392C32.2599 210.392 31.4919 211.368 31.4279 212.36ZM35.8599 214.36L37.1559 214.808C36.7239 216.168 35.4919 217.24 33.6999 217.24C31.6359 217.24 29.8279 215.736 29.8279 213.128C29.8279 210.712 31.5719 209.064 33.5079 209.064C35.8759 209.064 37.2039 210.696 37.2039 213.096C37.2039 213.288 37.1879 213.48 37.1719 213.576H31.3799C31.4119 214.952 32.4039 215.912 33.6999 215.912C34.9479 215.912 35.5719 215.224 35.8599 214.36ZM40.0998 212.36H44.3078C44.2758 211.256 43.5558 210.392 42.1958 210.392C40.9318 210.392 40.1638 211.368 40.0998 212.36ZM44.5318 214.36L45.8278 214.808C45.3958 216.168 44.1638 217.24 42.3718 217.24C40.3078 217.24 38.4998 215.736 38.4998 213.128C38.4998 210.712 40.2438 209.064 42.1798 209.064C44.5478 209.064 45.8758 210.696 45.8758 213.096C45.8758 213.288 45.8598 213.48 45.8438 213.576H40.0518C40.0838 214.952 41.0758 215.912 42.3718 215.912C43.6198 215.912 44.2438 215.224 44.5318 214.36ZM48.6916 213.128C48.6916 214.712 49.5076 215.88 50.9476 215.88C52.3236 215.88 53.1716 214.68 53.1716 213.096C53.1716 211.512 52.3396 210.424 50.9636 210.424C49.5876 210.424 48.6916 211.544 48.6916 213.128ZM53.1876 215.96V215.832C52.8196 216.568 52.0036 217.208 50.8036 217.208C48.5476 217.208 47.1556 215.416 47.1556 213.128C47.1556 210.952 48.6276 209.096 50.8036 209.096C52.1636 209.096 52.8996 209.768 53.1556 210.392V205.416H54.6436V215.576C54.6436 216.312 54.7076 216.872 54.7236 217H53.2676C53.2356 216.824 53.1876 216.424 53.1876 215.96ZM58.6899 217H57.2019V205.416H58.6899V210.392C59.0579 209.704 59.9539 209.08 61.2339 209.08C63.5699 209.08 64.7699 210.872 64.7699 213.112C64.7699 215.4 63.4739 217.208 61.1859 217.208C60.0499 217.208 59.1699 216.712 58.6899 215.88V217ZM63.2339 213.112C63.2339 211.448 62.3539 210.408 60.9619 210.408C59.6339 210.408 58.6739 211.448 58.6739 213.112C58.6739 214.776 59.6339 215.864 60.9619 215.864C62.3379 215.864 63.2339 214.776 63.2339 213.112ZM66.2063 214.936C66.2063 213.56 67.2143 212.792 68.5423 212.6L70.6223 212.296C71.0863 212.232 71.2143 211.992 71.2143 211.72C71.2143 210.968 70.7183 210.344 69.5503 210.344C68.4943 210.344 67.9023 211 67.8063 211.896L66.3663 211.56C66.5263 210.088 67.8543 209.064 69.5182 209.064C71.8223 209.064 72.7183 210.376 72.7183 211.88V215.736C72.7183 216.408 72.7823 216.808 72.8143 217H71.3423C71.3103 216.808 71.2623 216.52 71.2623 215.96C70.9263 216.504 70.1583 217.24 68.7823 217.24C67.2143 217.24 66.2063 216.152 66.2063 214.936ZM68.9903 215.976C70.2223 215.976 71.2143 215.384 71.2143 213.704V213.352L68.8623 213.704C68.2223 213.8 67.7423 214.168 67.7423 214.856C67.7423 215.432 68.2223 215.976 68.9903 215.976ZM78.2933 210.456C77.0773 210.456 75.9573 211.352 75.9573 213.144C75.9573 214.904 77.0613 215.848 78.3093 215.848C79.7493 215.848 80.2773 214.872 80.4533 214.264L81.7812 214.84C81.4133 215.944 80.3093 217.24 78.3093 217.24C76.0693 217.24 74.4213 215.48 74.4213 213.144C74.4213 210.744 76.1013 209.064 78.2933 209.064C80.3413 209.064 81.3973 210.344 81.7173 211.512L80.3573 212.088C80.1653 211.336 79.6053 210.456 78.2933 210.456ZM90.4416 209.304L87.1616 212.552L90.5056 217H88.6176L86.1056 213.608L85.0336 214.68V217H83.5456V205.416H85.0336V212.712L88.3616 209.304H90.4416ZM99.2479 215.896C100.528 215.896 101.648 214.936 101.648 213.144C101.648 211.368 100.528 210.408 99.2479 210.408C97.9679 210.408 96.8479 211.368 96.8479 213.144C96.8479 214.936 97.9679 215.896 99.2479 215.896ZM99.2479 209.064C101.552 209.064 103.184 210.808 103.184 213.144C103.184 215.496 101.552 217.24 99.2479 217.24C96.9439 217.24 95.3119 215.496 95.3119 213.144C95.3119 210.808 96.9439 209.064 99.2479 209.064ZM106.612 212.552V217H105.108V209.304H106.58V210.408C107.14 209.448 108.052 209.08 108.948 209.08C110.788 209.08 111.7 210.408 111.7 212.12V217H110.196V212.376C110.196 211.304 109.748 210.44 108.404 210.44C107.22 210.44 106.612 211.384 106.612 212.552ZM117.373 215L118.733 214.52C118.829 215.32 119.437 215.96 120.525 215.96C121.373 215.96 121.837 215.48 121.837 214.936C121.837 214.456 121.485 214.088 120.845 213.944L119.533 213.656C118.333 213.4 117.613 212.584 117.613 211.496C117.613 210.184 118.845 209.064 120.349 209.064C122.461 209.064 123.117 210.44 123.277 211.128L121.949 211.624C121.885 211.224 121.565 210.344 120.349 210.344C119.581 210.344 119.069 210.84 119.069 211.368C119.069 211.832 119.357 212.168 119.949 212.296L121.197 212.568C122.589 212.872 123.325 213.72 123.325 214.856C123.325 215.944 122.413 217.24 120.509 217.24C118.397 217.24 117.501 215.88 117.373 215ZM132.223 209.304L128.943 212.552L132.287 217H130.399L127.887 213.608L126.815 214.68V217H125.327V205.416H126.815V212.712L130.143 209.304H132.223ZM135.221 217H133.733V209.304H135.221V217ZM133.397 206.392C133.397 205.784 133.877 205.304 134.469 205.304C135.077 205.304 135.557 205.784 135.557 206.392C135.557 206.984 135.077 207.464 134.469 207.464C133.877 207.464 133.397 206.984 133.397 206.392ZM139.284 217H137.78V205.416H139.284V217ZM143.347 217H141.843V205.416H143.347V217ZM145.185 215L146.545 214.52C146.641 215.32 147.249 215.96 148.337 215.96C149.185 215.96 149.649 215.48 149.649 214.936C149.649 214.456 149.297 214.088 148.657 213.944L147.345 213.656C146.145 213.4 145.425 212.584 145.425 211.496C145.425 210.184 146.657 209.064 148.161 209.064C150.273 209.064 150.929 210.44 151.089 211.128L149.761 211.624C149.697 211.224 149.377 210.344 148.161 210.344C147.393 210.344 146.881 210.84 146.881 211.368C146.881 211.832 147.169 212.168 147.761 212.296L149.009 212.568C150.401 212.872 151.137 213.72 151.137 214.856C151.137 215.944 150.225 217.24 148.321 217.24C146.209 217.24 145.313 215.88 145.185 215ZM156.659 214.936C156.659 213.56 157.667 212.792 158.995 212.6L161.075 212.296C161.539 212.232 161.667 211.992 161.667 211.72C161.667 210.968 161.171 210.344 160.003 210.344C158.947 210.344 158.355 211 158.259 211.896L156.819 211.56C156.979 210.088 158.307 209.064 159.971 209.064C162.275 209.064 163.171 210.376 163.171 211.88V215.736C163.171 216.408 163.235 216.808 163.267 217H161.795C161.763 216.808 161.715 216.52 161.715 215.96C161.379 216.504 160.611 217.24 159.235 217.24C157.667 217.24 156.659 216.152 156.659 214.936ZM159.443 215.976C160.675 215.976 161.667 215.384 161.667 213.704V213.352L159.315 213.704C158.675 213.8 158.195 214.168 158.195 214.856C158.195 215.432 158.675 215.976 159.443 215.976ZM164.794 215L166.154 214.52C166.25 215.32 166.858 215.96 167.946 215.96C168.794 215.96 169.258 215.48 169.258 214.936C169.258 214.456 168.906 214.088 168.266 213.944L166.954 213.656C165.754 213.4 165.034 212.584 165.034 211.496C165.034 210.184 166.266 209.064 167.77 209.064C169.882 209.064 170.538 210.44 170.698 211.128L169.37 211.624C169.306 211.224 168.986 210.344 167.77 210.344C167.002 210.344 166.49 210.84 166.49 211.368C166.49 211.832 166.778 212.168 167.37 212.296L168.618 212.568C170.01 212.872 170.746 213.72 170.746 214.856C170.746 215.944 169.834 217.24 167.93 217.24C165.818 217.24 164.922 215.88 164.794 215ZM172.029 215L173.389 214.52C173.485 215.32 174.093 215.96 175.181 215.96C176.029 215.96 176.493 215.48 176.493 214.936C176.493 214.456 176.141 214.088 175.501 213.944L174.189 213.656C172.989 213.4 172.269 212.584 172.269 211.496C172.269 210.184 173.501 209.064 175.005 209.064C177.117 209.064 177.773 210.44 177.933 211.128L176.605 211.624C176.541 211.224 176.221 210.344 175.005 210.344C174.237 210.344 173.725 210.84 173.725 211.368C173.725 211.832 174.013 212.168 174.605 212.296L175.853 212.568C177.245 212.872 177.981 213.72 177.981 214.856C177.981 215.944 177.069 217.24 175.165 217.24C173.053 217.24 172.157 215.88 172.029 215ZM180.881 212.36H185.089C185.057 211.256 184.337 210.392 182.977 210.392C181.713 210.392 180.945 211.368 180.881 212.36ZM185.313 214.36L186.609 214.808C186.177 216.168 184.945 217.24 183.153 217.24C181.089 217.24 179.281 215.736 179.281 213.128C179.281 210.712 181.025 209.064 182.961 209.064C185.329 209.064 186.657 210.696 186.657 213.096C186.657 213.288 186.641 213.48 186.625 213.576H180.833C180.865 214.952 181.857 215.912 183.153 215.912C184.401 215.912 185.025 215.224 185.313 214.36ZM187.857 215L189.217 214.52C189.313 215.32 189.921 215.96 191.009 215.96C191.857 215.96 192.321 215.48 192.321 214.936C192.321 214.456 191.969 214.088 191.329 213.944L190.017 213.656C188.817 213.4 188.097 212.584 188.097 211.496C188.097 210.184 189.329 209.064 190.833 209.064C192.945 209.064 193.601 210.44 193.761 211.128L192.433 211.624C192.369 211.224 192.049 210.344 190.833 210.344C190.065 210.344 189.553 210.84 189.553 211.368C189.553 211.832 189.841 212.168 190.433 212.296L191.681 212.568C193.073 212.872 193.809 213.72 193.809 214.856C193.809 215.944 192.897 217.24 190.993 217.24C188.881 217.24 187.985 215.88 187.857 215ZM195.091 215L196.451 214.52C196.547 215.32 197.155 215.96 198.243 215.96C199.091 215.96 199.555 215.48 199.555 214.936C199.555 214.456 199.203 214.088 198.563 213.944L197.251 213.656C196.051 213.4 195.331 212.584 195.331 211.496C195.331 210.184 196.563 209.064 198.067 209.064C200.179 209.064 200.835 210.44 200.995 211.128L199.667 211.624C199.603 211.224 199.283 210.344 198.067 210.344C197.299 210.344 196.787 210.84 196.787 211.368C196.787 211.832 197.075 212.168 197.667 212.296L198.915 212.568C200.307 212.872 201.043 213.72 201.043 214.856C201.043 215.944 200.131 217.24 198.227 217.24C196.115 217.24 195.219 215.88 195.091 215ZM204.534 217H203.046V209.304H204.486V210.328C204.966 209.48 205.926 209.08 206.822 209.08C207.782 209.08 208.71 209.544 209.126 210.536C209.734 209.432 210.726 209.08 211.702 209.08C213.046 209.08 214.358 209.992 214.358 212.008V217H212.87V212.168C212.87 211.16 212.374 210.408 211.238 210.408C210.182 210.408 209.462 211.24 209.462 212.344V217H207.958V212.168C207.958 211.176 207.478 210.408 206.326 210.408C205.254 210.408 204.534 211.208 204.534 212.36V217ZM217.74 212.36H221.948C221.916 211.256 221.196 210.392 219.836 210.392C218.572 210.392 217.804 211.368 217.74 212.36ZM222.172 214.36L223.468 214.808C223.036 216.168 221.804 217.24 220.012 217.24C217.948 217.24 216.14 215.736 216.14 213.128C216.14 210.712 217.884 209.064 219.82 209.064C222.188 209.064 223.516 210.696 223.516 213.096C223.516 213.288 223.5 213.48 223.484 213.576H217.692C217.724 214.952 218.716 215.912 220.012 215.912C221.26 215.912 221.884 215.224 222.172 214.36ZM226.94 212.552V217H225.436V209.304H226.908V210.408C227.468 209.448 228.38 209.08 229.276 209.08C231.116 209.08 232.028 210.408 232.028 212.12V217H230.524V212.376C230.524 211.304 230.076 210.44 228.732 210.44C227.548 210.44 226.94 211.384 226.94 212.552ZM236.437 206.872V209.304H238.101V210.664H236.437V214.664C236.437 215.368 236.725 215.72 237.509 215.72C237.701 215.72 237.973 215.688 238.101 215.656V216.936C237.973 216.984 237.589 217.08 237.077 217.08C235.765 217.08 234.933 216.28 234.933 214.888V210.664H233.461V209.304H233.877C234.709 209.304 235.061 208.792 235.061 208.12V206.872H236.437ZM239.466 215L240.826 214.52C240.922 215.32 241.53 215.96 242.618 215.96C243.466 215.96 243.93 215.48 243.93 214.936C243.93 214.456 243.578 214.088 242.938 213.944L241.626 213.656C240.426 213.4 239.706 212.584 239.706 211.496C239.706 210.184 240.938 209.064 242.442 209.064C244.554 209.064 245.21 210.44 245.37 211.128L244.042 211.624C243.978 211.224 243.658 210.344 242.442 210.344C241.674 210.344 241.162 210.84 241.162 211.368C241.162 211.832 241.45 212.168 242.042 212.296L243.29 212.568C244.682 212.872 245.418 213.72 245.418 214.856C245.418 215.944 244.506 217.24 242.602 217.24C240.49 217.24 239.594 215.88 239.466 215ZM247.261 215.976C247.261 215.4 247.757 214.904 248.429 214.904C249.117 214.904 249.725 215.416 249.725 216.424C249.725 218.536 248.349 219.416 247.357 219.544V218.712C248.141 218.536 248.669 217.752 248.685 216.984C248.637 217.016 248.509 217.064 248.333 217.064C247.741 217.064 247.261 216.664 247.261 215.976ZM257.1 212.36H261.308C261.276 211.256 260.556 210.392 259.196 210.392C257.932 210.392 257.164 211.368 257.1 212.36ZM261.532 214.36L262.828 214.808C262.396 216.168 261.164 217.24 259.372 217.24C257.308 217.24 255.5 215.736 255.5 213.128C255.5 210.712 257.244 209.064 259.18 209.064C261.548 209.064 262.876 210.696 262.876 213.096C262.876 213.288 262.86 213.48 262.844 213.576H257.052C257.084 214.952 258.076 215.912 259.372 215.912C260.62 215.912 261.244 215.224 261.532 214.36ZM273.084 206.776C272.556 206.776 271.868 207.032 271.868 208.088V209.304H273.724V210.664H271.868V217H270.316V210.664H266.812V217H265.26V210.664H263.836V209.304H265.26V208.008C265.26 206.296 266.396 205.368 267.788 205.368C268.3 205.368 268.62 205.48 268.684 205.528V206.872C268.604 206.84 268.412 206.776 268.028 206.776C267.5 206.776 266.812 207.032 266.812 208.088V209.304H270.316V208.008C270.316 206.296 271.452 205.368 272.844 205.368C273.356 205.368 273.676 205.48 273.74 205.528V206.872C273.66 206.84 273.468 206.776 273.084 206.776ZM276.319 212.36H280.527C280.495 211.256 279.775 210.392 278.415 210.392C277.151 210.392 276.383 211.368 276.319 212.36ZM280.751 214.36L282.047 214.808C281.615 216.168 280.383 217.24 278.591 217.24C276.527 217.24 274.719 215.736 274.719 213.128C274.719 210.712 276.463 209.064 278.399 209.064C280.767 209.064 282.095 210.696 282.095 213.096C282.095 213.288 282.079 213.48 282.062 213.576H276.271C276.303 214.952 277.295 215.912 278.591 215.912C279.839 215.912 280.463 215.224 280.751 214.36ZM287.246 210.456C286.03 210.456 284.91 211.352 284.91 213.144C284.91 214.904 286.014 215.848 287.262 215.848C288.702 215.848 289.23 214.872 289.406 214.264L290.734 214.84C290.366 215.944 289.262 217.24 287.262 217.24C285.022 217.24 283.374 215.48 283.374 213.144C283.374 210.744 285.054 209.064 287.246 209.064C289.294 209.064 290.35 210.344 290.67 211.512L289.31 212.088C289.118 211.336 288.558 210.456 287.246 210.456ZM294.515 206.872V209.304H296.179V210.664H294.515V214.664C294.515 215.368 294.803 215.72 295.587 215.72C295.779 215.72 296.051 215.688 296.179 215.656V216.936C296.051 216.984 295.667 217.08 295.155 217.08C293.843 217.08 293.011 216.28 293.011 214.888V210.664H291.539V209.304H291.955C292.787 209.304 293.139 208.792 293.139 208.12V206.872H294.515ZM299.674 217H298.186V209.304H299.674V217ZM297.85 206.392C297.85 205.784 298.33 205.304 298.922 205.304C299.53 205.304 300.01 205.784 300.01 206.392C300.01 206.984 299.53 207.464 298.922 207.464C298.33 207.464 297.85 206.984 297.85 206.392ZM308.825 209.304L305.753 217H304.233L301.113 209.304H302.809L305.001 215.24L307.209 209.304H308.825ZM311.006 212.36H315.214C315.182 211.256 314.462 210.392 313.102 210.392C311.838 210.392 311.07 211.368 311.006 212.36ZM315.438 214.36L316.734 214.808C316.302 216.168 315.07 217.24 313.278 217.24C311.214 217.24 309.406 215.736 309.406 213.128C309.406 210.712 311.15 209.064 313.086 209.064C315.454 209.064 316.782 210.696 316.782 213.096C316.782 213.288 316.766 213.48 316.75 213.576H310.958C310.99 214.952 311.982 215.912 313.278 215.912C314.526 215.912 315.15 215.224 315.438 214.36ZM320.206 217H318.702V205.416H320.206V217ZM324.684 220.216H323.036L324.956 216.152L321.644 209.304H323.372L325.772 214.616L328.076 209.304H329.692L324.684 220.216ZM334.659 214.936C334.659 213.56 335.667 212.792 336.995 212.6L339.075 212.296C339.539 212.232 339.667 211.992 339.667 211.72C339.667 210.968 339.171 210.344 338.003 210.344C336.947 210.344 336.355 211 336.259 211.896L334.819 211.56C334.979 210.088 336.307 209.064 337.971 209.064C340.275 209.064 341.171 210.376 341.171 211.88V215.736C341.171 216.408 341.235 216.808 341.267 217H339.795C339.763 216.808 339.715 216.52 339.715 215.96C339.379 216.504 338.611 217.24 337.235 217.24C335.667 217.24 334.659 216.152 334.659 214.936ZM337.443 215.976C338.675 215.976 339.667 215.384 339.667 213.704V213.352L337.315 213.704C336.675 213.8 336.195 214.168 336.195 214.856C336.195 215.432 336.675 215.976 337.443 215.976ZM345.018 217H343.514V205.416H345.018V217ZM349.081 217H347.577V205.416H349.081V217ZM354.935 215.896C356.215 215.896 357.335 214.936 357.335 213.144C357.335 211.368 356.215 210.408 354.935 210.408C353.655 210.408 352.535 211.368 352.535 213.144C352.535 214.936 353.655 215.896 354.935 215.896ZM354.935 209.064C357.239 209.064 358.871 210.808 358.871 213.144C358.871 215.496 357.239 217.24 354.935 217.24C352.631 217.24 350.999 215.496 350.999 213.144C350.999 210.808 352.631 209.064 354.935 209.064ZM364.975 209.304H366.527L368.527 215.096L370.223 209.304H371.807L369.311 217H367.759L365.711 211.144L363.711 217H362.127L359.599 209.304H361.247L362.975 215.096L364.975 209.304ZM374.815 217H373.327V209.304H374.815V217ZM372.991 206.392C372.991 205.784 373.471 205.304 374.063 205.304C374.671 205.304 375.151 205.784 375.151 206.392C375.151 206.984 374.671 207.464 374.063 207.464C373.471 207.464 372.991 206.984 372.991 206.392ZM378.878 212.552V217H377.374V209.304H378.846V210.408C379.406 209.448 380.318 209.08 381.214 209.08C383.054 209.08 383.966 210.408 383.966 212.12V217H382.462V212.376C382.462 211.304 382.014 210.44 380.67 210.44C379.486 210.44 378.878 211.384 378.878 212.552ZM385.798 217.416L387.254 217.08C387.366 218.152 388.182 218.968 389.35 218.968C390.966 218.968 391.702 218.136 391.702 216.472V215.368C391.334 216.072 390.502 216.632 389.35 216.632C387.302 216.632 385.814 215.08 385.814 212.904C385.814 210.824 387.238 209.16 389.35 209.16C390.534 209.16 391.334 209.608 391.718 210.376V209.304H393.206V216.424C393.206 218.376 392.246 220.28 389.35 220.28C387.43 220.28 385.99 219.064 385.798 217.416ZM389.574 215.368C390.87 215.368 391.766 214.392 391.766 212.904C391.766 211.416 390.87 210.44 389.574 210.44C388.246 210.44 387.35 211.416 387.35 212.904C387.35 214.408 388.214 215.368 389.574 215.368ZM401.096 217H399.608V205.416H401.096V210.392C401.464 209.704 402.36 209.08 403.64 209.08C405.976 209.08 407.176 210.872 407.176 213.112C407.176 215.4 405.88 217.208 403.592 217.208C402.456 217.208 401.576 216.712 401.096 215.88V217ZM405.64 213.112C405.64 211.448 404.76 210.408 403.368 210.408C402.04 210.408 401.08 211.448 401.08 213.112C401.08 214.776 402.04 215.864 403.368 215.864C404.744 215.864 405.64 214.776 405.64 213.112ZM414.086 216.072C413.67 216.872 412.71 217.24 411.814 217.24C410.022 217.24 408.934 215.896 408.934 214.152V209.304H410.438V213.928C410.438 214.984 410.918 215.912 412.182 215.912C413.398 215.912 414.006 215.112 414.006 213.944V209.304H415.51V215.576C415.51 216.184 415.558 216.728 415.59 217H414.15C414.118 216.824 414.086 216.392 414.086 216.072ZM417.357 215L418.717 214.52C418.813 215.32 419.421 215.96 420.509 215.96C421.357 215.96 421.821 215.48 421.821 214.936C421.821 214.456 421.469 214.088 420.829 213.944L419.517 213.656C418.317 213.4 417.597 212.584 417.597 211.496C417.597 210.184 418.829 209.064 420.333 209.064C422.445 209.064 423.101 210.44 423.261 211.128L421.933 211.624C421.869 211.224 421.549 210.344 420.333 210.344C419.565 210.344 419.053 210.84 419.053 211.368C419.053 211.832 419.341 212.168 419.933 212.296L421.181 212.568C422.573 212.872 423.309 213.72 423.309 214.856C423.309 215.944 422.397 217.24 420.493 217.24C418.381 217.24 417.485 215.88 417.357 215ZM426.799 217H425.311V209.304H426.799V217ZM424.975 206.392C424.975 205.784 425.455 205.304 426.047 205.304C426.655 205.304 427.135 205.784 427.135 206.392C427.135 206.984 426.655 207.464 426.047 207.464C425.455 207.464 424.975 206.984 424.975 206.392ZM430.862 212.552V217H429.358V209.304H430.83V210.408C431.39 209.448 432.302 209.08 433.198 209.08C435.038 209.08 435.95 210.408 435.95 212.12V217H434.446V212.376C434.446 211.304 433.998 210.44 432.654 210.44C431.47 210.44 430.862 211.384 430.862 212.552ZM439.319 212.36H443.527C443.495 211.256 442.775 210.392 441.415 210.392C440.151 210.392 439.383 211.368 439.319 212.36ZM443.751 214.36L445.047 214.808C444.615 216.168 443.383 217.24 441.591 217.24C439.527 217.24 437.719 215.736 437.719 213.128C437.719 210.712 439.463 209.064 441.399 209.064C443.767 209.064 445.095 210.696 445.095 213.096C445.095 213.288 445.079 213.48 445.062 213.576H439.271C439.303 214.952 440.295 215.912 441.591 215.912C442.839 215.912 443.463 215.224 443.751 214.36ZM446.294 215L447.654 214.52C447.75 215.32 448.358 215.96 449.446 215.96C450.294 215.96 450.758 215.48 450.758 214.936C450.758 214.456 450.406 214.088 449.766 213.944L448.454 213.656C447.254 213.4 446.534 212.584 446.534 211.496C446.534 210.184 447.766 209.064 449.27 209.064C451.382 209.064 452.038 210.44 452.198 211.128L450.87 211.624C450.806 211.224 450.486 210.344 449.27 210.344C448.502 210.344 447.99 210.84 447.99 211.368C447.99 211.832 448.278 212.168 448.87 212.296L450.118 212.568C451.51 212.872 452.246 213.72 452.246 214.856C452.246 215.944 451.334 217.24 449.43 217.24C447.318 217.24 446.422 215.88 446.294 215ZM453.529 215L454.889 214.52C454.985 215.32 455.593 215.96 456.681 215.96C457.529 215.96 457.993 215.48 457.993 214.936C457.993 214.456 457.641 214.088 457.001 213.944L455.689 213.656C454.489 213.4 453.769 212.584 453.769 211.496C453.769 210.184 455.001 209.064 456.505 209.064C458.617 209.064 459.273 210.44 459.433 211.128L458.105 211.624C458.041 211.224 457.721 210.344 456.505 210.344C455.737 210.344 455.225 210.84 455.225 211.368C455.225 211.832 455.513 212.168 456.105 212.296L457.353 212.568C458.745 212.872 459.481 213.72 459.481 214.856C459.481 215.944 458.569 217.24 456.665 217.24C454.553 217.24 453.657 215.88 453.529 215ZM462.381 212.36H466.589C466.557 211.256 465.837 210.392 464.477 210.392C463.213 210.392 462.445 211.368 462.381 212.36ZM466.813 214.36L468.109 214.808C467.677 216.168 466.445 217.24 464.653 217.24C462.589 217.24 460.781 215.736 460.781 213.128C460.781 210.712 462.525 209.064 464.461 209.064C466.829 209.064 468.157 210.696 468.157 213.096C468.157 213.288 468.141 213.48 468.125 213.576H462.333C462.365 214.952 463.357 215.912 464.653 215.912C465.901 215.912 466.525 215.224 466.813 214.36ZM469.357 215L470.717 214.52C470.813 215.32 471.421 215.96 472.509 215.96C473.357 215.96 473.821 215.48 473.821 214.936C473.821 214.456 473.469 214.088 472.829 213.944L471.517 213.656C470.317 213.4 469.597 212.584 469.597 211.496C469.597 210.184 470.829 209.064 472.333 209.064C474.445 209.064 475.101 210.44 475.261 211.128L473.933 211.624C473.869 211.224 473.549 210.344 472.333 210.344C471.565 210.344 471.053 210.84 471.053 211.368C471.053 211.832 471.341 212.168 471.933 212.296L473.181 212.568C474.573 212.872 475.309 213.72 475.309 214.856C475.309 215.944 474.397 217.24 472.493 217.24C470.381 217.24 469.485 215.88 469.357 215ZM483.327 206.872V209.304H484.991V210.664H483.327V214.664C483.327 215.368 483.615 215.72 484.399 215.72C484.591 215.72 484.863 215.688 484.991 215.656V216.936C484.863 216.984 484.479 217.08 483.967 217.08C482.655 217.08 481.823 216.28 481.823 214.888V210.664H480.351V209.304H480.767C481.599 209.304 481.951 208.792 481.951 208.12V206.872H483.327ZM490.217 215.896C491.497 215.896 492.617 214.936 492.617 213.144C492.617 211.368 491.497 210.408 490.217 210.408C488.937 210.408 487.817 211.368 487.817 213.144C487.817 214.936 488.937 215.896 490.217 215.896ZM490.217 209.064C492.521 209.064 494.153 210.808 494.153 213.144C494.153 215.496 492.521 217.24 490.217 217.24C487.913 217.24 486.281 215.496 486.281 213.144C486.281 210.808 487.913 209.064 490.217 209.064ZM24.56 239L25.92 238.52C26.016 239.32 26.624 239.96 27.712 239.96C28.56 239.96 29.024 239.48 29.024 238.936C29.024 238.456 28.672 238.088 28.032 237.944L26.72 237.656C25.52 237.4 24.8 236.584 24.8 235.496C24.8 234.184 26.032 233.064 27.536 233.064C29.648 233.064 30.304 234.44 30.464 235.128L29.136 235.624C29.072 235.224 28.752 234.344 27.536 234.344C26.768 234.344 26.256 234.84 26.256 235.368C26.256 235.832 26.544 236.168 27.136 236.296L28.384 236.568C29.776 236.872 30.512 237.72 30.512 238.856C30.512 239.944 29.6 241.24 27.696 241.24C25.584 241.24 24.688 239.88 24.56 239ZM33.4123 236.36H37.6203C37.5883 235.256 36.8683 234.392 35.5083 234.392C34.2443 234.392 33.4763 235.368 33.4123 236.36ZM37.8443 238.36L39.1403 238.808C38.7083 240.168 37.4763 241.24 35.6843 241.24C33.6203 241.24 31.8123 239.736 31.8123 237.128C31.8123 234.712 33.5563 233.064 35.4923 233.064C37.8603 233.064 39.1883 234.696 39.1883 237.096C39.1883 237.288 39.1723 237.48 39.1562 237.576H33.3643C33.3963 238.952 34.3883 239.912 35.6843 239.912C36.9323 239.912 37.5563 239.224 37.8443 238.36ZM40.6281 238.936C40.6281 237.56 41.6361 236.792 42.9641 236.6L45.0441 236.296C45.5081 236.232 45.6361 235.992 45.6361 235.72C45.6361 234.968 45.1401 234.344 43.9721 234.344C42.9161 234.344 42.3241 235 42.2281 235.896L40.7881 235.56C40.9481 234.088 42.2761 233.064 43.9401 233.064C46.2441 233.064 47.1401 234.376 47.1401 235.88V239.736C47.1401 240.408 47.2041 240.808 47.2361 241H45.7641C45.7321 240.808 45.6841 240.52 45.6841 239.96C45.3481 240.504 44.5801 241.24 43.2041 241.24C41.6361 241.24 40.6281 240.152 40.6281 238.936ZM43.4121 239.976C44.6441 239.976 45.6361 239.384 45.6361 237.704V237.352L43.2841 237.704C42.6441 237.8 42.1641 238.168 42.1641 238.856C42.1641 239.432 42.6441 239.976 43.4121 239.976ZM50.9711 241H49.4831V233.304H50.9231V234.328C51.4031 233.48 52.3631 233.08 53.2591 233.08C54.2191 233.08 55.1471 233.544 55.5631 234.536C56.1711 233.432 57.1631 233.08 58.1391 233.08C59.4831 233.08 60.7951 233.992 60.7951 236.008V241H59.3071V236.168C59.3071 235.16 58.8111 234.408 57.6751 234.408C56.6191 234.408 55.8991 235.24 55.8991 236.344V241H54.3951V236.168C54.3951 235.176 53.9151 234.408 52.7631 234.408C51.6911 234.408 50.9711 235.208 50.9711 236.36V241ZM64.7059 241H63.2019V229.416H64.7059V241ZM68.2404 236.36H72.4484C72.4164 235.256 71.6964 234.392 70.3364 234.392C69.0724 234.392 68.3044 235.368 68.2404 236.36ZM72.6724 238.36L73.9684 238.808C73.5364 240.168 72.3044 241.24 70.5124 241.24C68.4484 241.24 66.6404 239.736 66.6404 237.128C66.6404 234.712 68.3844 233.064 70.3204 233.064C72.6884 233.064 74.0164 234.696 74.0164 237.096C74.0164 237.288 74.0004 237.48 73.9844 237.576H68.1924C68.2244 238.952 69.2164 239.912 70.5124 239.912C71.7604 239.912 72.3844 239.224 72.6724 238.36ZM75.2163 239L76.5763 238.52C76.6723 239.32 77.2803 239.96 78.3683 239.96C79.2163 239.96 79.6803 239.48 79.6803 238.936C79.6803 238.456 79.3283 238.088 78.6883 237.944L77.3763 237.656C76.1763 237.4 75.4563 236.584 75.4563 235.496C75.4563 234.184 76.6883 233.064 78.1923 233.064C80.3043 233.064 80.9603 234.44 81.1203 235.128L79.7923 235.624C79.7283 235.224 79.4083 234.344 78.1923 234.344C77.4243 234.344 76.9123 234.84 76.9123 235.368C76.9123 235.832 77.2003 236.168 77.7923 236.296L79.0403 236.568C80.4323 236.872 81.1683 237.72 81.1683 238.856C81.1683 239.944 80.2563 241.24 78.3523 241.24C76.2403 241.24 75.3443 239.88 75.2163 239ZM82.4506 239L83.8106 238.52C83.9066 239.32 84.5146 239.96 85.6026 239.96C86.4506 239.96 86.9146 239.48 86.9146 238.936C86.9146 238.456 86.5626 238.088 85.9226 237.944L84.6106 237.656C83.4106 237.4 82.6906 236.584 82.6906 235.496C82.6906 234.184 83.9226 233.064 85.4266 233.064C87.5386 233.064 88.1946 234.44 88.3546 235.128L87.0266 235.624C86.9626 235.224 86.6426 234.344 85.4266 234.344C84.6586 234.344 84.1466 234.84 84.1466 235.368C84.1466 235.832 84.4346 236.168 85.0266 236.296L86.2746 236.568C87.6666 236.872 88.4026 237.72 88.4026 238.856C88.4026 239.944 87.4906 241.24 85.5866 241.24C83.4746 241.24 82.5786 239.88 82.4506 239ZM91.909 241H90.405V229.416H91.909V241ZM96.3875 244.216H94.7395L96.6595 240.152L93.3475 233.304H95.0755L97.4755 238.616L99.7795 233.304H101.396L96.3875 244.216ZM108.331 244.04H106.843V233.304H108.299V234.504C108.715 233.736 109.627 233.128 110.875 233.128C113.179 233.128 114.411 234.904 114.411 237.144C114.411 239.432 113.083 241.208 110.827 241.208C109.643 241.208 108.747 240.648 108.331 239.96V244.04ZM112.875 237.144C112.875 235.608 112.011 234.456 110.603 234.456C109.227 234.456 108.315 235.608 108.315 237.144C108.315 238.728 109.227 239.864 110.603 239.864C111.995 239.864 112.875 238.728 112.875 237.144ZM115.847 238.936C115.847 237.56 116.855 236.792 118.183 236.6L120.263 236.296C120.727 236.232 120.855 235.992 120.855 235.72C120.855 234.968 120.359 234.344 119.191 234.344C118.135 234.344 117.543 235 117.447 235.896L116.007 235.56C116.167 234.088 117.495 233.064 119.159 233.064C121.463 233.064 122.359 234.376 122.359 235.88V239.736C122.359 240.408 122.423 240.808 122.455 241H120.983C120.951 240.808 120.903 240.52 120.903 239.96C120.567 240.504 119.799 241.24 118.423 241.24C116.855 241.24 115.847 240.152 115.847 238.936ZM118.631 239.976C119.863 239.976 120.855 239.384 120.855 237.704V237.352L118.503 237.704C117.863 237.8 117.383 238.168 117.383 238.856C117.383 239.432 117.863 239.976 118.631 239.976ZM128.974 233.224V234.824C128.75 234.792 128.526 234.776 128.318 234.776C127.054 234.776 126.206 235.448 126.206 237.144V241H124.702V233.304H126.174V234.648C126.734 233.464 127.694 233.176 128.478 233.176C128.686 233.176 128.894 233.208 128.974 233.224ZM132.999 230.872V233.304H134.663V234.664H132.999V238.664C132.999 239.368 133.287 239.72 134.071 239.72C134.263 239.72 134.535 239.688 134.663 239.656V240.936C134.535 240.984 134.151 241.08 133.639 241.08C132.327 241.08 131.495 240.28 131.495 238.888V234.664H130.023V233.304H130.439C131.271 233.304 131.623 232.792 131.623 232.12V230.872H132.999ZM138.159 241H136.671V233.304H138.159V241ZM136.335 230.392C136.335 229.784 136.815 229.304 137.407 229.304C138.015 229.304 138.495 229.784 138.495 230.392C138.495 230.984 138.015 231.464 137.407 231.464C136.815 231.464 136.335 230.984 136.335 230.392ZM143.95 234.456C142.734 234.456 141.614 235.352 141.614 237.144C141.614 238.904 142.718 239.848 143.966 239.848C145.406 239.848 145.934 238.872 146.11 238.264L147.438 238.84C147.07 239.944 145.966 241.24 143.966 241.24C141.726 241.24 140.078 239.48 140.078 237.144C140.078 234.744 141.758 233.064 143.95 233.064C145.998 233.064 147.054 234.344 147.374 235.512L146.014 236.088C145.822 235.336 145.262 234.456 143.95 234.456ZM150.69 241H149.202V233.304H150.69V241ZM148.866 230.392C148.866 229.784 149.346 229.304 149.938 229.304C150.546 229.304 151.026 229.784 151.026 230.392C151.026 230.984 150.546 231.464 149.938 231.464C149.346 231.464 148.866 230.984 148.866 230.392ZM154.737 244.04H153.249V233.304H154.705V234.504C155.121 233.736 156.033 233.128 157.281 233.128C159.585 233.128 160.817 234.904 160.817 237.144C160.817 239.432 159.489 241.208 157.233 241.208C156.049 241.208 155.153 240.648 154.737 239.96V244.04ZM159.281 237.144C159.281 235.608 158.417 234.456 157.009 234.456C155.633 234.456 154.721 235.608 154.721 237.144C154.721 238.728 155.633 239.864 157.009 239.864C158.401 239.864 159.281 238.728 159.281 237.144ZM162.253 238.936C162.253 237.56 163.261 236.792 164.589 236.6L166.669 236.296C167.133 236.232 167.261 235.992 167.261 235.72C167.261 234.968 166.765 234.344 165.597 234.344C164.541 234.344 163.949 235 163.853 235.896L162.413 235.56C162.573 234.088 163.901 233.064 165.565 233.064C167.869 233.064 168.765 234.376 168.765 235.88V239.736C168.765 240.408 168.829 240.808 168.861 241H167.389C167.357 240.808 167.309 240.52 167.309 239.96C166.973 240.504 166.205 241.24 164.829 241.24C163.261 241.24 162.253 240.152 162.253 238.936ZM165.037 239.976C166.269 239.976 167.261 239.384 167.261 237.704V237.352L164.909 237.704C164.269 237.8 163.789 238.168 163.789 238.856C163.789 239.432 164.269 239.976 165.037 239.976ZM173.124 230.872V233.304H174.788V234.664H173.124V238.664C173.124 239.368 173.412 239.72 174.196 239.72C174.388 239.72 174.66 239.688 174.788 239.656V240.936C174.66 240.984 174.276 241.08 173.764 241.08C172.452 241.08 171.62 240.28 171.62 238.888V234.664H170.148V233.304H170.564C171.396 233.304 171.748 232.792 171.748 232.12V230.872H173.124ZM177.694 236.36H181.902C181.87 235.256 181.15 234.392 179.79 234.392C178.526 234.392 177.758 235.368 177.694 236.36ZM182.126 238.36L183.422 238.808C182.99 240.168 181.758 241.24 179.966 241.24C177.902 241.24 176.094 239.736 176.094 237.128C176.094 234.712 177.838 233.064 179.774 233.064C182.142 233.064 183.47 234.696 183.47 237.096C183.47 237.288 183.454 237.48 183.438 237.576H177.646C177.678 238.952 178.67 239.912 179.966 239.912C181.214 239.912 181.838 239.224 182.126 238.36ZM190.877 241H189.389V233.304H190.877V241ZM189.053 230.392C189.053 229.784 189.533 229.304 190.125 229.304C190.733 229.304 191.213 229.784 191.213 230.392C191.213 230.984 190.733 231.464 190.125 231.464C189.533 231.464 189.053 230.984 189.053 230.392ZM194.94 236.552V241H193.436V233.304H194.908V234.408C195.468 233.448 196.38 233.08 197.276 233.08C199.116 233.08 200.028 234.408 200.028 236.12V241H198.524V236.376C198.524 235.304 198.076 234.44 196.732 234.44C195.548 234.44 194.94 235.384 194.94 236.552ZM208.437 230.872V233.304H210.101V234.664H208.437V238.664C208.437 239.368 208.725 239.72 209.509 239.72C209.701 239.72 209.973 239.688 210.101 239.656V240.936C209.973 240.984 209.589 241.08 209.077 241.08C207.765 241.08 206.933 240.28 206.933 238.888V234.664H205.461V233.304H205.877C206.709 233.304 207.061 232.792 207.061 232.12V230.872H208.437ZM213.612 236.472V241H212.108V229.416H213.612V234.2C214.172 233.384 215.068 233.08 215.948 233.08C217.788 233.08 218.7 234.408 218.7 236.12V241H217.196V236.376C217.196 235.304 216.748 234.44 215.404 234.44C214.252 234.44 213.644 235.336 213.612 236.472ZM222.069 236.36H226.277C226.245 235.256 225.525 234.392 224.165 234.392C222.901 234.392 222.133 235.368 222.069 236.36ZM226.501 238.36L227.797 238.808C227.365 240.168 226.133 241.24 224.341 241.24C222.277 241.24 220.469 239.736 220.469 237.128C220.469 234.712 222.213 233.064 224.149 233.064C226.517 233.064 227.845 234.696 227.845 237.096C227.845 237.288 227.829 237.48 227.812 237.576H222.021C222.053 238.952 223.045 239.912 224.341 239.912C225.589 239.912 226.213 239.224 226.501 238.36ZM233.284 238.936C233.284 237.56 234.292 236.792 235.62 236.6L237.7 236.296C238.164 236.232 238.292 235.992 238.292 235.72C238.292 234.968 237.796 234.344 236.628 234.344C235.572 234.344 234.98 235 234.884 235.896L233.444 235.56C233.604 234.088 234.932 233.064 236.596 233.064C238.9 233.064 239.796 234.376 239.796 235.88V239.736C239.796 240.408 239.86 240.808 239.892 241H238.42C238.388 240.808 238.34 240.52 238.34 239.96C238.004 240.504 237.236 241.24 235.86 241.24C234.292 241.24 233.284 240.152 233.284 238.936ZM236.068 239.976C237.3 239.976 238.292 239.384 238.292 237.704V237.352L235.94 237.704C235.3 237.8 234.82 238.168 234.82 238.856C234.82 239.432 235.3 239.976 236.068 239.976ZM241.419 239L242.779 238.52C242.875 239.32 243.483 239.96 244.571 239.96C245.419 239.96 245.883 239.48 245.883 238.936C245.883 238.456 245.531 238.088 244.891 237.944L243.579 237.656C242.379 237.4 241.659 236.584 241.659 235.496C241.659 234.184 242.891 233.064 244.395 233.064C246.507 233.064 247.163 234.44 247.323 235.128L245.995 235.624C245.931 235.224 245.611 234.344 244.395 234.344C243.627 234.344 243.115 234.84 243.115 235.368C243.115 235.832 243.403 236.168 243.995 236.296L245.243 236.568C246.635 236.872 247.371 237.72 247.371 238.856C247.371 239.944 246.459 241.24 244.555 241.24C242.443 241.24 241.547 239.88 241.419 239ZM248.654 239L250.014 238.52C250.11 239.32 250.718 239.96 251.806 239.96C252.654 239.96 253.118 239.48 253.118 238.936C253.118 238.456 252.766 238.088 252.126 237.944L250.814 237.656C249.614 237.4 248.894 236.584 248.894 235.496C248.894 234.184 250.126 233.064 251.63 233.064C253.742 233.064 254.398 234.44 254.558 235.128L253.23 235.624C253.166 235.224 252.846 234.344 251.63 234.344C250.862 234.344 250.35 234.84 250.35 235.368C250.35 235.832 250.638 236.168 251.23 236.296L252.478 236.568C253.87 236.872 254.606 237.72 254.606 238.856C254.606 239.944 253.694 241.24 251.79 241.24C249.678 241.24 248.782 239.88 248.654 239ZM257.506 236.36H261.714C261.682 235.256 260.962 234.392 259.602 234.392C258.338 234.392 257.57 235.368 257.506 236.36ZM261.938 238.36L263.234 238.808C262.802 240.168 261.57 241.24 259.778 241.24C257.714 241.24 255.906 239.736 255.906 237.128C255.906 234.712 257.65 233.064 259.586 233.064C261.954 233.064 263.282 234.696 263.282 237.096C263.282 237.288 263.266 237.48 263.25 237.576H257.458C257.49 238.952 258.482 239.912 259.778 239.912C261.026 239.912 261.65 239.224 261.938 238.36ZM264.482 239L265.842 238.52C265.938 239.32 266.546 239.96 267.634 239.96C268.482 239.96 268.946 239.48 268.946 238.936C268.946 238.456 268.594 238.088 267.954 237.944L266.642 237.656C265.442 237.4 264.722 236.584 264.722 235.496C264.722 234.184 265.954 233.064 267.458 233.064C269.57 233.064 270.226 234.44 270.386 235.128L269.058 235.624C268.994 235.224 268.674 234.344 267.458 234.344C266.69 234.344 266.178 234.84 266.178 235.368C266.178 235.832 266.466 236.168 267.058 236.296L268.306 236.568C269.698 236.872 270.434 237.72 270.434 238.856C270.434 239.944 269.522 241.24 267.618 241.24C265.506 241.24 264.61 239.88 264.482 239ZM271.716 239L273.076 238.52C273.172 239.32 273.78 239.96 274.868 239.96C275.716 239.96 276.18 239.48 276.18 238.936C276.18 238.456 275.828 238.088 275.188 237.944L273.876 237.656C272.676 237.4 271.956 236.584 271.956 235.496C271.956 234.184 273.188 233.064 274.692 233.064C276.804 233.064 277.46 234.44 277.62 235.128L276.292 235.624C276.228 235.224 275.908 234.344 274.692 234.344C273.924 234.344 273.412 234.84 273.412 235.368C273.412 235.832 273.7 236.168 274.292 236.296L275.54 236.568C276.932 236.872 277.668 237.72 277.668 238.856C277.668 239.944 276.756 241.24 274.852 241.24C272.74 241.24 271.844 239.88 271.716 239ZM281.159 241H279.671V233.304H281.111V234.328C281.591 233.48 282.551 233.08 283.447 233.08C284.407 233.08 285.335 233.544 285.751 234.536C286.359 233.432 287.351 233.08 288.327 233.08C289.671 233.08 290.983 233.992 290.983 236.008V241H289.495V236.168C289.495 235.16 288.999 234.408 287.863 234.408C286.807 234.408 286.087 235.24 286.087 236.344V241H284.583V236.168C284.583 235.176 284.103 234.408 282.951 234.408C281.879 234.408 281.159 235.208 281.159 236.36V241ZM294.365 236.36H298.573C298.541 235.256 297.821 234.392 296.461 234.392C295.197 234.392 294.429 235.368 294.365 236.36ZM298.797 238.36L300.093 238.808C299.661 240.168 298.429 241.24 296.637 241.24C294.573 241.24 292.765 239.736 292.765 237.128C292.765 234.712 294.509 233.064 296.445 233.064C298.813 233.064 300.141 234.696 300.141 237.096C300.141 237.288 300.125 237.48 300.109 237.576H294.317C294.349 238.952 295.341 239.912 296.637 239.912C297.885 239.912 298.509 239.224 298.797 238.36ZM303.565 236.552V241H302.061V233.304H303.533V234.408C304.093 233.448 305.005 233.08 305.901 233.08C307.741 233.08 308.653 234.408 308.653 236.12V241H307.149V236.376C307.149 235.304 306.701 234.44 305.357 234.44C304.173 234.44 303.565 235.384 303.565 236.552ZM313.062 230.872V233.304H314.726V234.664H313.062V238.664C313.062 239.368 313.35 239.72 314.134 239.72C314.326 239.72 314.598 239.688 314.726 239.656V240.936C314.598 240.984 314.214 241.08 313.702 241.08C312.39 241.08 311.558 240.28 311.558 238.888V234.664H310.086V233.304H310.502C311.334 233.304 311.686 232.792 311.686 232.12V230.872H313.062ZM324.029 239.896C325.309 239.896 326.429 238.936 326.429 237.144C326.429 235.368 325.309 234.408 324.029 234.408C322.749 234.408 321.629 235.368 321.629 237.144C321.629 238.936 322.749 239.896 324.029 239.896ZM324.029 233.064C326.333 233.064 327.965 234.808 327.965 237.144C327.965 239.496 326.333 241.24 324.029 241.24C321.725 241.24 320.093 239.496 320.093 237.144C320.093 234.808 321.725 233.064 324.029 233.064ZM333.761 234.664H331.905V241H330.353V234.664H328.929V233.304H330.353V232.008C330.353 230.296 331.489 229.368 332.881 229.368C333.393 229.368 333.713 229.48 333.777 229.528V230.872C333.697 230.84 333.505 230.776 333.121 230.776C332.593 230.776 331.905 231.032 331.905 232.088V233.304H333.761V234.664ZM338.654 239L340.014 238.52C340.11 239.32 340.718 239.96 341.806 239.96C342.654 239.96 343.118 239.48 343.118 238.936C343.118 238.456 342.766 238.088 342.126 237.944L340.814 237.656C339.614 237.4 338.894 236.584 338.894 235.496C338.894 234.184 340.126 233.064 341.63 233.064C343.742 233.064 344.398 234.44 344.558 235.128L343.23 235.624C343.166 235.224 342.846 234.344 341.63 234.344C340.862 234.344 340.35 234.84 340.35 235.368C340.35 235.832 340.638 236.168 341.23 236.296L342.478 236.568C343.87 236.872 344.606 237.72 344.606 238.856C344.606 239.944 343.694 241.24 341.79 241.24C339.678 241.24 338.782 239.88 338.654 239ZM348.624 230.872V233.304H350.288V234.664H348.624V238.664C348.624 239.368 348.912 239.72 349.696 239.72C349.888 239.72 350.16 239.688 350.288 239.656V240.936C350.16 240.984 349.776 241.08 349.264 241.08C347.952 241.08 347.12 240.28 347.12 238.888V234.664H345.648V233.304H346.064C346.896 233.304 347.248 232.792 347.248 232.12V230.872H348.624ZM357.368 240.072C356.952 240.872 355.992 241.24 355.096 241.24C353.304 241.24 352.216 239.896 352.216 238.152V233.304H353.72V237.928C353.72 238.984 354.2 239.912 355.464 239.912C356.68 239.912 357.288 239.112 357.288 237.944V233.304H358.792V239.576C358.792 240.184 358.84 240.728 358.872 241H357.432C357.4 240.824 357.368 240.392 357.368 240.072ZM362.176 237.128C362.176 238.712 362.992 239.88 364.432 239.88C365.808 239.88 366.656 238.68 366.656 237.096C366.656 235.512 365.824 234.424 364.448 234.424C363.072 234.424 362.176 235.544 362.176 237.128ZM366.672 239.96V239.832C366.304 240.568 365.488 241.208 364.288 241.208C362.032 241.208 360.64 239.416 360.64 237.128C360.64 234.952 362.112 233.096 364.288 233.096C365.648 233.096 366.384 233.768 366.64 234.392V229.416H368.128V239.576C368.128 240.312 368.192 240.872 368.208 241H366.752C366.72 240.824 366.672 240.424 366.672 239.96ZM371.662 236.36H375.87C375.838 235.256 375.118 234.392 373.758 234.392C372.494 234.392 371.726 235.368 371.662 236.36ZM376.094 238.36L377.39 238.808C376.958 240.168 375.726 241.24 373.934 241.24C371.87 241.24 370.062 239.736 370.062 237.128C370.062 234.712 371.806 233.064 373.742 233.064C376.11 233.064 377.438 234.696 377.438 237.096C377.438 237.288 377.422 237.48 377.406 237.576H371.614C371.646 238.952 372.638 239.912 373.934 239.912C375.182 239.912 375.806 239.224 376.094 238.36ZM380.862 236.552V241H379.358V233.304H380.83V234.408C381.39 233.448 382.302 233.08 383.198 233.08C385.038 233.08 385.95 234.408 385.95 236.12V241H384.446V236.376C384.446 235.304 383.998 234.44 382.654 234.44C381.47 234.44 380.862 235.384 380.862 236.552ZM390.359 230.872V233.304H392.023V234.664H390.359V238.664C390.359 239.368 390.647 239.72 391.431 239.72C391.623 239.72 391.895 239.688 392.023 239.656V240.936C391.895 240.984 391.511 241.08 390.999 241.08C389.687 241.08 388.855 240.28 388.855 238.888V234.664H387.383V233.304H387.799C388.631 233.304 388.983 232.792 388.983 232.12V230.872H390.359ZM397.31 239L398.67 238.52C398.766 239.32 399.374 239.96 400.462 239.96C401.31 239.96 401.774 239.48 401.774 238.936C401.774 238.456 401.422 238.088 400.782 237.944L399.47 237.656C398.27 237.4 397.55 236.584 397.55 235.496C397.55 234.184 398.782 233.064 400.286 233.064C402.398 233.064 403.054 234.44 403.214 235.128L401.886 235.624C401.822 235.224 401.502 234.344 400.286 234.344C399.518 234.344 399.006 234.84 399.006 235.368C399.006 235.832 399.294 236.168 399.886 236.296L401.134 236.568C402.526 236.872 403.262 237.72 403.262 238.856C403.262 239.944 402.35 241.24 400.446 241.24C398.334 241.24 397.438 239.88 397.31 239ZM412.16 233.304L408.88 236.552L412.224 241H410.336L407.824 237.608L406.752 238.68V241H405.264V229.416H406.752V236.712L410.08 233.304H412.16ZM415.159 241H413.671V233.304H415.159V241ZM413.335 230.392C413.335 229.784 413.815 229.304 414.407 229.304C415.015 229.304 415.495 229.784 415.495 230.392C415.495 230.984 415.015 231.464 414.407 231.464C413.815 231.464 413.335 230.984 413.335 230.392ZM419.222 241H417.718V229.416H419.222V241ZM423.284 241H421.78V229.416H423.284V241ZM425.123 239L426.483 238.52C426.579 239.32 427.187 239.96 428.275 239.96C429.123 239.96 429.587 239.48 429.587 238.936C429.587 238.456 429.235 238.088 428.595 237.944L427.283 237.656C426.083 237.4 425.363 236.584 425.363 235.496C425.363 234.184 426.595 233.064 428.099 233.064C430.211 233.064 430.867 234.44 431.027 235.128L429.699 235.624C429.635 235.224 429.315 234.344 428.099 234.344C427.331 234.344 426.819 234.84 426.819 235.368C426.819 235.832 427.107 236.168 427.699 236.296L428.947 236.568C430.339 236.872 431.075 237.72 431.075 238.856C431.075 239.944 430.163 241.24 428.259 241.24C426.147 241.24 425.251 239.88 425.123 239ZM432.917 239.976C432.917 239.352 433.397 238.856 434.021 238.856C434.645 238.856 435.141 239.352 435.141 239.976C435.141 240.6 434.645 241.08 434.021 241.08C433.397 241.08 432.917 240.6 432.917 239.976Z" fill="white"/>
</svg>
