<svg width="49" height="46" viewBox="0 0 49 46" fill="none" xmlns="http://www.w3.org/2000/svg">
<g id="Group 91">
<path id="Vector" d="M47.6819 19.0837L38.1897 2.64856C37.2607 1.03736 35.5373 0.0410156 33.6748 0.0410156H14.6994C12.8369 0.0410156 11.118 1.03287 10.1844 2.64856L0.696766 19.0837C-0.232255 20.6949 -0.232255 22.6831 0.696766 24.2943L10.1844 40.7294C11.1135 42.3406 12.8369 43.337 14.6994 43.337H26.2381C25.4886 42.2733 24.9366 41.0571 24.6314 39.7466H16.7729C14.9103 39.7466 13.1914 38.7547 12.2579 37.139L4.83921 24.2943C3.91019 22.6831 3.91019 20.6949 4.83921 19.0837L12.2579 6.23449C13.1869 4.62329 14.9103 3.62695 16.7729 3.62695H31.6058C33.4683 3.62695 35.1872 4.6188 36.1207 6.23449L43.5394 19.0837C44.4685 20.6949 44.4685 22.6831 43.5394 24.2943L40.7255 29.1683C41.7397 29.9178 42.6059 30.8468 43.2881 31.9105L47.6864 24.2943C48.6154 22.6831 48.6154 20.6949 47.6864 19.0837H47.6819Z" fill="#0B3550"/>
<path id="Vector_2" d="M34.7646 45.9579C39.4616 45.9579 43.2694 42.1501 43.2694 37.453C43.2694 32.756 39.4616 28.9482 34.7646 28.9482C30.0675 28.9482 26.2598 32.756 26.2598 37.453C26.2598 42.1501 30.0675 45.9579 34.7646 45.9579Z" fill="#0B3550"/>
<path id="Vector_3" d="M30.6586 38.3956C30.4522 38.1982 30.3445 37.9334 30.34 37.6686C30.3355 37.4038 30.4298 37.1345 30.6272 36.928C30.8247 36.7216 31.0895 36.6139 31.3543 36.6094C31.6191 36.6049 31.8884 36.6992 32.0948 36.8966L33.881 38.6155L37.4356 34.1006C37.4356 34.1006 37.458 34.0781 37.4715 34.0692C37.6824 33.8852 37.9472 33.8044 38.2075 33.8178H38.221C38.4813 33.8358 38.7371 33.9525 38.9256 34.1634C39.1186 34.3788 39.2038 34.6481 39.1904 34.9129V34.9264C39.1724 35.1822 39.0602 35.4335 38.8583 35.622L34.5902 40.8147C34.5902 40.8147 34.5722 40.8326 34.5632 40.8416C34.3613 41.0166 34.1099 41.1019 33.8586 41.0974C33.6073 41.0974 33.3515 40.9987 33.1585 40.8102L30.6586 38.4046V38.3956Z" fill="#FDFEFE"/>
<path id="Vector_4" d="M24.1963 9.56494V16.0501C24.1963 16.1489 24.2771 16.2297 24.3759 16.2297H35.1606C35.3401 16.2297 35.4074 16.4675 35.2548 16.5618L24.4387 23.397C24.3803 23.4329 24.304 23.4329 24.2457 23.397L13.1154 16.4989C13.0032 16.4271 13.0032 16.2656 13.1154 16.1938L23.9136 9.41235C24.0348 9.33606 24.1918 9.42133 24.1918 9.56494H24.1963Z" fill="#D64341"/>
<path id="Vector_5" d="M15.7545 20.3312V24.6441C15.7545 24.707 15.7904 24.7698 15.8442 24.8012L24.2369 29.5989C24.2907 29.6303 24.3625 29.6303 24.4164 29.5989L32.6205 24.8775C32.6743 24.8461 32.7102 24.7878 32.7102 24.7204V20.3312C32.7102 20.1875 32.5532 20.1023 32.432 20.1786L24.4209 25.3802C24.3625 25.4206 24.2862 25.4206 24.2279 25.3802L16.0283 20.1741C15.9071 20.0978 15.75 20.183 15.75 20.3267L15.7545 20.3312Z" fill="#0B3550"/>
<path id="Vector_6" d="M14.0077 16.7588H13.707V20.7801H14.0077V16.7588Z" fill="#D64341"/>
<path id="Vector_7" d="M13.7077 20.7803C13.7077 20.7803 12.7877 25.2503 13.7077 25.6453H14.4393C14.4393 25.6453 15.117 24.9093 14.0084 20.7803H13.7077Z" fill="#D64341"/>
<path id="Vector_8" d="M13.865 21.3765C14.1302 21.3765 14.3452 21.1615 14.3452 20.8962C14.3452 20.631 14.1302 20.416 13.865 20.416C13.5998 20.416 13.3848 20.631 13.3848 20.8962C13.3848 21.1615 13.5998 21.3765 13.865 21.3765Z" fill="#D64341"/>
</g>
</svg>
